<?xml version="1.0" standalone="no"?>
<!DOCTYPE svg PUBLIC "-//W3C//DTD SVG 1.1//EN" "http://www.w3.org/Graphics/SVG/1.1/DTD/svg11.dtd" >
<svg xmlns="http://www.w3.org/2000/svg">
<metadata>
This is a custom SVG webfont generated by Font Squirrel.
Copyright   : Copyright c 2010 by BSozoo All rights reserved3
Designer    : BSozoo
Foundry     : BSozoo
</metadata>
<defs>
<font id="Stratounlinked" horiz-adv-x="1394" >
<font-face units-per-em="2048" ascent="1638" descent="-410" />
<missing-glyph horiz-adv-x="1118" />
<glyph unicode=" "  horiz-adv-x="1118" />
<glyph unicode="&#x09;" horiz-adv-x="1118" />
<glyph unicode="&#xa0;" horiz-adv-x="1118" />
<glyph unicode="!" horiz-adv-x="897" d="M33 147q0 16 4 29q18 76 68.5 129t123.5 72q29 6 58 6q70 0 118 -26.5t48 -69.5q0 -12 -2 -17q-39 -199 -291 -254q-4 -2 -19 -2q-43 0 -75.5 42t-32.5 91zM172 594q0 25 6 53q12 78 146 598q133 518 145 637q12 117 123 150q80 27 199 36l51 5q39 0 39 -48 q0 -59 -25 -141q-23 -78 -186 -530q-168 -473 -197 -611q-14 -88 -98 -159q-84 -72 -142 -72q-4 0 -20 4q-41 19 -41 78z" />
<glyph unicode="&#x22;" horiz-adv-x="1126" d="M117 1341q-2 4 34.5 42t74.5 99.5t36 114.5q-59 23 -91 84.5t-32 92.5q6 100 56 180q51 82 108 82q106 -10 172 -51q78 -47 78 -224q0 -41 -2 -53q-4 -104 -46 -184t-102.5 -120t-119 -58.5t-111.5 -18.5q-31 0 -49 6q-6 2 -6 8zM625 1341q-2 4 34.5 42t74.5 99.5 t36 114.5q-59 23 -91 84.5t-32 92.5q0 150 56.5 234.5t132.5 84.5q109 -25 161 -78q63 -57 64 -250q0 -43 -2 -57q-10 -106 -88 -197q-74 -86 -163 -133t-155 -47q-28 0 -28 10z" />
<glyph unicode="#" horiz-adv-x="1642" d="M143 543q0 29 72 28h27h24q10 2 60 2h30l54 177q-25 0 -74 -5q-10 -2 -37 -2q-23 0 -66 17q-4 4 -12 16l-6 12l-16 41q-8 23 -9 58q0 94 54 98l229 -8q23 90 27 127q16 76 48 95.5t105 21.5h4q35 0 58.5 -29t23.5 -66q0 -10 -2 -12q-4 -39 -35 -147l213 -9q25 117 29 156 q10 45 23.5 64.5t46.5 27.5l35 11l47 4q10 0 20 1t14 3h7h2l4 2q27 0 43 -20.5t16 -51.5q0 -10 -2 -12q-2 -37 -47 -195l33 -2h4q51 0 77.5 -37t26.5 -88q0 -18 -2 -22q-6 -25 -34.5 -42.5t-59.5 -19.5q-10 -2 -65 -2h-37l-56 -190q25 -2 97 -2h26h4q47 0 71 -39t24 -94 q0 -29 -2 -35q-10 -35 -82 -43q-2 0 -29 -1t-39 -1q-10 0 -60.5 1t-68.5 1q-57 -207 -59 -232q-16 -84 -113 -84q-31 0 -55 13q-25 10 -48.5 41.5t-23.5 56.5l2 4v6l57 203q-172 2 -206 6q-41 -176 -46 -246q-6 -76 -141 -75q-72 0 -94 14q-29 12 -29 53q0 4 4 37 q4 37 56 211q-49 4 -85 51t-48 105zM592 565l213 -10l53 186l-215 7z" />
<glyph unicode="$" horiz-adv-x="1353" d="M0 463q0 109 6 145q10 39 43 80q53 68 139 68q78 0 95 -86q0 -2 8 -52l12 -59q20 -80 45 -125q45 -74 101 -108q98 -55 190 -68q123 0 207 78q82 76 88 174v16q0 27 -4 49.5t-14.5 41t-19.5 32t-29.5 26.5t-32 20t-41 17.5t-42 15.5t-49 15.5t-49.5 14.5 q-20 8 -74.5 25.5t-82.5 27.5q-80 31 -153 101.5t-116 168.5q-31 94 -30 170q0 215 262 490q133 109 307 151q57 156 78 172q6 6 59 37q49 20 86 21q59 0 60 -64q0 -35 -18.5 -85t-31.5 -66q16 -8 57.5 -23.5t70 -29t42.5 -27.5q78 -78 78 -240q0 -133 -53 -270 q-53 -133 -107 -158q-43 -16 -108 -16q-76 0 -152 16q-70 18 -69 43q0 10 12 19q68 57 104.5 140t36.5 161q0 104 -53 104q-8 0 -20 -4q-156 -70 -244 -166t-88 -201q0 -45 16 -88q35 -84 172 -135l152 -53q70 -23 168 -64q121 -51 186.5 -148t65.5 -224q0 -68 -19 -137 q-55 -203 -207.5 -314.5t-394.5 -116.5h-8q-14 0 -53 3.5t-47 3.5q-74 -162 -86 -170q-41 -37 -109 -37q-57 0 -84 39q0 37 21 112l22 64q14 43 18 47l-28 8q-125 59 -202 172t-89 246z" />
<glyph unicode="%" horiz-adv-x="1224" d="M61 20q0 25 25 66q84 168 408 776q330 621 391 717q23 39 51 49l25 8q14 8 61 9h4q47 0 104 -19q57 -18 58 -47l-4 -12l-189 -369l-215 -420l-186 -354q-209 -391 -256 -424q-29 -35 -115 -35q-27 0 -41 2l-22 2q-99 0 -99 51zM86 1260v18q6 72 47 125q43 55 113 72 q20 4 41 4q51 0 90 -21q57 -27 96 -94q29 -53 29 -115q0 -63 -27 -108q-27 -49 -80 -84q-47 -25 -98 -25h-14q-92 6 -150 82q-47 66 -47 146zM737 221q0 29 6 55q20 90 101 138q45 25 84 26h10q37 0 76 -16q66 -31 96 -102q16 -45 16 -84q0 -25 -8 -60q-14 -63 -61 -106 q-53 -47 -111 -54q-4 0 -10 -1t-10 -1q-35 0 -74 17q-45 20 -74 59q-41 53 -41 129z" />
<glyph unicode="&#x26;" horiz-adv-x="2048" d="M229 375q0 47 11 88q37 145 163 239q80 57 111 78q37 25 139 80q-119 152 -161 277q-23 63 -23 137q0 184 141 321q143 141 330 144q211 -8 322.5 -114.5t111.5 -281.5q0 -68 -22 -151q-49 -190 -330 -387q51 -49 160 -135q88 -68 127 -101l86 88q80 90 121 91 q16 0 32 -13q45 -39 75 -102.5t30 -116.5q0 -39 -19 -57l-112 -99q29 -29 75 -96q39 -51 39 -121q0 -86 -63 -149q-16 -16 -37 -17q-16 0 -66 31l-63 66l-111 112q-164 -113 -301 -149q-131 -37 -325 -37q-219 0 -330 111q-111 114 -111 264zM563 397q0 -145 191 -145 q49 0 88 6q94 12 254 129l-285 287q-55 -33 -117 -76q-45 -29 -80.5 -66.5t-42.5 -68.5q-8 -31 -8 -66zM723 1239q0 -45 20 -78q53 -104 111 -176q162 123 209 293q10 37 10 63q0 59 -29.5 99.5t-80.5 40.5q-20 0 -41 -6q-82 -25 -140.5 -93.5t-58.5 -142.5z" />
<glyph unicode="'" horiz-adv-x="614" d="M156 1735q0 20 8 34q16 20 100 113q74 82 107 131q43 66 104 187h6l6 2q39 0 78 -70q41 -72 49 -133q2 -4 2 -19q0 -29 -16 -63.5t-33 -48.5q-2 -2 -20.5 -24.5t-45 -54.5t-46.5 -54q-92 -104 -197 -129q-2 -2 -12 -2q-35 0 -62.5 42t-27.5 89z" />
<glyph unicode="(" horiz-adv-x="880" d="M70 715q0 49 10 121q39 240 196 483q158 246 271 303q113 59 168 59q29 0 71 -16q53 -25 54 -98q0 -45 -29 -68q-377 -262 -467 -663q-16 -88 -16 -146q0 -221 139 -432q47 -59 47 -133q0 -63 -35 -94q-41 -25 -84 -25q-68 0 -112 55q-70 82 -142 275q-71 197 -71 379z " />
<glyph unicode=")" horiz-adv-x="997" d="M162 104q0 45 28 68q164 111 302 336q137 223 178 407q4 49 4 54q0 182 -182 456q-29 35 -29 82q0 78 59 133q39 25 84 25q66 0 113 -55q233 -287 233 -592q0 -66 -12 -133q-47 -254 -209 -516.5t-276 -319.5q-113 -59 -168 -59q-29 0 -72 16q-53 24 -53 98z" />
<glyph unicode="*" horiz-adv-x="968" d="M98 1554q0 18 13.5 34t38 33t34.5 28q154 -35 252 -43q6 188 19 264q6 6 14 21.5t16.5 24.5t18.5 9h6q53 -12 77.5 -30.5t33.5 -67.5q-16 -53 -33 -230q115 0 241 27h7q33 0 50 -39t17 -78q0 -20 -16.5 -36.5t-38.5 -18.5q-111 -6 -199 -6q41 -37 86 -70q55 -41 101 -90 q8 -8 8 -22q0 -25 -33 -58q-27 -27 -51 -26q-14 0 -23 8q-145 111 -233 213l-49 -51q-10 -10 -83 -76t-120 -109q-8 0 -30.5 -6t-26.5 -6q-8 0 -25 10q-47 47 -47 82q0 16 14 31q106 80 207 184l-147 17q-99 14 -99 77z" />
<glyph unicode="+" horiz-adv-x="929" d="M41 745q0 10 2 13q0 18 15.5 33.5t28.5 22.5t17 7q111 16 209 17q-10 166 -26 194v4q0 20 84 80q82 57 131 58h8q59 -10 92 -127q10 -41 19 -207q25 0 143 8q8 0 29.5 1t25.5 1q49 0 70.5 -15.5t21.5 -54.5q0 -76 -45 -139q-45 -68 -98 -76q-35 -6 -70 -6q-4 0 -30.5 1 t-34.5 1l6 -186v-10q0 -119 -131 -121h-2q-74 0 -135.5 36.5t-69.5 90.5q-2 10 -2 43q0 29 10 147q-131 -10 -180 -26h-2q-20 0 -53 79.5t-33 130.5z" />
<glyph unicode="," horiz-adv-x="499" d="M35 -256q-2 4 34.5 42t74.5 99.5t36 114.5q-55 16 -90 66.5t-35 95.5q0 12 2 14q29 100 70 178q43 84 94 84q106 -10 172 -51q78 -47 78 -223q0 -41 -2 -53q-4 -104 -45 -184.5t-102.5 -120t-119 -58t-110.5 -18.5q-33 0 -51 6q-6 2 -6 8z" />
<glyph unicode="-" horiz-adv-x="929" d="M41 743q0 10 2 15q0 39 43 53l12 4q131 25 334 25h70q182 0 262 8h37q47 0 66.5 -16.5t21.5 -53.5v-6q0 -70 -35 -135q-33 -61 -86 -72q-35 -6 -70 -6q-39 0 -82 2q-86 4 -118 4q-283 -2 -381 -39l-2 -2q-20 0 -47 82q-27 80 -27 137z" />
<glyph unicode="." horiz-adv-x="471" d="M74 150q0 14 4 26q45 266 139 266q4 0 25 -4q172 -53 172 -299q0 -4 -4 -65q-10 -72 -113 -72q-51 0 -96 14q-55 18 -91 54.5t-36 79.5z" />
<glyph unicode="/" horiz-adv-x="1374" d="M6 12q0 20 23 60q100 205 493 915q410 741 482 854q0 2 16 2l127 -8q150 0 149 -41v-4q-2 -31 -137 -293q-131 -256 -301 -565q-176 -328 -176 -330q-49 -100 -190 -342q-129 -223 -181 -297q-16 -4 -129 -4q-176 0 -176 53z" />
<glyph unicode="0" horiz-adv-x="1505" d="M37 739q0 139 37 275q92 346 340 526q137 100 291 125q39 8 100 8q119 0 215 -39q115 -43 207 -135t147 -211q76 -164 76 -375q0 -59 -6 -120q-41 -373 -279 -605q-125 -125 -284 -176q-90 -29 -191 -28q-76 0 -145 16q-154 37 -271 147q-113 104 -174 254 q-63 154 -63 338zM383 700q0 -61 8 -100q23 -104 78 -172q63 -80 160 -102q27 -8 67 -9q61 0 119 25q84 37 148 115q102 125 143 348q14 80 14 145q0 84 -22 158q-29 80 -74 131q-55 61 -129 82q-37 12 -80 12q-31 0 -76 -10q-76 -23 -139 -78q-102 -92 -164 -268 q-53 -156 -53 -277z" />
<glyph unicode="1" horiz-adv-x="1251" d="M68 117v26q0 84 90 119q61 27 172 27q12 0 50 -1t46 -1q33 0 41 2q4 86 72 344q80 303 137 497l67 228q-25 -8 -131 -68q-104 -55 -176 -55h-18q-53 2 -121 45q-66 43 -66 78q0 18 21 31q416 227 534 301q72 45 177 45q82 0 132 -30t50 -85q0 -16 -2 -23 q-29 -150 -185 -659q-156 -512 -165 -662q20 0 55 -2t92 -2q150 0 215 19q18 0 19 -39q0 -33 -23 -127q-20 -84 -21 -94q-18 -61 -116 -70q-49 -4 -78 -4q-111 0 -356.5 14.5t-341.5 14.5q-37 0 -70 -4q-2 -2 -14 -2q-66 0 -86 137z" />
<glyph unicode="2" horiz-adv-x="1409" d="M45 98q0 68 47 166q129 262 357 481q131 131 210 220q129 143 211 258q37 51 37 96q0 33 -17.5 52.5t-45.5 19.5q-10 0 -15 -2q-156 -33 -263 -95.5t-197 -175.5q-39 -49 -106.5 -23.5t-112.5 97.5q-20 27 -21 35q0 20 25 63q68 121 264 260q197 135 405 152q16 2 76 2 q82 0 152.5 -14.5t134 -47t99.5 -94t36 -145.5v-27q-10 -195 -227 -418q-129 -129 -197 -192q-100 -94 -201 -219q-98 -121 -155 -246q207 29 456 29q182 0 269 -23q68 -20 67 -123l-6 -92q-4 -33 -25.5 -56.5t-50.5 -23.5h-10q-125 20 -319 21q-395 0 -762 -70 q-6 -2 -29 -2q-63 0 -76 57q-10 51 -10 80z" />
<glyph unicode="3" horiz-adv-x="1302" d="M84 229q0 55 59 97q63 41 121 41q37 0 47 -17q78 -96 211 -96q31 0 66 6q145 31 233 87t125 157q12 31 12 65q0 74 -49 133.5t-129 83.5q-18 6 -37 7q-20 0 -77.5 -12.5t-71.5 -14.5q-37 -4 -39 -4q-66 0 -110 44t-44 101q0 18 11 45q16 25 99 54.5t173 76.5t131 117 q27 35 27 80q0 47 -34 81t-87 44q-41 8 -70 8q-147 0 -270 -190q-16 -29 -59 -29q-59 0 -101 47q-20 23 -20 78q0 49 24 90q45 74 168 166q125 90 285 90q33 0 43 -2q211 -20 320.5 -136t109.5 -298v-19q-33 -174 -199 -252q115 -2 215 -118q98 -115 99 -269 q0 -178 -103 -315q-197 -256 -592 -287q-10 -2 -47 -2q-135 0 -252.5 59.5t-175.5 151.5q-12 26 -12 51z" />
<glyph unicode="4" horiz-adv-x="1347" d="M-113 608q0 33 15 60q158 205 286 346q152 166 361 372q233 233 280 285q70 45 185 45q90 0 148.5 -31.5t58.5 -87.5q0 -16 -2 -20q-6 -33 -37 -135l-68 -219q-41 -133 -47 -154l-109 -362q127 0 187 -17q106 -33 106 -223q0 -29 -23.5 -52.5t-51.5 -23.5q-8 0 -11 2 q-113 18 -288 25l-29 -148q-12 -90 -17 -110q-20 -100 -86 -160q-41 -35 -96 -35q-61 0 -100 27q-68 29 -68 108q0 20 2 27q4 72 52 287q-207 -12 -404 -49q-41 -8 -65 -9q-57 0 -86 43q-4 14 -33 52q-4 4 -15.5 26.5t-13.5 24.5q-31 79 -31 106zM229 659q184 29 410 50 q23 92 94 311l90 278q-35 -39 -188 -196q-61 -61 -262 -273q-121 -127 -144 -170z" />
<glyph unicode="5" horiz-adv-x="1390" d="M35 227q0 47 14 105q14 53 62 53q2 0 18 -4l86 -41q23 -10 55.5 -24.5t36.5 -16.5q96 -37 207 -37q51 0 66 2q139 12 223 57.5t127 141.5q20 41 20 94q0 72 -36.5 129t-102.5 82q-49 20 -113 20q-57 0 -118 -18q-45 -10 -131 -45q-63 -27 -97 -37q-41 -12 -84 -12 q-76 0 -155 37q-45 25 -45 80q0 25 2 30l209 504q33 88 53 133q37 86 76 94q4 0 108 13l176 20l178 25q219 35 355 71q20 4 22 5q33 0 59.5 -25t32.5 -59q6 -31 7 -56q0 -80 -62 -153q-20 -25 -70 -45q-4 -2 -53 -13q-4 0 -27.5 -2t-25.5 -2q-88 -10 -516 -80l-129 -245 q166 45 295 45q92 0 172 -21q334 -82 334 -457q0 -2 -1 -10t-1 -12q-6 -254 -209 -420q-205 -164 -500 -164h-16q-135 4 -218 23q-94 20 -133 39q-47 25 -94 61q-57 39 -57 135z" />
<glyph unicode="6" horiz-adv-x="1347" d="M41 401q0 246 178 537q184 297 438 512q258 217 490 283q20 4 22 4q59 0 99 -74q23 -41 22 -74q0 -37 -24 -67q-16 -29 -52 -55.5t-87.5 -54.5t-67.5 -38q-217 -154 -383 -325q68 20 139 20q33 0 90 -8q176 -31 274.5 -134.5t98.5 -260.5q0 -43 -2 -56 q-27 -246 -221 -434q-190 -184 -455 -207q-63 -6 -121 -6q-221 0 -327 123q-111 129 -111 315zM354 453q0 -94 50.5 -147.5t140.5 -53.5q29 0 71 8q258 51 336 262q20 53 21 99q0 131 -164 165q-31 8 -76 9q-109 0 -311 -97q-68 -141 -68 -245z" />
<glyph unicode="7" horiz-adv-x="1230" d="M35 1421q0 8 1 49t1 54l86 16q162 35 469 88q334 61 510 74h6q47 0 47 -74q-14 -170 -287 -807q-266 -625 -321 -821q-72 -33 -123 -33q-35 0 -64 13q-80 33 -79 129q0 92 210.5 581.5t258.5 673.5h-39q-90 0 -179 -14q-76 -10 -233 -41l-195 -39q-69 18 -69 151z" />
<glyph unicode="8" horiz-adv-x="1284" d="M80 461q0 29 2 35q6 98 53 184q23 57 98 127q80 72 103 78q-72 31 -135 114q-59 88 -72 150q-33 106 -4 203q47 176 237 274q135 66 285 66q57 0 96 -9q215 -27 349 -172q111 -117 110 -270q0 -39 -6 -70q-8 -55 -30.5 -107t-49 -89t-52.5 -65.5t-43 -46t-17 -19.5l14 -6 q29 -12 80 -70q53 -59 73 -121q23 -55 23 -205v-39q-10 -109 -66 -200q-53 -86 -137 -146q-145 -98 -336 -100h-6q-219 0 -377 121q-96 72 -145 178q-47 101 -47 205zM354 479q0 -41 21 -80q20 -43 67 -77q90 -66 222 -66q2 0 4 2q115 0 190 51q43 27 64 62q23 37 26 78v14 q0 37 -16 76q-20 43 -66 82q-113 96 -184 98h-33q-49 0 -84 -10q-57 -18 -135 -84q-35 -29 -53 -62q-18 -35 -21 -71q-2 -5 -2 -13zM424 1231q0 -23 6 -45q12 -45 45 -107q16 -31 68.5 -60.5t113.5 -33.5q82 6 113 31q68 55 78 67q35 51 47 105q0 4 1 14t1 15q0 66 -45 110 q-59 66 -158 78q-37 4 -43 4q-66 0 -127 -29q-74 -39 -96 -112q-4 -29 -4 -37z" />
<glyph unicode="9" horiz-adv-x="1390" d="M66 94q0 35 22 70q33 41 59 57q23 16 78.5 46t71.5 42q233 166 383 328q-68 -20 -139 -21q-53 0 -92 9q-174 29 -272.5 132t-98.5 263q0 43 2 55q27 248 219 434q190 184 457 207q115 4 121 4q217 0 325 -123q113 -125 113 -313q0 -246 -180 -536q-180 -295 -437 -515 q-258 -217 -489 -282q-6 -2 -25 -2q-57 0 -96 74q-22 40 -22 71zM383 1063q0 -131 164 -166q31 -8 76 -8q49 0 110 14q20 2 58 19l45 18l53 25l45 20q68 141 67 248q0 92 -50 145.5t-142 53.5q-33 0 -70 -7q-258 -53 -336 -262q-20 -55 -20 -100z" />
<glyph unicode=":" horiz-adv-x="471" d="M74 150q0 14 4 26q45 266 139 266q4 0 25 -4q172 -53 172 -299q0 -4 -4 -65q-10 -72 -113 -72q-51 0 -96 14q-55 18 -91 54.5t-36 79.5zM74 817q0 14 4 27q45 266 139 266q4 0 25 -4q172 -53 172 -299q0 -4 -4 -66q-10 -72 -113 -71q-51 0 -96 14q-55 18 -91 54t-36 79z " />
<glyph unicode=";" horiz-adv-x="499" d="M35 -256q-2 4 34.5 42t74.5 99.5t36 114.5q-55 16 -90 66.5t-35 95.5q0 12 2 14q29 100 70 178q43 84 94 84q106 -10 172 -51q78 -47 78 -223q0 -41 -2 -53q-4 -104 -45 -184.5t-102.5 -120t-119 -58t-110.5 -18.5q-33 0 -51 6q-6 2 -6 8zM74 807q0 14 4 27 q45 266 139 266q4 0 25 -4q172 -51 172 -299q0 -4 -4 -66q-10 -72 -113 -72q-51 0 -96 15q-55 18 -91 54t-36 79z" />
<glyph unicode="&#x3c;" horiz-adv-x="831" d="M150 674q0 4 1 15t1 13q4 27 53 78q61 61 108 101l90 80q41 41 93 106q8 8 24 8q41 0 88 -61q49 -59 49 -109v-2q0 -37 -28 -78q-33 -49 -97 -108l-71 -72q2 -4 48 -58.5t93 -123t49 -113.5q-6 -41 -61 -88q-53 -43 -98 -43q-25 0 -37 14q-57 109 -154 205 q-94 96 -133 158q-18 27 -18 78z" />
<glyph unicode="=" horiz-adv-x="929" d="M41 848v24q0 45 37 60l4 2l47 12q84 12 176 12q57 0 180 -6q168 -4 189 -4q72 0 129 4q8 2 37 2q49 0 68.5 -16t19.5 -59q0 -74 -35 -136.5t-86 -72.5q-29 -4 -80 -4q-47 0 -98 2t-131 2q-283 0 -381 -39h-2q-20 0 -47 82q-27 80 -27 135zM43 461q0 20 1 27.5t11.5 22.5 t34.5 21q111 18 342 19h70q182 0 262 8h37q49 0 68.5 -16.5t19.5 -59.5q0 -70 -35 -135q-33 -61 -86 -72q-35 -6 -70 -6q-39 0 -82 2q-86 4 -118 4l-189 -8l-143 -4q-18 0 -72 74q-51 76 -51 123z" />
<glyph unicode="&#x3e;" horiz-adv-x="831" d="M178 915v3q0 49 47 108q49 61 90 61q16 0 25 -8q51 -66 92 -106q16 -16 86 -76.5t113 -103.5q49 -51 53 -78q0 -2 1 -13.5t1 -15.5q0 -51 -18 -78q-41 -63 -136 -157q-96 -98 -151 -205q-12 -14 -37 -15q-45 0 -100 43q-53 47 -60 88q2 45 48.5 114t93.5 123t49 58 l-13 13l-21 21l-24 24l-67 69q-72 86 -72 131z" />
<glyph unicode="?" horiz-adv-x="1101" d="M70 1503q0 96 33.5 179t83 135.5t108.5 92.5t105 57.5t81 23.5q98 16 181 16q162 0 276.5 -55.5t148.5 -163.5q4 -20 5 -29q0 -53 -45 -129q-47 -82 -93 -137q-35 -45 -145 -172l-139 -166q-182 -221 -197 -412q-14 -86 -72 -151q-55 -61 -102 -62q-14 0 -23 5 q-98 47 -98 102v10q14 143 84 291q92 197 322 469q47 57 77.5 94t60.5 78t41 67.5t14 51t-10 41t-42 24.5q-12 4 -47 4q-70 0 -156 -22q-82 -20 -155.5 -86t-73.5 -152q0 -25 2 -32q2 -6 2 -21q0 -88 -125 -108l-6 -3h-8q-33 0 -56.5 26t-27.5 69q-4 61 -4 65zM88 131 q0 16 4 29q37 150 166 211q39 16 82 16q96 0 96 -59q0 -33 -16 -90q-47 -162 -205 -238q-12 -6 -27 -6q-37 0 -68.5 44t-31.5 93z" />
<glyph unicode="@" d="M-240 530q0 51 7 109q31 348 253 571q225 225 576 289q63 12 129 12q260 0 473 -163q211 -162 246 -396q10 -72 10 -110q0 -240 -162 -387q-137 -123 -291 -181q-35 -16 -55 -22q-37 -12 -63 -14q-37 -6 -72 -7h-10q-2 0 -70 7q-31 2 -51 16l-14 14q-6 6 -9 13l-6 12 l-37 -19l-43 -18q-25 -10 -51 -16q-41 -6 -80 -7q-6 0 -51 5q-47 6 -80 26q-51 27 -86 80q-41 59 -47 148v24q0 63 14 113q23 86 56 151q41 76 92 129.5t117 91.5q68 33 108 39q16 4 39 4q29 0 55 -6q31 -6 84 -30q2 0 15 -7l16 -8l6 -2h8l9 4l6 6q2 2 8 11q6 0 10 4h12 l46 -10q8 -2 16 -5.5t14 -6.5t8 -3q45 -27 54 -33q10 -6 24 -24q14 -14 21 -37q0 -31 -6 -43q-6 -14 -30 -58t-26 -51q-37 -78 -55 -159q-14 -49 -14 -92q0 -29 6 -41q8 -20 22 -27h4q86 0 187 143q104 143 104 281q0 41 -8 65q-55 147 -194 238q-139 92 -306 92 q-37 0 -102 -10q-223 -41 -385 -203q-166 -166 -186 -418q-4 -86 -5 -92q0 -147 45.5 -223t155.5 -170q12 -14 41 -29q104 -57 275 -57q324 0 729 246q39 20 80 20l18 -2q14 -49 14 -104q0 -170 -51 -203q-147 -100 -341.5 -156.5t-387.5 -56.5q-330 0 -543 164 q-41 31 -73 59q-23 18 -74 74q-55 61 -78 111q-70 151 -70 335zM426 532q10 -37 20 -47q14 -16 33 -22q12 -4 23 -4q14 0 18 2q53 10 96 55q18 18 31 35q14 16 27.5 76.5t15.5 136.5q0 27 -31 45q-12 6 -24 6h-8q-25 -4 -35 -10l-29 -21q-29 -20 -53 -49q-61 -74 -80 -151 q-4 -12 -4 -35v-17z" />
<glyph unicode="A" horiz-adv-x="1687" d="M-178 592q0 16 2 20q4 31 28.5 46.5t48 17.5t67.5 2t63 2q119 10 319 53q133 254 289 672q158 418 221 537q20 43 92 79q70 39 135 39q6 0 35 -4q203 -43 203 -358v-17q14 -205 127 -749q115 -541 186 -686q37 -98 37 -174q0 -158 -168 -158q-74 0 -115.5 46t-72.5 146 q-18 96 -145 609q-160 -31 -547 -129l-62 -131q-45 -94 -53 -109l-47 -84q-33 -61 -64 -98q-180 -225 -204 -254q-55 -66 -154 -66q-39 0 -76 11q-84 23 -84 86q0 27 19 59q23 35 94 117q133 160 223 377q-123 -20 -205 -21h-22q-72 4 -121 37t-49 82zM733 817 q252 59 393 86q-100 408 -102 629q-12 0 -47 -90l-107 -281q-55 -149 -137 -344z" />
<glyph unicode="B" horiz-adv-x="2062" d="M-150 1602q0 111 101 225q109 129 346 213q240 86 487 86q147 0 271 -35q176 -51 331 -156q152 -102 197 -254q8 -31 8 -73q0 -141 -104 -260q-102 -117 -275 -177q4 0 18.5 1.5t18.5 1.5q219 0 477 -103q133 -53 217.5 -149.5t84.5 -210.5q0 -31 -5 -56 q-86 -319 -479 -475q-365 -143 -921 -180q-137 -10 -197 -10q-242 0 -369 108q-80 68 -80 174q0 51 23 138q35 123 119 313q57 133 213 471q143 305 182 395q70 162 207 172h10q61 0 110.5 -39t49.5 -90q0 -14 -2 -18q-25 -117 -162 -381l45 14l80 15q104 23 125 28 q92 20 213 120.5t115 184.5q0 104 -179 199q-131 72 -395 72q-311 0 -477 -129q-104 -82 -104 -148t135 -131q43 -20 43 -59q0 -35 -25 -64q-33 -51 -102 -51q-29 0 -90 16q-88 41 -158 99q-103 84 -103 203zM354 369q0 -18 2 -25q27 -70 244 -70q100 0 236 17 q121 14 184 35q231 61 366 137q174 96 211 258q4 29 5 33q0 68 -70 120t-189 76q-217 49 -473 49q-166 0 -247 -16h-7q-8 0 -14 6q-248 -481 -248 -620z" />
<glyph unicode="C" horiz-adv-x="1949" d="M-23 1849q0 41 23 99q41 59 113 59q84 0 139 -65l92 -115q74 -90 119 -135q270 317 672 381q39 8 94 8q186 0 293 -113q111 -111 110 -268q0 -143 -92 -266q-51 -68 -178 -154q-158 -113 -383 -113q-209 0 -426 117q-117 -176 -164 -366q-12 -53 -12 -109 q0 -145 73.5 -278.5t206.5 -217.5q119 -72 256 -71q190 0 408 133q18 10 60 38.5t49 32.5q49 29 86 29q31 0 57 -14q88 -43 88 -117q0 -53 -45 -92q-127 -133 -360.5 -215t-458.5 -82q-166 0 -269 45q-197 84 -327 301q-133 219 -133 479q0 147 43 283q31 106 84 207l28 55 q2 2 13.5 23.5t21.5 40.5l37 65q-131 109 -258 248q-60 81 -60 147zM707 1499q162 -98 301 -98q94 0 163.5 40t98.5 91q40 65 39 120q0 30 -12 58q-34 78 -142 78q-23 0 -74 -10q-96 -23 -179.5 -87.5t-194.5 -191.5z" />
<glyph unicode="D" horiz-adv-x="1689" d="M-432 1509q0 68 31 138q55 119 164.5 210t252.5 140q268 94 559 94q76 0 97 -2q399 -25 678 -285q283 -262 284 -643v-12q0 -344 -223 -598q-221 -252 -618 -447q-446 -217 -715 -217q-193 0 -213 138v10q0 113 276 977q-242 61 -407 196q-166 139 -166 301zM-94 1489 q0 -88 75.5 -142.5t233.5 -91.5q59 203 80 326q12 66 64.5 105.5t121.5 39.5q25 0 49 -6q74 -18 74 -94q0 -29 -8 -84q-10 -84 -74 -338q8 -2 59.5 -11t92.5 -17l112 -21q72 -14 119 -54t47 -93l-2 -7v-10q-8 -53 -51 -82.5t-104 -29.5q-25 0 -50 6q-63 16 -174 35 q-127 25 -129 26q-49 -168 -94 -303q-113 -360 -112 -393q0 -10 4 -10q162 37 387 139q152 72 272 147q133 88 242 205q115 125 157 258q14 49 15 127q0 221 -139 420q-74 106 -205 175t-297 83q-68 6 -158 6q-213 0 -385 -53q-170 -53 -211 -182q-12 -41 -12 -76z" />
<glyph unicode="E" horiz-adv-x="1597" d="M-211 233q0 143 59.5 277.5t151.5 226.5q84 84 313 187q233 102 416 108q-168 4 -260 96.5t-92 241.5q0 51 12 107q-102 31 -209 79l-20 9q-90 51 -99 57q-59 49 -59 86q0 4 4 37q6 31 30.5 62.5t59.5 31.5q33 0 72 -20q31 -14 85 -48t56 -36q47 -25 162 -54 q90 150 225 261q172 141 391 141q184 0 289 -105q63 -63 64 -149q0 -100 -90 -203q-88 -100 -203 -143q-164 -63 -373 -64q-55 0 -104 4q0 -4 1 -19t1 -20q8 -119 133 -165q70 -25 119 -35l137 -27q82 -12 123 -27q61 -18 61 -110q0 -57 -23.5 -104.5t-58.5 -55.5 q-379 0 -696 -155q-143 -72 -229 -175.5t-86 -195.5q0 -74 57 -119t168 -51q8 0 30.5 -1t28.5 -1q145 0 281 37q143 41 225 84q41 20 211 114q141 76 207 103q43 20 84 20q51 0 78.5 -32.5t27.5 -84.5q0 -57 -30 -100q-109 -139 -371 -270q-311 -156 -723 -156h-4 q-616 0 -631 328q0 4 -1 14t-1 14zM735 1632q49 -8 117 -8q66 0 111 12q78 23 125 65t47 81q0 45 -54 45q-90 0 -188.5 -53.5t-157.5 -141.5z" />
<glyph unicode="F" horiz-adv-x="1196" d="M-469 1171q0 106 190 281q217 197 555 379q346 184 560 227q102 20 172 21q207 0 241 -176q8 -35 8 -101q0 -98 -20 -219q-31 -207 -61 -299q8 4 84 29q31 8 110.5 28.5t104.5 28.5q66 25 86 25q6 2 10 2t7 -4l6 -9q3 -4 5 -11t3 -13l2 -12q1 -6 3 -11q6 -14 7 -30 q0 -37 -22.5 -71t-47.5 -40q-324 -61 -418 -115q-39 -117 -63 -186q-41 -123 -156 -422q-98 -258 -184 -438q-4 -8 -14.5 -29.5t-14.5 -31t-14.5 -26t-19.5 -24.5t-22.5 -17t-29.5 -13q-37 -12 -102 -13q-154 0 -154 47q0 14 72 162q61 127 184 391q115 252 190 469 l-141 -76q-59 -25 -92 -24h-6q-47 0 -47 53q0 61 39 103q68 47 133 77q39 20 88 43t71.5 34t26.5 18q57 147 74 237l27 121l28 125q8 25 8 51q0 96 -112 96q-123 0 -262 -73q-92 -47 -170 -95l-121 -71q-49 -31 -111 -82l-88 -70q-29 -23 -108 -98l-119 -105l-105 -92 q-100 -76 -155 -75q-49 0 -90 53q-25 30 -25 71z" />
<glyph unicode="G" horiz-adv-x="1759" d="M25 1839q0 37 32 70q20 45 80 45q84 0 142 -70q84 -100 184 -192q270 317 672 381q39 8 94 8q186 0 293 -113q111 -111 110 -268q0 -143 -92 -266q-33 -43 -92 -93q-61 -47 -182 -98t-258 -51q-225 0 -461 137q-104 -178 -158 -411q-16 -76 -16 -152q0 -166 63.5 -299 t202.5 -180q57 -18 111 -19q121 0 216 89t156 253l8 31q6 16 11 25l2 10q8 33 52 56.5t93 23.5q31 0 55 -11q47 -10 82 -48t35 -83q0 -18 -6 -36q-51 -143 -180 -328q-94 -143 -209 -735q-12 -68 -42 -98.5t-89 -30.5q-23 0 -29 2q-141 14 -141 174q0 33 6 71q35 225 82 361 q-80 -23 -150 -23q-88 0 -174 29q-225 74 -344 270q-121 199 -121 445q0 131 41 276q82 283 213 500q-129 109 -243 238q-49 65 -49 110zM684 1522q176 -104 326 -105q92 0 164.5 36t95.5 79q40 65 39 120q0 30 -12 58q-34 78 -142 78q-23 0 -74 -10q-221 -55 -397 -256z " />
<glyph unicode="H" horiz-adv-x="1996" d="M-414 604q0 133 82 260q186 291 883 383q63 270 88 494q6 203 43 288t133 93h23q154 0 153 -207q0 -12 -4 -90q0 -16 -1 -31.5t-3 -24.5v-8l-20 -119l-21 -126l-49 -236q227 14 545 18q47 305 82 644q8 76 58 128t122 52h16q61 -6 101.5 -59.5t40.5 -125.5q0 -23 -3 -28 q-45 -336 -96 -600q90 6 133 18q20 6 41 6q49 0 74 -39t25 -98q0 -47 -41 -84t-99 -55q-35 -10 -190 -21q-70 -305 -252 -936q-45 -172 -164 -172q-57 0 -104 54q-45 51 -45 104l2 6v8q14 76 100 355q96 313 150 579h-31q-330 0 -531 -10q-121 -430 -335 -918 q-35 -72 -68 -98t-96 -37q-6 -2 -31 -2q-66 0 -119 29q-8 0 -10 2q-236 76 -410 242q-172 163 -172 362zM-154 596q0 -98 95 -174q92 -74 174 -86q10 0 22.5 -1t19.5 -2t9 -1q39 0 78 26q8 6 35 52q6 6 40 77l3 2q109 305 163 500q-420 -63 -569 -235q-70 -82 -70 -158z" />
<glyph unicode="I" horiz-adv-x="866" d="M-170 1501q0 51 35 90q240 274 342 369q154 141 260 166q82 16 121 16q78 0 120 -40t66 -130q12 -51 12 -104q0 -61 -30 -277q-14 -115 -68 -334q-61 -270 -137 -569q-100 -414 -139 -584q-20 -92 -88 -152.5t-154 -60.5q-25 0 -66 11q-74 20 -73 125q0 37 12 104 q6 41 102 365q92 299 187 669q90 356 90 531q0 35 -19 35q-27 0 -104 -78q-14 -14 -52 -57.5t-52 -59.5q-18 -18 -64.5 -72.5t-54.5 -64.5q-37 -43 -98.5 -43t-100.5 39q-47 43 -47 106z" />
<glyph unicode="J" horiz-adv-x="897" d="M-971 152q0 139 215 251q98 51 240 95q123 41 278 82l312 77q25 6 73 17.5t64 15.5q133 563 250 991v2l2 5l10 43q2 4 2 16q0 33 -31 33q-74 0 -407 -256q-33 -27 -78 -27q-76 0 -119 59q-29 41 -28 86q0 70 53 111q201 156 368 248q168 90 377 121q8 2 39 2 q86 0 143.5 -51.5t57.5 -143.5q0 -27 -4 -55q-23 -139 -64 -291q-27 -100 -114 -401q-78 -264 -115 -404q131 41 164 53q90 29 137 29q80 0 117 -53q23 -35 22 -74q0 -49 -28.5 -95t-67.5 -60q-84 -29 -420 -97q-162 -680 -231 -1390q-25 -221 -154 -221q-18 0 -43 8h-4 l-4 2l-25 14q-16 10 -28 25l-111 90q-88 70 -147 121q-68 57 -152 135q-106 96 -166 160q-43 45 -143 167q-86 104 -127 185q-113 207 -113 375zM-627 49q0 -61 29 -131q25 -61 63 -119q35 -55 107 -123q72 -74 113 -106q82 -70 133 -111q35 -29 74.5 -61.5t46.5 -38.5 q61 389 211 1061q-317 -61 -533 -144q-244 -92 -244 -227z" />
<glyph unicode="K" horiz-adv-x="1730" d="M-311 1438q0 63 53 123q51 61 238 180q176 113 405 217q227 102 354 102q141 0 142 -125q0 -2 -1 -8t-2 -16t-1 -19q-39 -250 -136 -606q344 182 549 416q74 80 159 130t153 50q25 0 45 -6q86 -29 86 -92q0 -72 -111 -197q-119 -137 -365 -327q-248 -188 -389 -252 q16 -102 723 -752q117 -111 117 -199q0 -33 -18 -88q-8 -23 -54.5 -40t-103.5 -17q-104 0 -162 57q-651 631 -772 809l-254 -737q-47 -135 -205 -135q-25 0 -65 8q-92 20 -92 113q0 41 18 90q291 772 383 1054q135 385 135 510q0 25 -24 25q-63 0 -244 -137 q-178 -133 -250 -217q-29 -31 -94 -31q-115 0 -197 68q-20 14 -20 49z" />
<glyph unicode="L" d="M0 92v14q0 139 147 617q160 504 306 893q156 416 184 444q14 14 68.5 28.5t105.5 14.5q33 0 59 -6q88 -20 88 -100q0 -39 -30 -129q-63 -119 -289 -787q-223 -662 -223 -843q0 -4 2 -13v-10q4 -37 45 -37t139 43q98 45 250 98q152 55 287 74q74 12 110 13q51 0 64 -17 q12 -8 30 -70v-10q0 -55 -34 -135q-33 -72 -99 -82q-125 -2 -399 -80q-270 -78 -387 -129q-117 -47 -197 -47q-196 0 -227 256z" />
<glyph unicode="M" horiz-adv-x="2312" d="M-834 1522q0 72 56 110q205 160 383 256.5t385 126.5q37 6 69 6q125 0 168 -116q14 -35 15 -95v-16q-18 -244 -144 -672q-119 -418 -155 -590l4 13q6 14 17 40.5t26 55.5q51 113 104 219q51 98 154 281q209 367 528 737q90 96 211 96q98 0 174 -61.5t76 -138.5 q0 -160 -141.5 -658t-141.5 -579q0 -8 4 -29q6 12 80 145l117 213l131 230q147 250 295 469q160 229 262 303q78 55 152 55q123 0 203 -123q72 -98 88 -166v-28q0 -119 -68 -357q-70 -258 -141 -530q-74 -293 -86 -535q-4 -55 -54.5 -109.5t-117.5 -74.5q-102 -29 -152 -29 q-96 0 -119 90q-4 49 -4 62q0 147 74 416q63 233 158 520q86 258 98 323q-94 -82 -385 -569q-291 -485 -359 -672q-31 -70 -113.5 -107.5t-193.5 -37.5q-6 0 -67 4q-90 12 -134 58t-44 145q0 334 79 616q31 98 80 275q45 166 74 295q-139 -145 -260 -336 q-117 -186 -197 -348q-80 -168 -178 -340q-106 -184 -207 -304q-82 -70 -239 -69q-41 0 -105 8q-63 10 -96 54t-33 104q0 31 6 51q49 201 140 518q74 262 118 444q39 172 60 345l10 94v16q0 33 -29 33q-80 0 -407 -256q-33 -27 -80 -27q-76 0 -117 60q-31 39 -31 86z" />
<glyph unicode="N" horiz-adv-x="1681" d="M-391 1522q0 72 55 110q211 164 381 256q178 96 387 127q37 6 70 6q125 0 168 -116q14 -35 14 -95v-16q-18 -244 -143 -672q-119 -418 -156 -590l4 13q6 14 17.5 40.5t25.5 55.5q51 113 105 219q51 98 153 281q209 367 529 737q90 96 211 96q98 0 173.5 -61.5 t75.5 -138.5q0 -111 -67 -359q-68 -248 -135 -534q-66 -287 -66 -478q0 -109 21 -188v-10q0 -96 -64.5 -148.5t-169.5 -56.5h-8q-170 0 -170 203q0 334 80 616q31 98 80 275q45 166 73 295q-139 -145 -260 -336q-117 -186 -196 -348q-80 -168 -179 -340q-106 -184 -206 -304 q-82 -70 -240 -69q-41 0 -104 8q-63 10 -96 54t-33 104q0 31 6 51q49 201 139 518q82 287 117 444q41 164 61 345l10 94v16q0 33 -28 33q-80 0 -408 -256q-33 -27 -80 -27q-76 0 -116 60q-31 39 -31 86z" />
<glyph unicode="O" horiz-adv-x="1351" d="M-250 778q0 205 68 410q127 369 366 608q244 244 551 244q80 0 162 -19q209 -43 340 -217q70 -90 70 -176q0 -80 -68 -110l-4 -2q156 -137 156 -402q0 -143 -52 -291q-121 -350 -368.5 -579.5t-560.5 -229.5q-92 0 -187 23q-236 55 -354.5 260t-118.5 481zM94 801 q0 -188 62 -330q66 -143 176 -164q39 -8 94 -8q207 0 360 168q156 168 246 424q49 141 49 242q0 240 -270 280q-43 6 -72.5 37t-29.5 68q0 27 16 49q51 76 152 75q45 0 94 -12q-66 59 -150 74q-35 8 -90 8q-201 0 -348 -170t-240 -426q-49 -145 -49 -315z" />
<glyph unicode="P" horiz-adv-x="1556" d="M-150 1602q0 111 101 225q109 129 346 213q240 86 487 86q147 0 271 -35q84 -25 162.5 -60.5t159.5 -94t131.5 -144.5t50.5 -188q0 -4 -1.5 -16.5t-1.5 -14.5q-23 -182 -129 -309t-301 -232q-248 -133 -520 -133q-6 0 -24.5 1t-22.5 1q-209 -440 -272 -760 q-35 -170 -156 -170q-49 0 -106 29q-47 25 -48 141q0 129 46 277q29 98 88 248q66 166 118 284l152 340l133 299q70 162 207 172h10q61 0 110.5 -39t49.5 -90q0 -14 -2 -18q-27 -117 -199 -453h21q100 0 221 43q121 47 207 148q109 131 108 256q0 121 -121 186 q-131 72 -395 72q-311 0 -477 -129q-104 -82 -104 -148t135 -131q43 -20 43 -59q0 -35 -25 -64q-33 -51 -102 -51q-29 0 -90 16q-88 41 -158 99q-103 84 -103 203z" />
<glyph unicode="Q" horiz-adv-x="1351" d="M-215 803q0 190 45 352q102 369 322 617q113 129 261 200.5t310 71.5q68 0 115 -8q215 -35 354 -195q59 -72 59 -137q0 -74 -75 -117q-6 -6 -11 -6q109 -61 167.5 -185t58.5 -286q0 -119 -31 -240q-109 -403 -373 -647q129 -217 301 -426q47 -76 47 -135q0 -74 -59 -98 q-55 -23 -90 -23q-88 0 -168 80q-35 35 -51 55l-21 27l-39 53q-92 125 -190 293q-135 -53 -275 -53q-80 0 -145 14q-254 45 -383 269q-129 225 -129 524zM125 827q0 -213 70 -366q72 -158 192 -172q35 -6 66 -6q66 0 137 22q-180 406 -180 723q0 510 462 629q8 2 27 2t27 -2 q-66 47 -144 55q-29 4 -59 4q-143 0 -262 -94q-199 -160 -301 -528q-35 -122 -35 -267zM717 1036q0 -240 129 -540q131 166 203 422q35 133 34 241q0 242 -161 242h-15q-80 -4 -135 -104.5t-55 -260.5z" />
<glyph unicode="R" horiz-adv-x="1556" d="M-150 1602q0 111 101 225q109 129 346 213q240 86 487 86q147 0 271 -35q84 -25 162.5 -60.5t159.5 -94t131.5 -144.5t50.5 -188q0 -4 -1.5 -16.5t-1.5 -14.5q-23 -182 -129 -309t-301 -232q-143 -80 -327 -114q96 -139 204.5 -253t192.5 -176l184 -131q102 -74 176 -137 q82 -70 82 -137q0 -25 -16 -61q-47 -90 -164 -91q-102 0 -198 68q-242 176 -406 348q-166 180 -348 438q-158 -344 -219 -645q-35 -170 -156 -170q-49 0 -106 29q-47 25 -48 141q0 129 46 277q29 98 88 248q66 166 118 284l152 340l133 299q70 162 207 172h10 q61 0 110.5 -39t49.5 -90q0 -14 -2 -18q-27 -117 -199 -453h21q100 0 221 43q121 47 207 148q109 131 108 256q0 121 -121 186q-131 72 -395 72q-311 0 -477 -129q-104 -82 -104 -148t135 -131q43 -20 43 -59q0 -35 -25 -64q-33 -51 -102 -51q-29 0 -90 16q-88 41 -158 99 q-103 84 -103 203z" />
<glyph unicode="S" horiz-adv-x="1353" d="M-346 616q0 88 88 164q25 27 80 27q45 0 82 -19.5t47 -50.5q86 -211 255 -325.5t433 -153.5q96 0 195 31q106 33 185 107.5t87 168.5v10q0 74 -61.5 127.5t-121 76t-200.5 63.5q-31 10 -47 14l-227 74q-115 39 -209.5 114.5t-137.5 176.5q-31 94 -30 170q0 215 262 489 q244 205 514 205q115 0 227 -33q137 -39 230 -141q94 -100 94 -234q0 -129 -94 -254l-35 -43q-14 -16 -50 -33.5t-71 -17.5q-18 0 -64 10q-66 16 -65 93q0 59 43 124q31 41 31 86q0 66 -72 107q-72 43 -156 43q-29 0 -49 -4q-186 -41 -286.5 -155.5t-100.5 -248.5 q0 -53 19 -100q20 -57 149 -110q127 -51 324 -111q213 -63 276 -90q121 -51 186.5 -148.5t65.5 -224.5q0 -68 -18 -137q-35 -129 -160 -242q-125 -115 -295 -178t-332 -68h-14h-14q-278 0 -568 165q-297 169 -381 390q-14 49 -14 86z" />
<glyph unicode="T" horiz-adv-x="1556" d="M-301 2226q0 102 113 141q33 12 57 13q41 0 72 -25q31 -27 65 -80q33 -51 60 -80q84 -92 231 -180t328 -141q289 467 768 467h8q156 -4 266 -115q115 -115 115 -256q0 -131 -107 -229q-223 -201 -614 -201q-96 0 -223 16q-113 -225 -193 -647q-80 -418 -80 -821v-14 q0 -82 -46 -128t-124 -46q-47 0 -100 18q-39 12 -52.5 85t-13.5 224q0 10 1 53.5t1 55.5q0 213 62 612q61 395 201 684q-246 74 -443 185q-195 113 -272 215q-80 106 -80 194zM987 1812h27q231 0 399 93q35 23 35 47q0 33 -45 61.5t-105 28.5q-43 0 -77 -14 q-68 -25 -118 -73.5t-116 -142.5z" />
<glyph unicode="U" horiz-adv-x="1646" d="M12 557q0 186 58 436q53 233 112 418q39 119 146 416q49 139 100 196t166 62h12q190 0 191 -94q0 -25 -9 -49l-26 -72l-25 -60q-111 -289 -215 -657q-102 -369 -102 -596q0 -225 119 -238q2 0 12 -1t14 -1q215 0 434 297q248 328 383 1069q35 188 58 248q27 63 65 84 q82 41 172 41q33 0 70 -6q92 -2 92 -123q2 -16 -27 -194q-285 -1741 -1234 -1741q-61 0 -136 8q-430 43 -430 557z" />
<glyph unicode="V" horiz-adv-x="1570" d="M-223 1524q0 70 51 108q211 164 381 256q178 96 387 127q6 2 33 2q78 0 143 -53q70 -53 72 -129q2 -2 2 -10q0 -117 -172 -664q-172 -555 -182 -620q96 80 442 641q342 547 409 735q25 57 82.5 94t118.5 37q78 0 127 -57q51 -57 51 -123t-51 -148q-152 -272 -305 -526 q-197 -332 -444 -698q-262 -389 -373 -467q-78 -55 -152 -56q-78 0 -147 62q-94 88 -144 227v29q0 182 146 741q147 567 149 602v8q0 35 -26 35q-27 0 -80 -37q-31 -20 -152 -118q-123 -104 -143 -119q-33 -27 -80 -27q-74 0 -117 60q-26 41 -26 88z" />
<glyph unicode="W" horiz-adv-x="2312" d="M-567 1524q0 70 51 108q205 160 383 256.5t385 126.5q6 2 31 2q76 0 145.5 -53t71.5 -129v-12q0 -117 -158 -682q-162 -578 -168 -627q90 76 361 539q268 463 337 647q31 70 114 107.5t194 37.5q6 0 67 -4q90 -12 134 -58t44 -145q0 -223 -22 -391q-23 -170 -82 -397 q-68 -260 -84 -342q141 150 262 356q125 211 193 379q61 147 135 340q70 176 100 227q43 121 227 121q41 0 82 -6q117 -18 117 -119q0 -57 -41 -168q-86 -283 -309 -690q-225 -412 -610 -858q-113 -119 -308 -119q-115 0 -194.5 44t-79.5 110q0 152 119 620q119 473 119 555 q0 12 -5 33l-114 -213q-106 -199 -178 -317q-55 -96 -183 -307q-217 -362 -364 -467q-78 -55 -152 -56q-119 0 -203 121q-72 106 -88 168v29q0 182 146 745q147 571 149 598q0 43 -26.5 43t-77.5 -35q-47 -31 -156 -122l-141 -117q-33 -27 -80 -27q-76 0 -117 60 q-26 39 -26 88z" />
<glyph unicode="X" horiz-adv-x="1796" d="M-459 1632q0 86 53 158q182 248 455 324q41 10 82 10q225 0 348 -228l281 -526q344 477 391 592q35 86 127 145q92 61 174 62h6q162 -6 162 -109q0 -39 -23 -102q-45 -104 -221 -371q-182 -270 -411 -575q522 -858 1099 -1209q63 -39 64 -98q0 -33 -23 -74 q-35 -59 -161 -59q-96 0 -195 43q-465 205 -1012 1102q-264 -332 -540 -631q-51 -63 -130 -106t-157 -43q-82 0 -141 47q-39 31 -39 75q0 59 49 115q23 31 43 51l22 25l41 41q178 141 652 772l-175 315q-119 217 -194 351q-31 51 -90 51q-66 0 -154 -66q-84 -61 -157 -153 q-43 -57 -119 -58q-53 0 -84 39q-23 41 -23 90z" />
<glyph unicode="Y" horiz-adv-x="1570" d="M-223 1524q0 70 51 108q211 164 381 256q178 96 387 127q6 2 33 2q76 0 147 -55q70 -55 70 -135q0 -92 -187 -627q-184 -535 -184 -627q0 -33 17 -32q80 10 266 284q193 283 362 605q174 324 223 487q31 84 97.5 134t140.5 50q70 0 115 -45q72 -78 71 -168q0 -29 -6 -61 q-14 -55 -241.5 -1061t-425.5 -1761q-41 -147 -68 -185q-27 -39 -72 -39q-35 0 -73 21q-160 82 -160 270q0 41 16 117l78 279q74 248 160 591q90 354 143 641q-143 -221 -311 -413q-168 -193 -258 -258q-102 -74 -201 -74q-117 0 -192 88q-80 92 -82 203v26q0 135 78 437 q76 293 159 579q84 285 90 346v8q0 35 -26 35q-27 0 -80 -37q-31 -20 -152 -118q-123 -104 -143 -119q-33 -27 -80 -27q-74 0 -117 60q-26 41 -26 88z" />
<glyph unicode="Z" horiz-adv-x="1689" d="M-551 156q0 111 38 193.5t107 113.5q156 57 756 590q600 535 725 682q-66 -12 -323 -99q-287 -94 -521 -157q-268 -74 -415 -74q-12 0 -62 4q-90 23 -90 119q0 49 29 151q20 68 74.5 118t109.5 54q242 12 535 86q272 72 530 142q238 68 356 67h29q68 -16 166 -88 q123 -80 123 -203q0 -74 -55 -151q-82 -119 -424 -436q-330 -307 -695 -611q-352 -295 -481 -366q16 -4 31 -4q70 0 631 121q559 123 772 122q47 0 84 -6q70 -10 119 -68.5t49 -127.5q0 -115 -136 -164q-193 -6 -882 -131q-698 -123 -973 -123q-98 0 -144.5 44t-58.5 134 q-4 62 -4 68z" />
<glyph unicode="[" horiz-adv-x="921" d="M227 133q0 2 2 8v6q33 391 35 951q4 578 12 702q6 90 146 119q59 16 190 16l205 7q35 0 58.5 -36t23.5 -85q0 -70 -43 -101q-25 -16 -70 -24l-114 -13q-59 -2 -109 -10l-41 -1421q45 -4 47 -4q16 0 64.5 4t60.5 4q76 0 123 -43q29 -29 29 -76q0 -43 -21.5 -75.5 t-56.5 -36.5q-274 -29 -313 -29q-228 0 -228 137z" />
<glyph unicode="\" horiz-adv-x="1376" d="M43 1827v4q0 35 145 51q82 6 121 6q20 0 23 -2q76 -121 481 -856q408 -739 496 -919q25 -45 24 -62q0 -55 -159 -55l-17 -2q-16 0 -38.5 -1t-37.5 -1h-16q-27 0 -37 10q-51 74 -180 297q-141 242 -191 342q-4 12 -178 330q-199 373 -299 565q-135 262 -137 293z" />
<glyph unicode="]" horiz-adv-x="1019" d="M219 121q0 70 43 100q27 16 70 23q35 6 117.5 13t107.5 11l39 1422q-45 4 -47 4q-16 0 -64.5 -4t-60.5 -4q-76 0 -121 43q-31 29 -31 75q0 43 21.5 76t56.5 37q274 29 314 29q227 0 227 -138q0 -12 -2 -14q-33 -391 -35 -952q-2 -575 -12 -701q-4 -84 -148 -121 q-55 -12 -188 -16q-106 0 -205 -4q-35 0 -58.5 36t-23.5 85z" />
<glyph unicode="^" horiz-adv-x="993" d="M203 1403q0 14 12 31q66 41 96 65q23 18 78 70.5t90 81.5q43 37 70 37h8q49 0 78 -23q53 -45 110 -115q66 -74 152 -133q8 -8 8 -22q0 -37 -47 -80q-45 -43 -84 -45h-4q-49 -4 -91 32.5t-80 85t-62 58.5q-23 -18 -54 -55q-70 -90 -157 -91q-2 0 -10.5 1.5t-12.5 1.5 q-35 4 -67.5 35.5t-32.5 64.5z" />
<glyph unicode="_" horiz-adv-x="1388" d="M47 -143q0 25 2 30q0 37 45 58l15 6q10 4 98 6l223 6q35 0 78 1t70.5 2t44.5 1q49 0 98 2h98q307 0 412 8q8 2 37 3q49 0 67.5 -16.5t20.5 -55.5v-4q0 -74 -35 -136.5t-86 -72.5q-162 -27 -379 -27h-8h-55h-287q-330 0 -383 -12h-6q-33 0 -51 68q-19 63 -19 133z" />
<glyph unicode="`" d="M639 1516q0 68 20.5 114.5t57.5 46.5h2q18 4 81.5 -52t150.5 -113.5t157 -53.5q16 -16 16 -45q0 -45 -30.5 -87t-67.5 -42h-6q-129 0 -246 47q-115 45 -129 123q-6 25 -6 62z" />
<glyph unicode="a" d="M51 371v37q0 84 19 163q31 129 82 222q51 100 133 188q78 78 172 133q80 45 157 60q33 4 58 4q53 0 80 -9q63 -16 125 -45q12 -2 22 -10q6 -4 21 -10q2 -2 10 -2h12q4 0 4 2q4 2 8 6t7 4q2 4 14 16q6 0 8 3q0 2 2 2l4 2h17q49 -10 65 -15q37 -10 57 -22q53 -29 78 -47 q31 -27 37 -35q23 -29 29 -55v-17q0 -31 -8 -47q-18 -39 -43 -84q-39 -70 -39 -74q-51 -111 -80 -231q-20 -80 -21 -137q0 -39 9 -58q8 -27 32 -41q16 -10 33 -10l33 10l4 2l4 3q6 4 10 8q4 0 9.5 3t9.5 5l4 4q18 6 41 0q18 -10 28 -29q20 -27 27 -73v-17q0 -33 -12 -59 q-16 -37 -60 -66q-27 -20 -79 -35q-45 -12 -93 -20q-35 -8 -104 -8h-14q-51 0 -103 8q-49 8 -74 25q-20 18 -22 20l-12 18l-4 9l-5 8l-53 -25l-63 -28q-27 -12 -76 -23q-76 -10 -115 -10t-76 6q-61 10 -116 39q-78 39 -125 117q-58 90 -68 215zM414 455q0 -20 2 -25 q8 -45 28 -68q12 -18 50 -34q12 -4 32.5 -4t26.5 2q74 8 139 80q27 29 45 55q18 25 39 110.5t25 196.5q0 18 -19 41q-16 23 -26 25q-14 10 -37 10h-12q-29 -4 -50 -17q-25 -12 -43 -28q-43 -29 -75 -72q-92 -111 -119 -221q-6 -24 -6 -51z" />
<glyph unicode="b" horiz-adv-x="1482" d="M131 213q0 20 6 45l207 799l197 741q63 238 102 320q53 104 162 104q29 0 59 -6q47 -10 84 -53q31 -33 31 -80q0 -2 -4 -35q-20 -104 -98 -315q-78 -213 -99 -308l-73 -245q-2 -14 4 -18.5t16 3.5q96 59 207 60q35 0 69 -6q147 -18 261 -129q88 -82 124 -254 q16 -88 17 -148q0 -98 -27 -184l-90 -201l-108 -141l-117 -92l-111 -52l-94 -22q-41 -10 -53 -10q-4 0 -8 2h-7q-23 4 -24 0q-72 0 -125 12q-53 10 -74 23q-23 14 -35 26l-14 17q0 6 -12 0q-66 -66 -156 -66q-80 0 -119 33q-53 41 -79 102q-19 37 -19 78zM578 559 q0 -4 4 -41q8 -43 20 -82q16 -33 49 -65q51 -29 84 -35h15q10 0 12 -2q55 0 98 20q47 25 80 64q43 49 70 129q14 66 14 74q6 37 6 59q0 86 -24 129q-33 57 -91 80q-12 6 -43 12q-8 0 -20 1t-18.5 2t-10.5 1q-20 0 -26 -2q-25 -4 -62 -22q-39 -23 -59 -52q-35 -43 -64 -120 q-25 -68 -30 -107q-4 -37 -4 -43z" />
<glyph unicode="c" horiz-adv-x="1185" d="M23 385v18q0 35 2 50q0 31 28 157q35 119 80 205q53 104 164 205q113 100 268 160q121 45 219 45q90 0 179 -41q168 -82 180 -226v-20q0 -61 -31 -119q-33 -68 -63.5 -98.5t-53.5 -48.5q-78 -59 -176 -60q-31 0 -41 2q-27 2 -49 39q-20 33 -16 52l28 45q25 33 21 49 l-14 28q-8 12 -21 21q-31 12 -51 10q-25 -2 -49 -16q-23 -12 -43 -29q-59 -51 -76 -72q-92 -111 -119 -221q-6 -49 -6 -51q0 -8 2 -12v-13v-10q0 -10 4 -22l2 -6q2 -4 4 -10.5t2 -10.5q4 -16 11 -29q6 -16 20 -30l31 -31q16 -12 43 -25q41 -16 59 -20l74 -12h55h39 q37 2 90 20l94 31l82 20l72 -16l49 -78q4 -20 4 -27q0 -47 -59 -90q-76 -47 -139 -65q-180 -41 -320 -45h-49q-115 0 -184 16q-88 18 -152 57q-70 41 -90 62q-18 18 -39 47q-59 96 -65 215z" />
<glyph unicode="d" horiz-adv-x="1437" d="M109 371v37q0 84 18 163q31 129 82 222q51 100 133 188q78 78 172 133q80 45 158 60q33 4 57 4q53 0 80 -9q43 -12 100 -39q37 -16 43 5l9 32l6 31l73 281l62 237l43 158l47 145l41 99q53 104 162 104q29 0 59 -6q47 -8 94 -55q37 -35 37 -82l-4 -33q-6 -33 -211 -750 q-195 -678 -211 -786q-20 -70 -20 -137q0 -39 8 -58q8 -27 33 -41q16 -10 32 -10l33 10l4 2l4 3q6 4 11 8q4 0 9 3t9 5l4 4q18 6 41 0q18 -10 29 -29q20 -27 26 -73v-17q0 -33 -12 -59q-16 -37 -59 -66q-27 -20 -80 -35q-45 -12 -92 -20q-35 -8 -105 -8h-14q-51 0 -102 8 q-49 8 -74 25q-20 18 -23 20l-12 18l-4 9l-4 8l-53 -25l-64 -28q-27 -12 -76 -23q-76 -10 -114.5 -10t-75.5 6q-61 10 -117 39q-78 39 -125 117q-57 90 -67 215zM434 463q0 -20 2 -25q6 -39 29 -67q12 -18 49 -35q12 -4 31 -4q23 0 28 2q84 12 144 78l24 34l21 35l4 6 q2 8 6 17.5t6 15.5l17 33q20 63 24 133v19q2 6 2 18q0 35 -10 70q-4 16 -12 28q-14 18 -23 21q-14 10 -37 10h-12q-29 -4 -49 -16q-25 -12 -43 -29q-43 -29 -76 -72q-94 -106 -119 -221q-6 -24 -6 -51z" />
<glyph unicode="e" horiz-adv-x="1480" d="M72 901q0 55 37 98q57 59 129 95q66 37 114 47q70 12 160 22l147 19q39 8 160 14q102 6 205 25q104 20 252 67q4 0 4 -8q0 -25 -41 -154q-39 -111 -49 -151l-19 -33q-10 -16 -26 -24q-27 -14 -31 -17q-12 -8 -37 -12l-41 -8q-12 -4 -47 -6.5t-47 -6.5q-61 -6 -111 -6 q-53 0 -65 2q-47 8 -121 8h-27q-78 -2 -133 -28q-16 -8 -14 -21q12 -27 272 -57q197 -27 232 -33q70 -14 69 -51v-43l-2 -45l-6 -33q-4 -18 -16 -33q-16 -16 -33 -24q-82 -45 -186 -74l-172 -45q-68 -20 -90 -55q-10 -14 -7 -25q8 -14 48 -14q63 0 200 37q100 27 264 106 q168 80 275 107q29 4 31 4q20 0 45 -8q39 -18 41 -52q0 -2 1 -12t1 -12q0 -137 -199 -244q-205 -113 -369 -176q-141 -49 -338 -49q-387 0 -428 225q-4 33 -4 35q0 45 27 96q35 66 94 113q82 59 115 78q39 23 94 45q-12 2 -35 8q-158 27 -221 67q-27 14 -55 78 q-33 55 -45 135q0 4 -1 14.5t-1 14.5z" />
<glyph unicode="f" horiz-adv-x="1118" d="M139 -94q0 102 17 172q16 80 82 328q55 217 86 421q-76 39 -119 107q-53 66 -62 158q-2 6 -2 28q0 125 135 187q2 2 13 2q39 0 94 -86l14 -17l62 355q18 100 84 325q55 193 137 359q35 72 133 86q8 2 33 2q72 0 96 -56q39 -86 39 -211q0 -109 -35 -276 q-70 -319 -272 -727q-6 -12 -6 -23q0 -25 37 -47q51 -29 122 -45q68 -12 150 -55q74 -43 88 -100q4 -29 4 -31q0 -45 -49 -74q-55 -23 -143 -22q-49 0 -66 2q94 -180 147 -369q41 -160 41 -334q0 -6 -4 -84q-10 -231 -110 -434q-51 -111 -131 -164q-70 -51 -150 -51h-6 q-80 4 -154 35q-84 41 -135 96q-61 63 -88 133q-70 172 -80 324q-2 20 -2 86zM508 -98q0 -8 1 -37t1 -39q2 -90 22 -152q18 -63 60 -63h2q57 2 98 131q37 119 37 235v23q-4 90 -43 213q-39 121 -80 201l-41 78l-24 -201q-12 -90 -27 -242q-6 -69 -6 -147z" />
<glyph unicode="g" horiz-adv-x="1368" d="M-133 -1212q0 129 57 301q74 227 236 401l137 133l121 94l94 58l63 37q20 14 25 22q35 123 35 156q0 12 -4 12q0 -2 -2 -2q-10 -8 -31 -10q-31 -6 -82 -6q-35 0 -78 8q-61 8 -116 37q-80 45 -125 118q-59 90 -68 213v39q0 82 18 162q39 164 74 230q66 129 119 184 q88 88 164 135q127 72 241 72q61 0 117 -19q55 -20 84 -45q14 -6 27 -2l45 14q41 12 67 15h11q51 0 92 -19q47 -25 57 -65v-10q0 -74 -84 -394l-2 -2l-20 -82l-37 -139l-64 -229l-55 -205l43 25l55 45l66 49q25 25 65 49q20 12 62 29q29 12 53 6q23 -6 33 -35l12 -66l-8 -59 l-29 -55l-39 -54l-53 -45l-59 -43q-12 -10 -64 -41q-41 -25 -63 -34l-64 -35q-6 -2 -18 -9.5t-34.5 -19.5t-41.5 -22l-68 -271l-112 -442q-53 -205 -74 -238q-41 -90 -72 -139q-47 -74 -81 -102q-31 -35 -82 -70q-53 -33 -78 -39q-35 -12 -70 -18q-33 -6 -53 -6q-6 0 -8 2 q-8 0 -41 4q-63 14 -103 32q-45 20 -73 56q-25 25 -50 59q-16 20 -30 74q-14 45 -19 65q0 2 -3 12.5t-6 27t-5 30.5q-4 54 -4 66zM195 -1182q0 -88 32 -96h6q61 0 129 221l142 529l-127 -146l-82 -121l-47 -94l-23 -61l-4 -21q-12 -12 -24 -153q-2 -15 -2 -58zM467 426 q4 -68 65 -98q35 -10 58 -11q37 0 92 23q37 14 66 70q27 45 43 102t38 152l39 155q4 16 -24 33q-27 14 -66 20h-14q-31 0 -68 -12q-217 -143 -229 -434z" />
<glyph unicode="h" horiz-adv-x="1425" d="M74 70v20q4 66 26 154l90 364l105 445l67 286l66 277l55 239q27 102 74 267q18 63 94 94q49 23 94 22q4 0 37 -4q57 -14 82 -57q16 -29 17 -61q0 -2 -4 -35q-63 -281 -156 -572q-92 -293 -199 -721q-2 -16 1 -23t12 -5q29 6 184 198q90 113 119 142q70 63 125 86 q59 23 129 33h14q53 0 98 -27q49 -29 66 -82q47 -111 47 -199q0 -66 -25 -127l-143 -395q-16 -39 -16 -70q0 -29 34 -28q16 0 23 2q49 0 59 -2q14 -2 41 -8q18 -8 27 -9q14 -8 18 -16q12 -16 13 -20l12 -25q0 -4 3 -10t5 -13l2 -6q6 -12 6 -26q0 -49 -90 -86l-45 -19 l-49 -20l-41 -15l-45 -14l-43 -6q-41 -4 -49 -2q-4 0 -49 4q-39 6 -115 74q-76 70 -88 143q-6 33 -6 63.5t10 71.5q12 57 53 144q35 76 53 137q2 6 -1 9t-9 1q-31 0 -51 -27q-10 -10 -164 -239q-150 -225 -278 -346q-35 -29 -136 -39q-33 -4 -65 -4q-51 0 -76 12 q-18 19 -18 70z" />
<glyph unicode="i" horiz-adv-x="978" d="M104 242q0 27 2 32q8 98 74 258q61 174 66 275q-4 8 -25 6q-29 -4 -53 -16q-29 -12 -47 12q-12 18 -12 57q0 29 2 39q8 43 45 86t73 70q51 35 90 53q37 18 68 33q18 8 31 12l35 8l39 13q6 0 36 8q8 0 15.5 1t11.5 2t8 1h6q31 0 41 -2q18 -2 45 -8q31 -8 37 -41 q6 -14 6 -31q0 -16 -6 -33q-27 -121 -106 -332q-76 -209 -99 -385q0 -53 23 -81q20 -27 53 -21l62 6q25 6 51 6q35 0 65 -12q57 -18 68 -74q2 -4 2 -20q0 -39 -37 -70q-43 -35 -108 -51q-27 -6 -162 -35q-53 -4 -64 -4q-37 0 -80 6q-74 10 -153 51q-103 56 -103 181z M414 1612v22q6 76 82 103q31 14 79 14q39 0 78 -12q41 -6 60 -68q10 -35 10 -61q0 -37 -12 -86q-23 -86 -90 -154h-15q-76 0 -135 78q-57 76 -57 164z" />
<glyph unicode="j" horiz-adv-x="954" d="M-522 -1212q0 129 57 301q74 227 236 401q55 59 137 133q55 47 121 94l94 58l63 37l25 22l215 903q4 43 -16 54q-14 8 -45 -5q-25 -14 -58 -16q-29 0 -49 25q-14 14 -20 53q-4 12 -5 31q0 2 5 51q12 57 43 90q41 51 178 84q129 37 217 41h10q51 0 96 -19q57 -27 58 -75 q0 -72 -86 -394v-2l-21 -82l-39 -139l-61 -229l-55 -205q16 6 43 25q45 37 59 45l65 49l70 49l66 29l53 6l37 -35q12 -29 12 -53v-17l-12 -63q-8 -29 -33 -60q-31 -37 -49 -53q-20 -23 -58 -49l-67 -45q-31 -25 -70 -41l-67 -37l-66 -35l-55 -30l-43 -164l-60 -238l-63 -237 l-59 -209l-41 -103q-53 -123 -103 -186q-57 -76 -108 -113q-47 -27 -107 -57q-53 -16 -78 -16h-12l-61 4q-63 14 -103 32q-45 20 -74 56q-25 25 -49 59q-16 20 -30 74q-14 45 -19 65q0 2 -3 12.5t-6 27t-5 30.5q-4 54 -4 66zM-195 -1182q0 -88 33 -96h6q61 0 129 221 l142 529q-72 -72 -127.5 -146t-81.5 -121q-10 -14 -47 -94l-23 -61l-4 -21q-12 -12 -25 -153q-2 -15 -2 -58zM563 1583q0 16 2 23q6 74 80 102q35 14 80 14q37 0 78 -12q43 -6 61 -68q8 -26 9 -58q0 -40 -13 -89q-23 -86 -90 -154h-14q-76 0 -135 78q-58 76 -58 164z" />
<glyph unicode="k" horiz-adv-x="1427" d="M39 72q0 20 2 26q4 33 33 140l198 677q23 96 160 534.5t178 602.5q18 63 75.5 103t145.5 40h13q33 0 45 -1t25.5 -20.5t13.5 -62.5q0 -35 -17 -145q-27 -152 -147 -493q-117 -334 -150 -447l4 4q4 4 16.5 14.5t27 22.5t34 26.5t40 28t45 27.5t48 24.5t49 16.5t50.5 8 q61 4 63 4q152 0 222.5 -73.5t70.5 -202.5q0 -86 -27 -166q-29 -84 -59 -115q-170 -184 -334 -184q-8 0 -19 1t-20 1h-8h-6l23 -49l36 -68q51 -74 144 -74q55 0 114 25l76 37q76 35 109 35q25 0 39 -15q41 -41 41 -90q0 -57 -50.5 -113.5t-119.5 -82.5q-176 -76 -322 -76 q-115 0 -199 53q-137 88 -210 418q-68 -133 -119 -359q-18 -45 -83 -77.5t-128 -32.5h-4q-4 0 -22.5 -1t-24.5 -1q-72 0 -72 80zM655 733q45 -12 105 -12q211 0 211 151q0 25 -6 56q-6 18 -35 18q-51 0 -127 -53t-129 -131z" />
<glyph unicode="l" horiz-adv-x="813" d="M53 115q0 20 4 41l199 780q121 489 162 618q43 158 112 330q57 145 156 287q86 121 164 121h4h10q123 -12 123 -181q0 -80 -35 -219q-35 -129 -190 -553q-295 -698 -320 -979v-30l4 -25l5 -18l4 -11l8 -6l12 -4l8 -2h11h10q33 0 96 19q53 16 92 16h15q41 -4 61 -53 q8 -16 8 -47q0 -39 -26 -84q-41 -68 -101 -90q-123 -47 -289 -70q-86 -10 -120 -10q-70 0 -101 18q-39 27 -69 80q-17 39 -17 72z" />
<glyph unicode="m" horiz-adv-x="2412" d="M57 305q0 90 6 225q6 236 54 328l73 62q33 20 62 20q14 0 31 -6q41 -18 55 -123l12 -92l10 -57l15 -72q6 -31 20 -31q18 2 76 82l117 176q57 92 63 98q18 25 62 62q45 39 82 51q72 23 118 23q102 0 174 -80q12 -16 31 -119l33 -221q8 -76 16 -133q33 0 138 157 q90 139 157 260l45 68l52 72l45 53l49 41l67 35q31 12 58 16q6 0 12 1t10 2t6 1q6 0 27 -4q25 -8 53 -33q31 -27 58 -67q25 -37 53 -185l12 -147l14 -152l13 -127q8 -57 12 -100q2 -27 10 -45l19 -22q8 -6 20 -11q29 0 41 2l21 9l24 12l23 12q63 33 102 33q25 0 47 -17 q31 -49 31 -94q0 -16 -10 -47q-29 -66 -92 -110q-68 -45 -142 -74q-74 -27 -121 -27q-143 -10 -161 -10h-17q-166 14 -215 217q-25 94 -24 236q0 59 6 131q-23 -23 -74 -107l-90 -158l-121 -165q-88 -100 -156 -144q-41 -23 -82 -22l-32 4q-66 12 -111 45q-53 35 -59 67 q-6 2 -31 74q-29 82 -29 92l-47 289q-35 -37 -82 -123q-55 -102 -116 -194q-68 -104 -148 -185q-39 -39 -98 -59q-35 -14 -80 -14q-4 0 -49 4q-68 12 -109 69q-29 39 -35 136q-4 77 -4 112z" />
<glyph unicode="n" horiz-adv-x="1746" d="M76 117q0 27 6 53q16 100 29 254q12 180 69 301l82 70q45 27 86 26q29 0 55 -14q63 -33 82 -68q14 -35 27 -69q16 -49 16 -56q6 -18 17 -12l69 86l97 133l59 84l59 76q25 29 50 47q35 25 79 49q37 23 95 43q31 14 90 21h16q39 0 76 -19q49 -29 80 -78q37 -55 55 -147 q4 -119 4 -131q0 -16 -4 -119q-6 -90 -22 -215q-6 -63 -7 -90q0 -16 2 -18q0 -4 9 -19q6 -10 24 -18q16 -8 43 6l23 12l37 19l41 18l45 14q10 2 39 2q18 -2 30 -14q41 -53 41 -96q0 -37 -28 -72q-61 -80 -166 -131q-106 -51 -174 -55q-14 -2 -66 -2q-88 0 -156 24 q-78 29 -102 82l-10 21q-23 49 -29 75v70q0 41 2 66q8 141 8 182q0 70 -8 70q-25 -25 -194 -236q-162 -203 -287 -328q-39 -37 -109 -53q-41 -10 -71 -10q-41 0 -72 8q-78 18 -117 74q-20 33 -20 84z" />
<glyph unicode="o" horiz-adv-x="1398" d="M72 408q0 113 37 235q37 117 133 258q94 129 235 213q57 31 137 53q61 16 119 17q35 0 45 -2q14 -2 45 -6l51 -7l52 -10l65 -14l70 -23q37 -10 94 -30l107 -43q45 -14 77 -58q31 -45 31 -92q0 -43 -18 -80q-16 -41 -74 -59q-29 -11 -63 -11q-31 0 -66 9q2 -12 2 -53 q0 -113 -33 -213q-37 -125 -76 -201q-27 -57 -108 -152q-104 -117 -301 -151q-68 -10 -111 -11q-135 0 -258 62q-78 41 -135 133q-57 89 -57 236zM465 461q0 -53 10 -78q14 -33 53 -51q31 -8 50 -8q41 0 77 24q51 33 88 101q25 47 56 145q14 55 28 139q0 18 1 36.5t2 28 t1 13.5v14q-12 16 -20 23q-18 12 -43 12q-47 0 -113 -49q-139 -106 -190 -319v-31z" />
<glyph unicode="p" horiz-adv-x="1288" d="M-184 -999q0 35 12 77q190 672 242 873q53 203 112 491q43 213 131 590q14 57 60 96q37 37 82 52q45 10 88 14h12q41 0 78 -25q43 -29 55 -88q33 23 84 41q25 8 76 8q27 0 55 -4q78 -6 154 -57q113 -76 143 -246q20 -90 21 -178q0 -45 -11 -110q-29 -147 -84 -254 q-53 -113 -168 -189q-121 -78 -253 -78q-2 0 -15.5 1t-17.5 1q-152 10 -230 82l-45 -133l-286 -979q-16 -41 -84 -80q-47 -25 -90 -24q-18 0 -35 4q-86 25 -86 115zM530 420q41 -74 138 -80h12q90 0 143 72q20 27 37 71q14 43 14 103q0 74 -34 139q-31 57 -90 61h-11 q-55 0 -100 -43q-23 -23 -43 -71l-31 -82q-4 -39 -20 -98q-13 -70 -15 -72z" />
<glyph unicode="q" horiz-adv-x="1280" d="M127 367v36q0 193 102 394q104 201 303 313q113 63 201 64h15q125 0 194 -70q14 -8 21 -2l24 16q18 16 39 19q6 2 37 2q45 0 59 -2q66 -6 107 -23q18 -8 18 -43q0 -27 -12 -74q-37 -125 -285 -1056q-188 -709 -243 -936q-20 -96 -68 -150q-45 -43 -150 -43h-10 q-94 2 -110 58q-4 16 -4 38q0 59 28 150q10 31 31 127q20 100 86 315q70 236 111 410q4 20 18 57q16 49 16 51q0 4 -2 7.5t-6 1.5l-8 -4q-6 -4 -17.5 -9.5t-19.5 -9.5q-25 -8 -37 -8q-25 -6 -53 -6q-168 0 -270 102q-99 101 -115 275zM469 434q4 -59 41 -92q35 -29 68 -29 q12 0 26 6q49 12 84 48q43 43 57 71q20 31 45 129.5t37 169.5q12 66 13 78q0 14 -27 27q-15 7 -31 6q-14 0 -28 -4q-55 -20 -107 -72q-55 -49 -94 -106q-43 -61 -61 -117q-23 -49 -23 -107v-8z" />
<glyph unicode="r" horiz-adv-x="1376" d="M61 297q0 29 13 59q27 70 78 105q88 57 184 201q98 147 143 301q2 2 2 14q0 39 -26 104q-33 86 -37 133q0 4 -1 14.5t-1 14.5q0 98 51 187q43 82 113 81q18 0 34 -4q76 -20 123 -106q49 -88 62 -168q10 -61 10 -86q0 -8 -4 -41q88 -82 248 -137q158 -57 217 -111 q18 -14 20 -39q4 -23 -8 -49q-4 -16 -31 -61q-23 -37 -47 -70l-65 -80q-88 -106 -88 -192q0 -20 10 -56q18 -47 59 -51h10q39 0 68 14l25 5q27 0 47 -21q43 -43 49 -94q2 -4 2 -19q0 -41 -35 -63q-178 -92 -338 -92h-6q-88 4 -127 18q-39 16 -78 82q-41 66 -41 156 q0 102 49 233q33 68 64 111q33 43 55 65q20 20 17 41q-2 20 -33 37l-113 53l-30 -53l-31 -57l-35 -49l-98 -135q-70 -96 -115 -148q-63 -66 -125 -108q-33 -27 -76 -43q-37 -10 -59 -11l-23 2q-41 4 -61 37q-21 39 -21 76z" />
<glyph unicode="s" horiz-adv-x="1323" d="M16 299q0 29 13 59q27 70 77 105q88 57 185 201q98 147 143 301q2 2 2 14q0 41 -26 102q-33 90 -37 136q0 4 -1 15t-1 13q0 55 18 117q23 78 72 125q31 33 67 33q14 0 41 -11q80 -35 125 -135q45 -98 54 -186q4 -70 4 -76q0 -14 -4 -59q20 -18 151 -113 q143 -100 182 -133q76 -59 133 -148q61 -90 62 -184q0 -172 -64 -272q-55 -88 -169.5 -144.5t-241.5 -56.5q-78 0 -142 21q-111 35 -208 120q-49 49 -50 103q0 37 21 69q37 53 74 54q23 0 42 -13.5t48.5 -39t56.5 -42.5q47 -29 92 -28h6h7q49 0 96 41q49 43 69 112 q10 37 11 58q0 33 -15 59q-20 45 -61 86l-103 78l-94 80q-20 -37 -57 -92l-74 -125q-25 -47 -49 -80q-31 -45 -94 -117q-49 -57 -121 -108q-86 -55 -143 -56q-47 0 -76 41q-21 39 -21 76z" />
<glyph unicode="t" horiz-adv-x="1130" d="M94 223q0 72 35 183q47 131 117 380q113 383 170 615q-2 0 -7.5 2t-14.5 6t-19 8l-45 23q-39 23 -63.5 68.5t-24.5 97.5q0 29 6 53q23 68 69 67q20 0 41 -14q20 -10 140 -41l86 252q37 119 108 225q68 100 152 101q4 0 24 -4q125 -14 125 -136q0 -84 -69 -249l-82 -213 q152 16 176 28q84 20 153 21q33 0 58.5 -5t36 -10.5t10.5 -9.5v-2q27 -33 27 -82q0 -104 -89 -168q-76 -57 -276 -57q-23 0 -80 2t-65 2q-4 0 -17.5 -1t-15.5 -1q-18 -55 -105 -293q-96 -260 -151 -442q-59 -201 -60 -283q0 -43 17 -53q18 -12 39 -12q41 0 123 45 q80 43 118.5 45t53.5 -25q27 -27 26 -78q0 -100 -102 -166q-170 -113 -379 -112h-8q-86 2 -127 18q-37 14 -78 82q-33 53 -33 133z" />
<glyph unicode="u" horiz-adv-x="1337" d="M152 362q0 59 16 154q20 115 55 258q37 152 56 270q41 121 151 142q20 4 47 4q37 0 64 -10q49 -16 67 -66q10 -35 10 -53q4 -25 -6 -60l-18 -69l-31 -101q-27 -98 -35 -131q-39 -137 -39 -237q0 -23 3 -29q6 -98 81 -98q8 0 58 4q20 4 45 12q20 6 39 25l30 26l25 37 l21 39l16 49l14 52l15 57l16 59l18 90l19 99l20 82l29 86l29 65l43 60q37 12 73 12q47 0 88 -14q86 -31 99 -115q2 -4 2 -21q0 -47 -27 -151l-88 -311l-76 -324q-4 -23 13 -29q18 -10 34 -8q27 0 43 -8q23 -6 33 -25q12 -20 13 -47q0 -2 -5 -35q-14 -45 -57 -73 q-109 -57 -244 -58h-4q-125 2 -162 25q-23 12 -32 43q0 2 -2 15.5t-2 19.5l-27 -21q-37 -25 -98 -49q-55 -16 -105 -16h-26q-70 6 -134 37q-59 29 -110 106q-45 86 -55 188q0 6 -1 22.5t-1 20.5z" />
<glyph unicode="v" horiz-adv-x="1015" d="M27 1001q0 47 18 91q25 51 74 73q33 14 61 19q25 2 49 -8q12 -4 37 -21q12 -10 29 -29q16 -25 29 -127q4 -70 36 -292q27 -178 91 -381q78 82 145 198q70 117 104 238q2 2 2 14q0 39 -26 105q-33 86 -37 133q0 4 -1 14t-1 14q0 98 51 187q43 82 113 82q18 0 35 -4 q76 -20 122 -107q49 -88 62 -168q10 -61 10 -86q0 -8 -4 -41q-20 -125 -76 -274q-53 -145 -90 -205q-94 -154 -155 -225q-63 -82 -183 -166q-66 -47 -166 -47h-8q-10 0 -35 12q-80 41 -178 385q-92 338 -102 485q-4 115 -4 117q-2 4 -2 14z" />
<glyph unicode="w" horiz-adv-x="1765" d="M55 1001q0 47 19 91q25 51 73 73q33 14 62 19q25 2 49 -8q12 -4 37 -21q12 -10 29 -29q18 -25 30 -110q8 -57 45 -258q33 -170 93 -365q53 53 94 105q20 23 78 110q43 70 65 154q4 35 0 53.5t-18 44.5q-16 31 -19 51q-6 27 -6 56q0 76 47 159q53 86 115 86q25 0 41 -8 q51 -20 94 -139q43 -123 49 -229l12 -99l21 -80l37 -116l49 -148q53 53 94 105q20 23 78 110q43 70 66 154q2 2 2 14q0 39 -27 105q-33 86 -37 133q0 4 -1 14t-1 14q0 98 51 187q43 82 113 82q18 0 35 -4q76 -20 123 -107q49 -88 61 -168q10 -61 10 -86q0 -8 -4 -41 q-20 -125 -76 -274q-53 -145 -90 -205q-94 -154 -155 -225q-63 -82 -183 -166q-66 -47 -166 -47h-8q-10 0 -35 12q-47 18 -90 115q-43 102 -63 245q-66 -106 -131 -180q-63 -72 -166 -145q-35 -31 -72 -41q-35 -10 -69 -10q-45 2 -68 16q-80 41 -178 385q-92 338 -103 485 q-4 115 -4 117q-2 4 -2 14z" />
<glyph unicode="x" horiz-adv-x="1675" d="M49 188q0 104 160 185q94 43 315 209l23 18q-23 92 -29 154q-8 59 -8 141v27q2 80 16 122l9 29q10 27 10 39q8 16 14 37q10 29 19 41l22 35q8 16 27 30q18 16 32 19q25 10 41 10h15q90 0 137 -41q27 -27 27 -86q0 -49 -15 -100q-18 -78 -18 -162q0 -6 1 -28.5t1 -30.5 l16 12l213 176q121 94 180 137q82 57 150 58q49 0 92 -31q12 -8 25 -31q8 -23 8 -45v-10q-2 -35 -21 -74q-20 -43 -73 -94q-53 -53 -135 -105q-47 -29 -271 -198l-114 -86q80 -193 217 -244q176 -16 213 -47q61 -49 61 -100q0 -6 -4 -27q-25 -70 -117 -94q-68 -18 -129 -19 h-29q-88 6 -167 43q-111 49 -189 127q-82 86 -127 166l-45 -31q-219 -150 -344 -194q-82 -25 -131 -25q-2 0 -4 2q-49 0 -62 21q-12 32 -12 65z" />
<glyph unicode="y" horiz-adv-x="1136" d="M82 365q0 92 24 208q29 123 74 275q53 170 60 196q39 119 151 142q25 6 49 6q100 0 129 -78q10 -37 11 -57q0 -31 -13 -74q-4 -18 -33.5 -120.5t-44.5 -162.5q-43 -168 -43 -239q0 -98 89 -125q25 -6 47 -6q109 0 170 176q16 47 61 211l74 315q14 61 88 107q74 45 141 49 h4q49 0 94.5 -37t55.5 -86v-8q0 -33 -66 -180l-8 -17q-207 -651 -340 -1165q-125 -494 -172 -703q-39 -186 -70 -254q-45 -92 -90 -131q-41 -37 -129 -49q-6 0 -21.5 -1t-19.5 -1q-33 0 -47 21.5t-18 79.5q-2 6 -2 24q0 115 75 385l242 905q2 14 6 27.5t6 19t0 7.5 q-74 -31 -178 -31q-123 0 -221 74q-100 74 -133 258q-2 8 -2 39z" />
<glyph unicode="z" horiz-adv-x="1583" d="M-211 188q0 104 162 185q102 45 167.5 173t65.5 296q0 8 -4 73q-4 25 -39 64t-69.5 98.5t-40.5 136.5q0 2 -1 12.5t-1 14.5q0 98 47 193q47 92 121 92q2 0 30 -4q102 -29 168 -168q66 -141 66 -232q0 -4 -2 -12v-6q113 -70 270 -70h17q47 0 104 9q68 11 125 26.5 t108.5 32t79.5 28.5l27 11h10q74 0 133 -74q59 -72 60 -145v-7q-6 -80 -154 -256q-145 -172 -240 -196q94 0 160 -92q63 -90 70 -187q14 6 82 58q176 129 256 129q35 0 51 -25q27 -51 27 -90q0 -61 -54 -111q-55 -51 -172 -120q-121 -70 -178 -117q-14 -395 -82 -703 q-61 -285 -119 -401q-100 -229 -262 -338q-158 -109 -311 -108q-35 0 -78 8q-281 55 -332 323q-4 49 -4 66q0 166 74 387q78 221 217 373q248 266 582 485q-4 133 -75 194.5t-220 75.5q-74 18 -104.5 58.5t-43.5 134.5q16 10 82 49t92 55q96 59 265 219q-37 -20 -152 -28 q-43 -8 -92 -8q-100 0 -205 34q-14 -178 -104 -323q-31 -51 -88 -117q-80 -88 -185 -164q-121 -86 -213 -86q-61 0 -78 29q-16 42 -16 65zM399 -1167q0 -119 86 -129h9q98 0 184 147q162 270 240 830q-252 -244 -371 -424q-57 -86 -102.5 -209t-45.5 -215z" />
<glyph unicode="{" horiz-adv-x="1062" d="M61 915q0 59 105 132q45 29 76.5 75.5t33.5 100.5q10 272 216 510q45 57 155 90q18 8 68 12q49 6 65 6q2 0 82 4q16 0 38 1t34 2t18 1q35 0 59.5 -38.5t24.5 -90.5q0 -70 -41 -98q-23 -16 -82 -16h-53q-94 0 -147 -27q-76 -49 -113 -133q-41 -88 -53 -272 q-2 -39 -14.5 -74t-24.5 -55.5t-35.5 -43t-34 -30.5t-37 -24.5t-28.5 -18.5q-20 -10 -18.5 -24.5t40.5 -55.5q125 -125 127 -227q10 -201 29 -256q16 -39 22 -46q6 -8 35 -32.5t37 -34.5q35 -18 88 -19q27 0 98.5 10.5t90.5 10.5q55 0 73 -33q14 -20 15 -55q0 -51 -35 -96 t-78 -54q-84 -20 -205 -20q-246 0 -336 108q-82 88 -123 517q-4 51 -31.5 95t-58 68.5t-56.5 59t-26 71.5z" />
<glyph unicode="|" horiz-adv-x="780" d="M223 70q0 145 23 641q25 477 24 501q0 94 17 422q16 307 24 357q10 10 32 21t42.5 18.5t37.5 14.5t19 7q55 16 80 16q70 0 70 -88q0 -29 -2 -38q-4 -240 -31 -1008t-43 -903q-18 -41 -40.5 -58.5t-67.5 -27.5q-33 -20 -95 -21q-72 0 -84 35q-6 19 -6 111z" />
<glyph unicode="}" horiz-adv-x="1099" d="M57 150q0 84 43 110q27 16 127 16q104 2 166 31q70 43 105 111q35 70 49 258q2 59 52 120.5t96 100.5t44 49q0 12 -47 49t-97 92.5t-56 110.5l-13 119q-6 98 -16 153q-6 45 -18.5 69t-42.5 58q-41 23 -95 23q-14 0 -58 -4t-54 -4q-55 0 -95 35q-29 29 -28 73 q0 39 21.5 73t56.5 42q102 18 204 18q246 0 336 -108q29 -29 39 -70q20 -61 25 -92q10 -78 12 -115q4 -57 4 -61q0 -6 1 -15.5t2 -26.5t1 -30l4 -69q4 -74 38 -124t81 -71q106 -47 107 -106q4 -35 -52.5 -90.5t-114 -116t-55.5 -107.5q-10 -352 -147 -510q-80 -80 -205 -106 q-133 -27 -336 -35q-35 0 -59.5 45.5t-24.5 104.5z" />
<glyph unicode="~" horiz-adv-x="1091" d="M59 934q0 35 21 61q63 84 158.5 132.5t183.5 48.5q51 0 120.5 -51.5t123.5 -51.5h4q53 0 128.5 45t123.5 45q25 0 32 -2q78 -23 78 -125q0 -23 -6 -47q-14 -84 -129 -129q-117 -51 -217 -51q-6 0 -72 4q-39 2 -96 51q-53 47 -96 47h-2q-51 0 -125 -49q-72 -47 -115 -47 q-16 0 -33 4q-35 8 -58.5 42t-23.5 73z" />
<glyph horiz-adv-x="1736" d="M37 -119q0 131 78 432q76 297 110 514q-78 41 -129 121t-51 164q0 135 133 195q2 2 14.5 2t28 -10.5t28.5 -26t24.5 -30.5t17.5 -25l8 -11q2 0 25 158q23 145 90 420q70 266 168 461q20 39 66 63.5t95 24.5q80 0 101 -56q37 -86 37 -215q0 -385 -306 -999q-4 -8 -4 -19 q0 -41 91 -75q90 -33 137 -33h4q55 0 139 31.5t154 89.5q59 47 194 102q129 33 164 33q39 0 74 -10q41 -10 41 -70q0 -6 -4 -35q-25 -111 -107 -334q-76 -205 -98 -383q0 -104 82 -104q23 0 55 8q25 6 53 6q51 0 87 -22.5t44 -63.5q2 -4 2 -18q0 -43 -40.5 -76t-104.5 -47 q-147 -39 -240 -39q-117 0 -219 57q-102 55 -102 187q0 4 2 14v12q10 90 33 179q53 180 59 202q45 141 47 152q0 8 -6 8q-12 0 -78 -47q-68 -49 -92 -59q-100 -41 -203 -41h-26q190 -362 190 -717q0 -264 -117 -504q-104 -215 -294 -215q-113 0 -220 78q-102 76 -149 186 q-86 213 -86 385zM410 -106q0 -8 1 -35t1 -33q4 -215 82 -215h2q55 4 94 121q41 123 41 245v23q-4 90 -43 213q-41 125 -80 201l-41 78q-4 -33 -23 -185q-34 -243 -34 -413zM1329 1561q43 156 74 208q35 55 104 111q31 25 76 25q39 0 64.5 -16.5t25.5 -45.5 q-20 -106 -90 -262q-72 -168 -76 -180q-6 -14 -18 -15q-27 0 -80 54q-51 55 -80 121z" />
<glyph horiz-adv-x="1490" />
<glyph horiz-adv-x="1687" d="M18 -12q0 8 11 32l323 558h-2q-20 0 -67 -8.5t-72 -8.5q-14 0 -16 2q-14 14 -15 62q0 72 33 145q25 51 90 74q41 14 62 16q14 4 81 14l84 15q49 78 179 323q270 504 391 596q39 33 125 33t182 -29q94 -27 94 -49q0 -2 -2 -4q-92 -72 -92 -327q0 -193 49 -476 q53 -285 105 -501q53 -221 55 -246q18 -104 18 -146q0 -47 -16 -63q-20 -27 -137 -27q-170 0 -213 95q-27 123 -99 540q-350 0 -442 -18q-47 -78 -123 -215q-162 -295 -201 -322q-51 -37 -153 -67q-98 -31 -166 -31q-66 0 -66 33zM868 903q25 2 99 2q27 0 64.5 -1t66 -2 t30.5 -1q20 0 23 2q-2 53 -12 125q-12 139 -13 318z" />
<glyph horiz-adv-x="1734" d="M49 29q0 31 8 57l236 725q6 8 41 129q51 176 84 289q55 195 69 241q-106 -37 -143 -36q-25 0 -61 16q-45 25 -78 65.5t-33 77.5q0 25 21 39q129 90 333 144q207 53 420 53q461 0 539 -299q8 -31 8 -72q0 -139 -111 -262q-113 -125 -233 -176q111 -14 223 -74 q127 -57 213 -169.5t88 -272.5v-8q-12 -182 -217 -318q-113 -76 -274 -127q-362 -119 -975 -119l-14 -2h-19q-125 1 -125 99zM453 272q4 -2 16 -2q156 0 399 41q152 27 269.5 92.5t165.5 155.5q14 27 14 59q0 59 -58.5 106.5t-156.5 72.5q-180 47 -361 47q-106 0 -114 -15z M713 1102q203 14 329 123q125 111 136 207v16q0 131 -211 131q-41 0 -115 -8q-8 -33 -31 -103l-51 -170z" />
<glyph horiz-adv-x="1599" d="M10 451q0 246 111 505q78 186 190.5 346t229 262.5t231.5 166.5q213 121 379 135q10 2 43 2q141 0 236 -80q98 -76 98 -207q0 -199 -33 -332q-35 -143 -109 -293q-10 -18 -86 -30q-86 -10 -159 -11q-98 0 -113 15q-29 29 -29 49q0 16 25 59q84 152 137 443q-18 45 -65 45 q-86 0 -224 -119q-133 -115 -225 -246q-115 -168 -196.5 -352t-81.5 -317.5t94 -178.5q45 -18 108 -18q113 0 267 47q158 51 200 76q49 25 86 24q49 0 79 -42t30 -103q0 -100 -62 -141q-209 -129 -702 -156q-6 0 -24.5 -1t-22.5 -1q-211 0 -311.5 120t-100.5 333z" />
<glyph unicode="&#x85;" horiz-adv-x="1689" d="M29 78q0 33 22 78l389 1357l17 35h-25q-8 0 -26.5 1t-22.5 1q-180 33 -180 92q0 18 22 35q80 80 301 160q221 82 459 82h64q356 -23 497 -231q121 -176 121 -428q0 -145 -31 -283q-31 -133 -59 -201q-53 -117 -113 -211q-55 -92 -168 -215q-111 -119 -233 -200 q-135 -86 -323.5 -140.5t-395.5 -56.5l-12 -2h-21q-282 0 -282 127zM485 260q0 -14 35 -14q76 0 219 71q143 74 279 224q123 139 209 331q86 193 86 379q0 109 -37 207q-92 188 -342 189q-53 0 -119 -13q-6 -31 -10 -43q-37 -121 -119 -469q-86 -354 -141 -598z" />
<glyph horiz-adv-x="1703" d="M35 350q0 106 46 209t118 172q72 72 149 121q129 86 242 115q-90 10 -145.5 78.5t-55.5 173.5q0 125 81 264t239 270q104 86 230 136t237 50q139 0 213 -75q78 -78 77 -240q0 -133 -53 -270q-53 -133 -106 -158q-43 -16 -109 -16q-76 0 -151 16q-70 18 -70 43q0 10 12 18 q68 57 104.5 140.5t36.5 161.5q0 104 -53 104q-8 0 -20 -4q-143 -66 -240 -184q-94 -115 -94 -220q0 -55 27 -88q47 -59 122 -77q92 -18 191 -21q104 -2 182 -27q45 -14 45 -65t-37 -107q-37 -53 -77 -63q-27 -8 -78 -8q-10 0 -65.5 1t-74.5 1q-145 0 -265 -49.5 t-230 -173.5q-20 -23 -36.5 -70t-16.5 -92q0 -156 200 -156q37 0 49 2q152 2 318 70l184 80q113 53 199 88q45 16 67 16q53 0 79 -42t26 -107q0 -51 -12 -64q-109 -106 -433 -223q-319 -117 -587 -117q-414 0 -459 307q-6 43 -6 80z" />
<glyph horiz-adv-x="1404" d="M55 51q0 27 25 99l82 239q47 133 114 379q-16 0 -30.5 -1t-23.5 -1t-16 -1t-11 -3h-5q-2 0 -55 18q-37 14 -37 80q0 43 15.5 89t33.5 65q14 12 64.5 18t95.5 8h43q23 70 49 181q23 96 62 280l55 250q12 47 45 60.5t127 13.5h80q293 0 567 39q16 2 67.5 9t63.5 7 q55 0 56 -45q0 -31 -15 -66q-35 -141 -125 -202q-37 -23 -75 -31l-72 -14q-27 -6 -135 -13q-209 -12 -283 -12l-127 -438q16 6 135 8q129 6 207 27q29 4 31 4q53 0 93 -31t40 -72q0 -4 -4 -24q-25 -78 -113 -135q-88 -55 -139 -56h-6q-23 -2 -123 -2h-45q-115 0 -145 -6 q-59 -170 -134 -440q-80 -287 -81 -295q-29 -72 -158 -72q-76 0 -134.5 24.5t-58.5 61.5z" />
<glyph horiz-adv-x="1759" d="M176 547q0 166 45 348q51 193 158 379q102 176 221 299q117 119 228.5 195.5t193.5 97.5q100 27 190 26q238 0 306 -213q27 -78 26 -196q0 -186 -71 -289q-33 -45 -136 -45q-121 0 -161 33q-37 27 -37 67q0 23 14 74q14 55 14 96q0 47 -12 80q-18 45 -61 45 q-92 0 -246 -164q-156 -166 -219 -303q-115 -301 -115 -491q0 -131 39 -224q27 -63 100 -63q102 0 289 121q184 117 250 203l20 20q-92 -18 -161 -18h-33q-55 0 -107.5 8t-85 16t-39.5 8q-35 6 -34 72q0 61 28 129q27 68 64 68h2q12 -2 59 -2q82 0 207 11t217 21.5t94 10.5 h9q66 0 125 -96.5t59 -186.5q0 -53 -25 -76q-287 -311 -541.5 -467.5t-453.5 -156.5q-197 0 -308.5 149.5t-111.5 413.5z" />
<glyph horiz-adv-x="1816" d="M31 74q0 4 4 53q12 86 160 588q-4 0 -12.5 -2t-14.5 -2q-53 0 -84 69q-31 72 -31 135v19q2 25 43 47q37 20 72 27q37 8 115 10q150 512 157 614q23 190 373 191q39 0 39 -47q0 -27 -12 -78l-13 -64q-16 -119 -159 -612h63q293 0 428 12q123 426 184 598q68 190 373 191 q45 0 45 -60q0 -49 -30 -129q-57 -147 -220 -749q-156 -592 -190 -779q-25 -113 -205 -112q-88 0 -143 24q-49 25 -49 78q0 25 2 33q16 115 151 608q-70 0 -209 -8q-154 -6 -239 -6h-33l-74 -252q-96 -322 -104 -365q-12 -61 -82 -92.5t-166 -31.5q-72 0 -98 14 q-41 19 -41 78z" />
<glyph horiz-adv-x="897" d="M37 78q0 25 6 53q10 78 201 733q190 647 202 772q20 190 324 203h4q37 0 37 -47q0 -23 -12 -76l-15 -65q-14 -102 -202 -762q-182 -641 -207 -766q-12 -66 -75.5 -100.5t-147.5 -34.5q-49 0 -74 12q-41 19 -41 78z" />
<glyph horiz-adv-x="1349" d="M23 287q0 49 18 110q18 80 88 78t166 -90q2 0 14.5 -12.5t28.5 -27.5t22 -21q45 -35 84 -35q68 0 117 110q37 78 98 342q88 360 140 562q78 295 141 436q18 39 89 64.5t149 25.5q35 0 61 -6q82 -12 82 -64q0 -20 -14 -57q-78 -250 -177 -639q-117 -451 -180 -674 q-78 -274 -127 -334q-115 -145 -313 -145q-35 0 -64 4q-111 16 -223 82q-106 61 -162 143q-38 66 -38 148z" />
<glyph horiz-adv-x="1730" d="M16 80q0 8 3.5 40t3.5 44q10 66 180 647q176 590 233 868q12 57 101 97q96 43 188 51h8q37 0 62.5 -26.5t25.5 -63.5l-4 -21q-31 -145 -108 -401q-72 -236 -117 -365q49 20 135 142l100 147l152 223l203 291q59 68 192 68q47 0 109 -6q96 -10 96 -62q0 -29 -55 -106 q-66 -90 -199 -293l-174 -264q-66 -100 -166 -208t-207 -184l78 -88l88 -94q104 -109 191 -182q113 -92 131 -107l123 -84q33 -20 32 -65q0 -27 -20 -33l-58 -18l-61 -21q-96 -27 -154 -26q-80 0 -149 36q-111 57 -186 134q-76 80 -160 190q-86 115 -148 176 q-117 -410 -116 -436q0 -4 2 -4v-2l-4 -13q-12 -70 -183 -69l-118 8q-50 21 -50 80z" />
<glyph horiz-adv-x="1390" d="M80 86q0 33 8 59l234 801l59 211q66 236 119 402q66 201 98 231q14 14 68.5 28.5t105.5 14.5q31 0 59 -6q88 -20 89 -101q0 -39 -31 -129q-37 -72 -197 -634q-160 -573 -170 -637q0 -2 -3 -12.5t-3 -12.5q0 -16 43 -16q53 0 313 34q80 12 123 13q37 0 58 -13 q23 -12 28.5 -21t18.5 -46q0 -2 2 -8v-6q0 -45 -23.5 -93.5t-64.5 -76.5q-94 -4 -412 -54q-336 -49 -426 -49q-14 0 -43 4q-20 8 -36.5 42t-16.5 75z" />
<glyph horiz-adv-x="2312" d="M53 59q0 27 23 66l452 1585q37 88 265 90h10q127 0 145 -84l84 -430q80 -414 98 -463q0 -4 5 -4q16 0 131 166l270 393q162 231 260 332q74 88 336 92h2q39 0 70.5 -23.5t31.5 -58.5q0 -150 -133 -837q-133 -682 -135 -856q-4 -72 -217 -72h-4h-12q-57 0 -107 10 q-53 12 -53 64v6q0 201 57 444q59 252 117 449q57 193 57 262v2q-137 -170 -295 -379q-279 -360 -286 -367q-70 -45 -135 -51q-29 -4 -46 -4q-66 0 -116.5 16.5t-55.5 43.5q-14 20 -81 356q-66 344 -66 403v7q-74 -256 -172 -666q-100 -418 -102 -424q-27 -92 -107 -127 q-74 -31 -151 -31q-55 0 -82 15q-58 26 -58 75z" />
<glyph horiz-adv-x="1843" d="M68 0q16 59 149 590q119 475 209 811q88 338 115 356q29 18 123 41t161 23q115 0 115 -64q2 -123 98 -557q98 -430 105 -493q80 436 270 1050q39 70 178 70q82 0 148 -27q43 -18 43 -63q0 -35 -19 -72q-254 -920 -346 -1507q-16 -100 -28 -127q-8 -23 -50 -31 q-164 -25 -217 -25q-98 0 -139 56q-18 0 -135 499q-113 500 -123 600q-4 0 -43 -167q-49 -205 -107 -424q-61 -240 -126 -422q-31 -84 -142 -117q-88 -27 -172 -27q-68 0 -67 23v4z" />
<glyph horiz-adv-x="1456" d="M66 696q0 106 24 209q90 369 270 639q94 137 218 214t262 77q35 0 100 -10q217 -43 326.5 -212t109.5 -429q0 -156 -37 -318q-92 -416 -278 -626q-78 -88 -176 -150q-162 -92 -334 -92q-47 0 -59 2q-184 16 -306 225q-120 213 -120 471zM410 680q0 -137 43 -228.5 t104 -95.5h14q117 0 234 138q119 141 182 397q23 86 23 203q0 152 -43 258q-43 111 -121 116h-6q-94 0 -217 -153q-125 -156 -183 -393q-30 -119 -30 -242z" />
<glyph horiz-adv-x="1556" d="M37 68q0 25 12 73q35 154 125 496q102 375 156 563l86 307q-16 -2 -43 -7t-33 -5q-10 0 -47 10q-49 6 -77 44t-28 89q0 70 41 86q14 2 160 29q156 29 201 35q117 14 184 22q115 12 203 13q516 0 582 -373q8 -47 8 -109q2 -184 -95.5 -315t-257.5 -209q-137 -72 -393 -127 q-45 -10 -107.5 -21.5t-102.5 -19.5t-52 -12q-6 -6 -41 -127l-72 -266q-43 -158 -57 -195q-10 -14 -90 -34.5t-145 -20.5q-33 0 -58 6q-59 0 -59 68zM639 950q125 12 256 62q305 115 305 327v21q-25 186 -280 186q-35 0 -121 -10q-13 -37 -160 -586z" />
<glyph horiz-adv-x="1845" d="M49 512q0 266 160 592q164 338 418 534q254 199 577 199q76 0 148 -10q158 -23 266 -118t156.5 -228t48.5 -297q0 -248 -111 -488q-109 -238 -299 -370l64 -82q66 -82 98 -107q31 -31 31 -59q0 -49 -93 -80q-74 -37 -153 -37q-70 0 -105 43l-100 125q-315 -160 -573 -160 q-246 0 -389.5 145.5t-143.5 397.5zM440 602q0 -129 62.5 -199.5t171.5 -70.5q141 0 297 106q-129 205 -156 350q-4 29 -4 31q0 70 80 109q37 14 84 14q78 0 123 -45l131 -301q86 47 149 207q66 166 66 332q0 137 -53.5 229t-155.5 117q-27 6 -57 6q-180 0 -385 -187 q-207 -188 -271 -348q-82 -200 -82 -350z" />
<glyph horiz-adv-x="1859" d="M90 82q0 59 94 405q117 432 189 676l94 324l2 6l2 6q-37 2 -90 49q-47 41 -47 97q0 35 22 96q33 53 174 88q145 35 322 35q195 0 371 -47.5t260 -139.5q125 -125 125 -299q0 -164 -109 -309q-70 -92 -172 -149q-152 -88 -313 -103l157 -119q137 -100 324 -262 q166 -145 270 -274q59 -90 60 -119q0 -14 -7.5 -21.5t-26.5 -13.5t-28 -10q-61 -23 -141 -23q-70 0 -145 17q-68 14 -82 33q-72 102 -363 331q-289 229 -418 320q-35 -125 -65 -254q-18 -72 -70 -268q-27 -100 -63 -127q-33 -27 -133 -27q-57 0 -125 24.5t-68 57.5z M700 1057l88 10q94 12 109 14l94 19q109 25 189 92q82 70 82 174t-107 154q-100 47 -272 47q-6 0 -31 -1t-31 -1q-16 -80 -63 -271q-48 -182 -58 -237z" />
<glyph horiz-adv-x="1353" d="M0 463v2q0 106 6 143q10 39 43 80q53 68 139 68q78 0 95 -86q0 -2 8 -52l12 -59q20 -80 45 -125q45 -74 101 -108q98 -55 190 -68q123 0 207 78q82 76 88 174v16q0 27 -4 49.5t-14.5 41t-19.5 32t-29.5 26.5t-32 20t-41 17.5t-42 15.5t-49 15.5t-49.5 14.5 q-20 8 -74.5 25.5t-82.5 27.5q-80 31 -153 101.5t-116 168.5q-31 94 -30 170q0 215 262 490q96 80 220 125t243 45q164 0 247 -84q78 -78 78 -240q0 -133 -53 -270q-53 -133 -107 -158q-43 -16 -108 -16q-76 0 -152 16q-70 18 -69 43q0 10 12 19q68 57 104.5 140t36.5 161 q0 104 -53 104q-8 0 -20 -4q-156 -70 -244 -166t-88 -201q0 -45 16 -88q35 -84 172 -135l152 -53q70 -23 168 -64q121 -51 186.5 -148t65.5 -224q0 -68 -19 -137q-55 -203 -207.5 -314.5t-394.5 -116.5h-14q-270 0 -440.5 147.5t-190.5 340.5z" />
<glyph horiz-adv-x="1345" d="M47 1731q0 25 2 30q0 20 16.5 37t30 23t17.5 6q111 16 706 16q307 0 412 8q8 2 37 2q49 0 68.5 -16t19.5 -59q0 -74 -35 -136.5t-86 -72.5q-84 -14 -326 -15h-28q-86 -193 -174 -536q-86 -348 -142 -606q-59 -281 -78 -320q-27 -10 -79 -38.5t-96 -46t-83 -13.5 q-49 0 -90 24.5t-41 59.5q0 12 2 14q51 145 183 686q125 514 209 776q-274 0 -369 -24h-6q-33 0 -51 65q-19 68 -19 136z" />
<glyph horiz-adv-x="1597" d="M27 436q0 186 65 455q63 250 139 481q72 223 78 264q10 76 64 121q88 76 241 76q43 0 68 -6q37 0 37 -66q0 -20 -23 -123l-82 -245q-68 -201 -139 -473q-63 -240 -63 -390q0 -180 108 -180h2q203 8 314 180q53 82 96 220q39 117 78 286q12 51 77 373l50 250 q14 100 59 127q47 29 184 29h6q61 0 87 -7q37 -2 36 -30v-2q-10 -260 -127 -775q-94 -412 -161 -563q-117 -258 -347 -356q-184 -82 -487 -82q-360 0 -360 436z" />
<glyph horiz-adv-x="1570" d="M33 1667q31 20 78 66q104 94 141 94h6q6 0 15.5 1t15.5 1q63 0 80 -78q168 -874 313 -1259q154 418 319 825q162 399 197 440q59 78 240 86q2 2 18 2q35 0 63.5 -20.5t28.5 -55.5q0 -4 -4 -24q-88 -276 -211 -588q-72 -190 -129 -328l-164 -409l-155 -389 q-8 -25 -58.5 -42.5t-121.5 -17.5q-37 0 -66 4q-6 2 -20.5 3.5t-22.5 1.5q-45 2 -72 16q-49 18 -88 133q-23 80 -102 332l-111 366q-33 113 -94 367q-59 248 -96 473z" />
<glyph horiz-adv-x="2252" d="M43 1659q14 4 123 67q106 63 158 64h10q70 -16 102 -137q43 -141 84 -369q35 -178 78 -448q29 -182 41 -240q96 236 178 469l64 192l59 181q86 29 102 32q39 12 144 23h8q59 0 98 -94q20 -39 39 -131q6 -18 17.5 -71.5t15.5 -66.5q131 -479 131 -526h2l33 90 q14 37 51 150q88 295 238 846q20 8 71.5 37.5t101.5 50t91 16.5q27 0 51 -4q51 -8 51 -94q0 -45 -8 -80q-53 -293 -238 -813q-186 -530 -284 -717q-33 -57 -55.5 -78.5t-69.5 -32.5q-55 -12 -103 -12q-80 0 -139 37q-20 16 -51 170l-74 352q-37 188 -76 301 q-10 -27 -43 -118l-51 -150l-53 -145q-55 -145 -115 -269q-59 -127 -94 -141q-102 -45 -211 -45q-47 0 -78 8q-37 8 -54 32.5t-32 84.5q-18 59 -59 332q-37 256 -109 639q-65 350 -145 608z" />
<glyph horiz-adv-x="1814" d="M76 66q0 12 6 24q78 152 160 277q72 111 196 274q117 154 189 262l-97 213q-41 96 -100 225q-41 88 -111 220q-18 37 -18 75q0 100 105 174q53 35 108 35q84 0 127 -63q180 -270 299 -559l338 528q23 35 125 64q104 31 211 30q39 0 49 -2q29 -2 46 -27.5t17 -58.5 q0 -6 -14 -47q-86 -168 -182 -303q-100 -143 -217 -293q-115 -147 -158 -215l-6 -8q2 0 72 -156q156 -315 303 -477q18 -20 18 -47q0 -49 -53 -112.5t-129 -110.5q-20 -14 -47 -15q-59 0 -121 70q-80 88 -129 164q-55 84 -117 190q-57 100 -110 181q-113 -139 -164 -211 q-78 -109 -254 -367q-29 -41 -131 -41q-53 0 -119 16q-39 10 -65.5 36t-26.5 55z" />
<glyph horiz-adv-x="1341" d="M-41 1737q0 47 72 71q53 20 135 21q164 0 188 -62q25 -43 45 -141q23 -104 86 -295q68 -199 181 -416q27 90 67 263l68 262q23 88 59 194q33 96 66 142q12 43 149 43q47 0 86 -7q109 -29 109 -67l-4 -12q-213 -635 -283 -889q-84 -311 -190 -844q-14 -74 -146 -74 q-74 0 -141 25q-66 20 -70 49q59 348 117 535q-158 98 -297 407q-72 164 -111 260q-41 100 -104 287l-74 215q-8 15 -8 33z" />
<glyph horiz-adv-x="1689" d="M27 119q0 129 39 186q41 63 186 239.5t410 483.5q147 172 391 461q-98 0 -250 -12q-168 -10 -223 -11q-133 0 -242 21q-96 16 -143 151q-20 59 -21 109q0 66 43 65h4q266 -16 469 -16q223 0 426 19l174 18q129 14 154 16h10q106 0 180 -178q12 -29 13 -55q0 -61 -56 -117 q-86 -74 -563 -596q-469 -512 -518 -586q432 18 522 19q319 0 541 -37q41 -8 65.5 -65.5t24.5 -135.5q0 -41 -2 -51q-10 -53 -74 -53q-23 0 -51 6q-274 27 -571 27q-182 0 -453 -15q-289 -12 -451 -12q-34 6 -34 119z" />
<glyph horiz-adv-x="2351" d="M-211 188q0 104 162 185q96 47 231 202q135 158 203 314q35 100 58.5 186t32.5 130t15.5 79t6.5 37l-6 2q-4 2 -15 6l-20 8q-41 18 -45 23q-41 23 -65.5 69t-24.5 97q0 23 8 53q23 68 69 68q20 0 41 -15q20 -12 113 -41q8 14 27 92q14 55 59 211q41 141 70 211 q53 139 252 140q94 0 94 -174q0 -133 -35 -244l-80 -260q90 8 160 28q84 20 151 21q76 0 99 -17l8 -10q27 -33 26 -82q0 -100 -88 -168q-78 -57 -278 -57q-23 0 -79 2t-65 2q-4 0 -17 -1t-15 -1q-27 -74 -105 -280q-82 -217 -141 -400q-59 -184 -59 -260q0 -41 16 -51 q33 -25 88 -25q68 0 176 43q184 76 389 283q207 213 252 369q2 4 2 18q0 31 -30 106q-31 86 -33 127v25q0 100 45 184q45 88 121 88q2 0 30 -4q96 -27 144.5 -145.5t48.5 -222.5q0 -27 -2 -33q88 -82 246 -137q162 -55 219 -111q23 -18 22 -47q0 -39 -33.5 -92t-119.5 -160 q-88 -106 -88 -182q0 -20 10 -55q8 -33 45 -33q31 0 119 45t129 45q29 0 51 -23q27 -29 26 -77q0 -100 -102 -166q-170 -113 -379 -113h-8q-86 2 -127 18q-37 14 -78 82q-39 63 -39 152q0 98 47 227q25 53 60 102.5t56.5 75t21.5 35.5q0 29 -148 94q-47 -78 -123 -180 q-92 -123 -260 -254t-375 -241q-119 -63 -272 -93q-156 -29 -252 -28h-8q-86 2 -127 18q-37 14 -78 82q-39 63 -41 154l-82 -64q-121 -86 -213 -86q-61 0 -78 29q-16 42 -16 65z" />
<glyph horiz-adv-x="2473" d="M-211 188q0 104 162 185q96 47 231 202q135 158 203 314q35 100 58.5 186t32.5 130t15.5 79t6.5 37l-6 2q-4 2 -15 6l-20 8q-41 18 -45 23q-41 23 -65.5 69t-24.5 97q0 23 8 53q23 68 69 68q20 0 41 -15q20 -12 113 -41q8 14 27 92q14 55 59 211q41 141 70 211 q53 139 252 140q94 0 94 -174q0 -133 -35 -244l-80 -260q27 0 72 4q43 4 88 24q84 20 153 21h2q55 0 93 -41q37 -39 36 -68q0 -100 -88 -168q-78 -57 -278 -57q-23 0 -79 2t-65 2q-4 0 -17 -1t-15 -1q-14 -45 -103 -287q-98 -270 -143 -411q-59 -184 -59 -252q0 -35 16 -39 q31 -8 78 -8q127 0 276 75q152 76 279 185q113 96 219 223q94 117 117 195q2 4 2 18q0 29 -31 107q-31 86 -33 127v22q0 100 43 188q47 90 115 91q23 0 39 -9q100 -43 139 -166q43 -119 43 -237q0 -20 -4 -53q31 -27 152 -113q141 -100 180 -133q74 -55 135 -148 q61 -90 61 -184v-26q0 -106 -39 -197q-27 -66 -78 -117t-149 -85t-225 -34q-57 0 -125 7q-100 35 -178 94q-78 61 -78 133q0 33 18 65q37 53 72 54q29 0 105 -62q76 -61 137 -61h6h6q53 0 97 42t69 111q10 37 10 58q0 61 -43 110t-121 103q-66 47 -108 90q-31 -96 -92 -189 q-31 -53 -287 -254q-111 -90 -268 -178q-264 -145 -547 -145q-123 0 -211 25.5t-115 70.5q-39 63 -41 154l-82 -64q-121 -86 -213 -86q-61 0 -78 29q-16 42 -16 65z" />
<glyph horiz-adv-x="2902" d="M-211 188q0 104 162 185q109 49 256 237q150 186 196 353l17 69q12 53 55 93t86 55q41 14 86 14q127 0 148 -113q61 49 168 49q111 0 200 -61q84 -57 125 -178q39 -117 39 -242q0 -63 -10 -114q-8 -63 -47 -150q-35 -80 -90 -115q150 6 295 140q147 135 196 340l78 282 q16 53 58 93t83 54.5t86 14.5q127 0 148 -113q61 49 168 49q113 0 200 -61q84 -57 125 -178q39 -117 39 -242q0 -63 -10 -114q-8 -55 -37 -129q-29 -76 -53 -97q-14 -16 -14 -28q0 -14 22 -15h2q43 0 158 56q115 55 160 55q37 0 57 -31q18 -27 18 -74q0 -145 -233 -223 q-221 -74 -422 -74q-186 0 -350 68q-66 25 -74 70l-47 -148l-326 -1120q-23 -53 -73 -84t-111 -31q-35 0 -57 8q-86 29 -86 115q0 37 12 78q78 274 213 729q113 369 143 483l-32 -24q-170 -121 -486 -121q-221 0 -403 76q-66 25 -74 69l-49 -178q-20 -63 -111 -399 q-86 -324 -188 -557q-16 -33 -68 -68q-51 -37 -106 -37q-23 0 -35 4q-74 23 -74 152q0 63 17 123l141 487l92 312q55 174 90 331q-96 -84 -166 -133q-121 -86 -213 -86q-61 0 -78 29q-16 42 -16 65zM631 389l12 4l31 -14q47 -37 112 -37q94 0 144 70q51 72 51 170 q0 74 -35 143q-33 61 -98 61q-57 0 -103 -43q-57 -59 -104 -307q0 -2 -4 -23.5t-6 -23.5zM1960 389l12 4l31 -14q45 -37 113 -37q94 0 143 70q51 72 51 170q0 74 -35 143q-35 61 -98 61q-55 0 -102 -43q-59 -59 -105 -307q0 -2 -4 -23.5t-6 -23.5z" />
<glyph horiz-adv-x="1771" d="M-211 193q0 53 53 106q25 27 68 49q63 37 65 37q104 70 148 117q39 39 137 180q4 135 80 469q74 326 139 539q57 205 125 338q115 238 350 264h15q141 0 208.5 -112t67.5 -308q0 -195 -59 -404q-90 -223 -268 -467q-176 -240 -373 -397q-53 -178 -53 -272q6 -94 79 -94 q47 0 103 26q135 55 276 168q31 23 62 64l45 55q18 27 45 65q41 61 45 66q37 215 131 653q102 465 147 613q70 252 174 389q102 133 295 145h15q152 0 221 -131q70 -127 70 -332q0 -195 -56 -385q-94 -233 -329 -600q-229 -356 -408 -512q-29 -102 -29 -172v-18 q2 -76 58 -76q20 0 55 8q29 6 129 55q100 47 145 48.5t60 -37.5q14 -41 14 -70q0 -90 -113 -164q-180 -106 -370 -106h-37q-111 8 -148 33q-35 20 -63 81q-20 49 -21 97q0 8 5 41l4 26l-164 -118q-106 -74 -256 -117q-143 -43 -227 -43h-17q-111 8 -147 33q-35 20 -64 81 q-20 43 -20 97q0 35 8 67l-113 -88q-125 -88 -215 -88q-51 0 -76 31q-16 37 -16 70zM627 1057q168 211 249.5 415.5t81.5 370.5v8q-4 80 -30 80q-31 0 -70 -67q-39 -61 -51 -111zM1513 1057q176 221 281 516q104 299 104 465v4q-2 80 -30 80q-29 0 -70 -68q-39 -61 -51 -110 z" />
<glyph unicode="&#xa0;" horiz-adv-x="4892" d="M-211 193q0 84 98 145q90 51 199 139q113 94 168 154q166 170 334 200h14l10 3q63 0 99.5 -43t43.5 -94.5t16 -94.5t24 -43q18 2 75 82q55 74 117 176l64 98q20 29 65 65t80 48q72 23 119 23q98 0 172 -80q14 -14 31 -119q14 -78 32 -223l17 -131q35 0 137 159 q111 174 158 258l45 66l51 72q51 74 94 96q102 55 150 55q72 0 143 -104q23 -35 51 -185q12 -129 43 -286q33 -164 35 -211q23 -113 23 -191q0 -281 -244 -280q-4 0 -58 4q-66 14 -100 102q-35 90 -37 187q-2 66 -14 200q-8 100 -35 144q-29 -33 -72 -107l-92 -158 q-55 -92 -121 -167q-78 -90 -155 -142q-35 -23 -78 -22q-68 0 -131 39q-68 41 -76 77q-2 2 -31 74q-27 76 -28 92l-45 289q-27 -27 -136 -213q-111 -188 -213 -289q-74 -74 -184 -73q-94 0 -151 73q-29 41 -35 136q-4 53 -8 172q0 76 -15 77q-2 2 -6 2q-20 0 -84 -63 q-66 -63 -170 -145q-98 -78 -203 -121q-53 -20 -92 -21q-55 0 -84 49q-10 32 -10 50zM2546 608q0 74 65 152q68 78 172 78q27 0 35 -2q55 -16 85 -63.5t34 -93.5t11 -83t24 -37q20 4 80 109q57 96 124 227l70 127q20 29 65.5 64.5t79.5 48.5q72 23 119 22q98 0 172 -80 q14 -14 31 -119q14 -78 33 -223l16 -131q35 0 137 160q111 174 158 258l45 65l51 72q51 74 95 96q102 55 149 56q72 0 143 -105q23 -35 52 -184l20 -236q33 -317 41 -335q4 -4 12.5 -17.5t11.5 -18.5t10 -16.5t12 -16.5t11.5 -13.5t11.5 -12.5t12 -8t13 -6t13 -2q10 0 22 6 q61 31 105 31q31 0 45 -15q31 -49 30 -92q0 -102 -133 -180q-131 -76 -231 -80q-12 -2 -60 -2q-135 0 -227 92q-111 111 -111 449q0 72 5 141q-31 -35 -95 -164q-68 -137 -159 -280q-94 -147 -205 -236q-31 -25 -78 -24q-68 0 -131 39q-68 41 -76 79q-2 -8 -39 261 q-2 10 -2 12l-45 289q-18 -16 -146 -269.5t-220 -339.5q-31 -31 -92.5 -52t-123.5 -21q-119 0 -172 73q-33 41 -41 103q-10 72 -16 198q-6 117 -16 240v4q-2 4 -2 6z" />
<glyph unicode="&#xa1;" horiz-adv-x="3244" d="M-207 193q0 84 98 145q90 51 199 139q113 94 168 154q166 170 334 200q6 2 26 3q59 0 98.5 -34t51.5 -73t21.5 -72.5t17.5 -33.5q4 0 6 2q18 18 68 84l96 135l61 84q57 76 88 104q35 35 101 68q119 63 192 63q96 0 162 -96q41 -57 55 -147q8 -31 9 -127q0 -80 -17 -392 q-2 -20 -2 -98v-86q0 -160 -24 -215l-11 -20q-2 -4 -15 -11.5t-41 -12.5t-58 -5h-27q-180 8 -209 110q-35 80 -35 152q0 2 4 68q0 6 7 106q6 104 6 156q0 57 -6 57q-2 0 -5 -2l-194 -238q-172 -213 -287 -325q-66 -63 -186 -64q-125 0 -183 82q-18 25 -18 78 q0 59 26.5 159.5t26.5 121.5q0 14 -6 14q-2 2 -6 2q-16 0 -135 -123q-115 -127 -270 -190q-53 -20 -93 -21q-55 0 -84 49q-10 32 -10 50zM1724 154q0 106 17 280q18 160 35 211q23 55 71.5 102.5t87.5 51.5q6 2 31 2q59 0 101 -29t58.5 -63.5t31 -63.5t22.5 -29l8 5 q18 18 68 84l96 135l62 84q57 76 88 104q35 35 100 68q119 63 192 63q96 0 162 -96q39 -59 56 -148q6 -59 6 -118q0 -109 -19 -267q-16 -168 -16 -172q0 -14 2 -16q8 -39 47 -39q14 0 29 8l73 37q61 29 103 29q27 0 39 -15q41 -45 41 -92q0 -94 -140 -178q-135 -80 -229 -84 q-14 -2 -59 -2q-106 0 -180 31t-85 76q-41 94 -40.5 124.5t2.5 41.5q0 4 6 106q6 104 6 156q0 57 -8 57l-2 -2l-195 -238q-172 -213 -287 -325q-66 -63 -186 -64q-125 0 -182 82q-13 13 -13 103z" />
<glyph unicode="&#xa2;" horiz-adv-x="1712" d="M-211 188q0 104 162 185q96 47 231 202q135 158 203 314q35 100 58.5 186t32.5 130t15.5 79t6.5 37l-6 2q-4 2 -15 6l-20 8q-41 18 -45 23q-41 23 -65.5 69t-24.5 97q0 23 8 53q23 68 69 68q20 0 41 -15q20 -12 113 -41q8 14 27 92q14 55 59 211q41 141 70 211 q53 139 252 140q94 0 94 -174q0 -133 -35 -244l-80 -260q6 2 119 2l217 6q106 6 137 16q53 127 107 351q51 211 77 303q33 74 88.5 106.5t163.5 32.5q104 -6 105 -178q0 -166 -74 -379l-74 -219q14 0 107 10q82 12 123 12q47 0 61 -14q39 -39 39 -94.5t-47 -124.5 q-66 -51 -164 -66q-45 -8 -80 -12q-4 0 -33.5 -3t-48.5 -5q-14 0 -27.5 -1t-21.5 -2t-10 -1q-18 -57 -105 -283q-96 -260 -143 -412q-59 -190 -59 -268q0 -41 16 -51q18 -12 39 -12q39 0 121 45q82 43 121 45t53 -25q27 -29 27 -78q0 -100 -103 -166q-170 -113 -379 -112h-8 q-86 2 -127 18q-37 14 -78 82q-39 63 -41 154l-82 -64q-43 -29 -69 -43q-6 -6 -10 -8q-70 -47 -213 -96q-135 -43 -234 -43h-6q-86 2 -127 18q-37 14 -78 82q-39 63 -41 154l-82 -64q-121 -86 -213 -86q-61 0 -78 29q-16 42 -16 65zM537 344q0 -41 16 -51q18 -12 39 -12 q35 0 108 36q70 37 93 45l18 11q96 47 231 202q135 158 203 314q72 203 88 301q18 92 19 100q-45 -12 -310 -12q-137 0 -200 6q-27 -74 -105 -280q-82 -217 -141 -400q-59 -184 -59 -260z" />
<glyph unicode="&#xa3;" horiz-adv-x="2492" d="M-213 186q0 109 201 207q98 49 227 228q133 182 178 344q2 4 2 18q0 29 -30 107q-31 86 -33 127v22q0 100 43 188q47 90 114 91q23 0 39 -9q100 -43 140 -166q43 -119 43 -237q0 -20 -4 -53q31 -27 151 -113q141 -100 180 -133q74 -55 136 -148q61 -90 61 -184v-2 q94 94 178 229q88 137 123 263q2 4 2 18q0 29 -31 107q-31 86 -32 127v22q0 100 43 188q47 90 114 91q23 0 39 -9q100 -43 139 -166q43 -119 43 -237q0 -20 -4 -53q47 -39 125 -99q82 -59 156 -123q127 -100 217 -217.5t84 -220.5q0 -129 -42 -224t-115.5 -146.5t-159.5 -75 t-187 -23.5q-145 0 -274 39q-229 76 -230 201q0 33 21 72q29 35 72 34q37 0 133 -49q96 -47 145 -55q61 -12 109 -12q106 0 157 52t51 140q0 2 -4 47q-8 74 -71 137q-59 61 -154 125q-92 66 -129 105q-31 -96 -92 -189q-25 -39 -143 -172q-115 -127 -195 -194 q-152 -111 -258 -148q-127 -43 -305 -43q-84 0 -142 9q-100 35 -178 94q-78 61 -78 133q0 33 19 65q37 53 74 54q25 0 102.5 -61.5t136.5 -61.5h6h7q53 0 97 42t68 111q10 37 11 58q0 61 -43 110t-121 103q-66 47 -109 90q-31 -96 -92 -189q-23 -33 -149 -153 q-119 -113 -219 -197q-47 -43 -130 -88q-82 -41 -141 -41t-80 45q-12 24 -12 49z" />
<glyph unicode="&#xa4;" horiz-adv-x="2238" d="M8 870q0 80 53 138q96 104 244 141q51 10 158 22l149 19q45 8 158 14q211 12 459 92h2q4 0 4 -8q0 -14 -16 -69q-10 -33 -41 -123q-27 -76 -35 -113q-18 -43 -76 -76q-25 -12 -78 -18l-94 -12q-55 -6 -102 -7q-18 0 -113 4q-70 6 -98 7q-82 0 -144 -29q-14 -8 -14 -16 q0 -20 80 -35q82 -16 217 -31q127 -14 207 -29q70 -12 69 -51v-26v-19q0 -37 -3 -55.5t-15 -39t-39 -38.5q-84 -45 -197 -74q-25 -6 -61.5 -13t-57 -11t-48 -11.5t-43 -12.5t-33 -12t-28.5 -15.5t-17 -18.5q-6 -12 -6 -20q0 -25 43 -41.5t106 -16.5q43 0 84 10 q35 10 428 162q373 147 459 148h4q14 4 16 6h2l-24 6q-176 31 -234 70q-94 57 -94 178q0 109 70 180q66 86 198 137q20 12 78 25l72 14q41 8 88 15l86 12q45 8 158 14q211 12 458 92h2q4 0 5 -8q0 -14 -17 -70q-10 -33 -41 -122q-27 -76 -35 -113q-18 -43 -75 -76 q-25 -12 -78 -18l-94 -13q-68 -10 -172 -12q-205 -8 -297 -51q-14 -8 -15 -16q0 -20 80 -35q82 -16 217 -31q127 -14 207 -29q70 -12 70 -51v-26v-19q0 -37 -3 -55.5t-15.5 -39t-39.5 -38.5q-82 -45 -196 -74q-25 -6 -62 -13t-57.5 -11t-48 -11.5t-43 -12.5t-32.5 -12 t-28.5 -15.5t-17.5 -18.5q-6 -12 -6 -20q0 -25 43 -41.5t106 -16.5q43 0 84 10q182 49 300 107.5t214 153.5q16 16 58 16q47 0 91 -18.5t44 -45.5q0 -61 -121 -192q-121 -127 -211 -172q-258 -125 -571 -125q-375 0 -424 209q-106 -41 -201 -80q-109 -47 -143 -59 q-55 -20 -183 -45q-123 -25 -256 -25q-387 0 -428 225q-2 6 -2 33q0 57 37 116.5t96 102.5q92 70 195 115h2l-25 6q-176 31 -233 70q-119 69 -119 202z" />
<glyph unicode="&#xaa;" d="M51 371v37q0 84 19 163q31 129 82 222q51 100 133 188q78 78 172 133q80 45 157 60q33 4 58 4q53 0 80 -9q63 -16 125 -45q12 -2 22 -10q6 -4 21 -10q2 -2 10 -2h12q4 0 4 2q4 2 8 6t7 4q2 4 14 16q6 0 8 3q0 2 2 2l4 2h17q49 -10 65 -15q37 -10 57 -22q53 -29 78 -47 q31 -27 37 -35q23 -29 29 -55v-17q0 -31 -8 -47q-18 -39 -43 -84q-39 -70 -39 -74q-51 -111 -80 -231q-20 -80 -21 -137q0 -39 9 -58q8 -27 32 -41q16 -10 33 -10l33 10l4 2l4 3q6 4 10 8q4 0 9.5 3t9.5 5l4 4q18 6 41 0q18 -10 28 -29q20 -27 27 -73v-17q0 -33 -12 -59 q-16 -37 -60 -66q-27 -20 -79 -35q-45 -12 -93 -20q-35 -8 -104 -8h-14q-51 0 -103 8q-49 8 -74 25q-20 18 -22 20l-12 18l-4 9l-5 8l-53 -25l-63 -28q-27 -12 -76 -23q-76 -10 -115 -10t-76 6q-61 10 -116 39q-78 39 -125 117q-58 90 -68 215zM414 455q0 -20 2 -25 q8 -45 28 -68q12 -18 50 -34q12 -4 32.5 -4t26.5 2q74 8 139 80q27 29 45 55q18 25 39 110.5t25 196.5q0 18 -19 41q-16 23 -26 25q-14 10 -37 10h-12q-29 -4 -50 -17q-25 -12 -43 -28q-43 -29 -75 -72q-92 -111 -119 -221q-6 -24 -6 -51z" />
<glyph unicode="&#xab;" horiz-adv-x="1114" d="M150 674q0 4 1 15t1 13q4 27 53 78q61 61 108 101l90 80q41 41 93 106q8 8 24 8q41 0 88 -61q49 -59 49 -109v-2q0 -37 -28 -78q-33 -49 -97 -108l-71 -72q2 -4 48 -58.5t93 -123t49 -113.5q-6 -41 -61 -88q-53 -43 -98 -43q-25 0 -37 14q-57 109 -154 205 q-94 96 -133 158q-18 27 -18 78zM659 641v14l3 11q2 27 45 65q18 18 67 62.5t96.5 89.5t81.5 90q6 8 19 8q37 0 76 -51q41 -53 40 -92v-2q0 -49 -61 -111l-57 -59q-37 -35 -47 -48q0 -2 39.5 -49t77.5 -104t42 -94q-2 -35 -51 -76q-47 -37 -84 -37q-20 0 -28 14 q-53 92 -130 170q-82 86 -112 136q-17 22 -17 63z" />
<glyph unicode="&#xad;" horiz-adv-x="929" d="M41 743q0 10 2 15q0 39 43 53l12 4q131 25 334 25h70q182 0 262 8h37q47 0 66.5 -16.5t21.5 -53.5v-6q0 -70 -35 -135q-33 -61 -86 -72q-35 -6 -70 -6q-39 0 -82 2q-86 4 -118 4q-283 -2 -381 -39l-2 -2q-20 0 -47 82q-27 80 -27 137z" />
<glyph unicode="&#xb2;" horiz-adv-x="1409" d="M45 98q0 68 47 166q129 262 357 481q131 131 210 220q129 143 211 258q37 51 37 96q0 33 -17.5 52.5t-45.5 19.5q-10 0 -15 -2q-156 -33 -263 -95.5t-197 -175.5q-39 -49 -106.5 -23.5t-112.5 97.5q-20 27 -21 35q0 20 25 63q68 121 264 260q197 135 405 152q16 2 76 2 q82 0 152.5 -14.5t134 -47t99.5 -94t36 -145.5v-27q-10 -195 -227 -418q-129 -129 -197 -192q-100 -94 -201 -219q-98 -121 -155 -246q207 29 456 29q182 0 269 -23q68 -20 67 -123l-6 -92q-4 -33 -25.5 -56.5t-50.5 -23.5h-10q-125 20 -319 21q-395 0 -762 -70 q-6 -2 -29 -2q-63 0 -76 57q-10 51 -10 80z" />
<glyph unicode="&#xb3;" horiz-adv-x="1302" d="M84 229q0 55 59 97q63 41 121 41q37 0 47 -17q78 -96 211 -96q31 0 66 6q145 31 233 87t125 157q12 31 12 65q0 74 -49 133.5t-129 83.5q-18 6 -37 7q-20 0 -77.5 -12.5t-71.5 -14.5q-37 -4 -39 -4q-66 0 -110 44t-44 101q0 18 11 45q16 25 99 54.5t173 76.5t131 117 q27 35 27 80q0 47 -34 81t-87 44q-41 8 -70 8q-147 0 -270 -190q-16 -29 -59 -29q-59 0 -101 47q-20 23 -20 78q0 49 24 90q45 74 168 166q125 90 285 90q33 0 43 -2q211 -20 320.5 -136t109.5 -298v-19q-33 -174 -199 -252q115 -2 215 -118q98 -115 99 -269 q0 -178 -103 -315q-197 -256 -592 -287q-10 -2 -47 -2q-135 0 -252.5 59.5t-175.5 151.5q-12 26 -12 51z" />
<glyph unicode="&#xb4;" horiz-adv-x="561" d="M102 1735q0 20 9 34q16 20 100 113q74 82 106 131q43 66 105 187h6l6 2q39 0 78 -70q41 -72 49 -133q2 -4 2 -19q0 -29 -16.5 -63.5t-32.5 -48.5q-2 -2 -20.5 -24.5t-45 -54.5t-47.5 -54q-92 -104 -196 -129q-2 -2 -12 -2q-35 0 -63 42t-28 89z" />
<glyph unicode="&#xb9;" horiz-adv-x="1251" d="M68 117v26q0 84 90 119q61 27 172 27q12 0 50 -1t46 -1q33 0 41 2q4 86 72 344q80 303 137 497l67 228q-25 -8 -131 -68q-104 -55 -176 -55h-18q-53 2 -121 45q-66 43 -66 78q0 18 21 31q416 227 534 301q72 45 177 45q82 0 132 -30t50 -85q0 -16 -2 -23 q-29 -150 -185 -659q-156 -512 -165 -662q20 0 55 -2t92 -2q150 0 215 19q18 0 19 -39q0 -33 -23 -127q-20 -84 -21 -94q-18 -61 -116 -70q-49 -4 -78 -4q-111 0 -356.5 14.5t-341.5 14.5q-37 0 -70 -4q-2 -2 -14 -2q-66 0 -86 137z" />
<glyph unicode="&#xba;" horiz-adv-x="1398" d="M72 408q0 113 37 235q37 117 133 258q94 129 235 213q57 31 137 53q61 16 119 17q35 0 45 -2q14 -2 45 -6l51 -7l52 -10l65 -14l70 -23q37 -10 94 -30l107 -43q45 -14 77 -58q31 -45 31 -92q0 -43 -18 -80q-16 -41 -74 -59q-29 -11 -63 -11q-31 0 -66 9q2 -12 2 -53 q0 -113 -33 -213q-37 -125 -76 -201q-27 -57 -108 -152q-104 -117 -301 -151q-68 -10 -111 -11q-135 0 -258 62q-78 41 -135 133q-57 89 -57 236zM465 461q0 -53 10 -78q14 -33 53 -51q31 -8 50 -8q41 0 77 24q51 33 88 101q25 47 56 145q14 55 28 139q0 18 1 36.5t2 28 t1 13.5v14q-12 16 -20 23q-18 12 -43 12q-47 0 -113 -49q-139 -106 -190 -319v-31z" />
<glyph unicode="&#xbb;" horiz-adv-x="1064" d="M47 823q0 39 41 92.5t76 53.5q12 0 20 -8q53 -68 76 -91q12 -12 71.5 -62t96.5 -89q43 -39 45 -66q2 -4 2 -24q0 -41 -16 -64q-31 -49 -113 -135q-78 -82 -127 -170q-12 -14 -31 -14q-41 0 -86 37q-47 41 -49 75q2 29 26.5 72t52.5 78t53.5 65.5t27.5 32.5q-10 12 -47 47 l-60 60q-59 67 -59 110zM477 891v2q0 49 47 108q49 61 90 62q16 0 25 -8q51 -66 92 -107q20 -20 89 -79.5t110 -100.5q49 -51 53 -78q2 -6 2 -28q0 -51 -18 -78q-41 -63 -136 -158q-96 -98 -151 -205q-12 -14 -35 -14q-45 0 -100 43q-55 47 -62 88q4 45 50.5 113.5t92.5 123 t48 58.5l-12 12l-22 22l-24 23l-67 70q-72 86 -72 131z" />
<glyph unicode="&#xc0;" horiz-adv-x="1687" d="M18 -12q0 8 11 32l323 558h-2q-20 0 -67 -8.5t-72 -8.5q-14 0 -16 2q-14 14 -15 62q0 72 33 145q25 51 90 74q41 14 62 16q14 4 81 14l84 15q49 78 179 323q270 504 391 596q39 33 125 33t182 -29q94 -27 94 -49q0 -2 -2 -4q-92 -72 -92 -327q0 -193 49 -476 q53 -285 105 -501q53 -221 55 -246q18 -104 18 -146q0 -47 -16 -63q-20 -27 -137 -27q-170 0 -213 95q-27 123 -99 540q-350 0 -442 -18q-47 -78 -123 -215q-162 -295 -201 -322q-51 -37 -153 -67q-98 -31 -166 -31q-66 0 -66 33zM868 903q25 2 99 2q27 0 64.5 -1t66 -2 t30.5 -1q20 0 23 2q-2 53 -12 125q-12 139 -13 318zM995 2224q0 68 20.5 115t57.5 47h2q18 4 83 -52.5t151 -113.5t155 -53q16 -16 17 -45q0 -45 -31 -87t-68 -42h-4q-129 0 -248 47q-115 49 -129 123q-6 24 -6 61z" />
<glyph unicode="&#xc1;" horiz-adv-x="1687" d="M18 -12q0 8 11 32l323 558h-2q-20 0 -67 -8.5t-72 -8.5q-14 0 -16 2q-14 14 -15 62q0 72 33 145q25 51 90 74q41 14 62 16q14 4 81 14l84 15q49 78 179 323q270 504 391 596q39 33 125 33t182 -29q94 -27 94 -49q0 -2 -2 -4q-92 -72 -92 -327q0 -193 49 -476 q53 -285 105 -501q53 -221 55 -246q18 -104 18 -146q0 -47 -16 -63q-20 -27 -137 -27q-170 0 -213 95q-27 123 -99 540q-350 0 -442 -18q-47 -78 -123 -215q-162 -295 -201 -322q-51 -37 -153 -67q-98 -31 -166 -31q-66 0 -66 33zM868 903q25 2 99 2q27 0 64.5 -1t66 -2 t30.5 -1q20 0 23 2q-2 53 -12 125q-12 139 -13 318zM1085 2093q0 18 15 33q39 23 119.5 61.5t89.5 42.5q94 49 239 178q63 -2 64 -159q0 -53 -8 -78q-4 -29 -35 -60.5t-58 -44.5q-164 -78 -286 -77q-35 0 -45 2q-33 4 -64 37.5t-31 64.5z" />
<glyph unicode="&#xc2;" horiz-adv-x="1687" d="M18 -12q0 8 11 32l323 558h-2q-20 0 -67 -8.5t-72 -8.5q-14 0 -16 2q-14 14 -15 62q0 72 33 145q25 51 90 74q41 14 62 16q14 4 81 14l84 15q49 78 179 323q270 504 391 596q39 33 125 33t182 -29q94 -27 94 -49q0 -2 -2 -4q-92 -72 -92 -327q0 -193 49 -476 q53 -285 105 -501q53 -221 55 -246q18 -104 18 -146q0 -47 -16 -63q-20 -27 -137 -27q-170 0 -213 95q-27 123 -99 540q-350 0 -442 -18q-47 -78 -123 -215q-162 -295 -201 -322q-51 -37 -153 -67q-98 -31 -166 -31q-66 0 -66 33zM868 903q25 2 99 2q27 0 64.5 -1t66 -2 t30.5 -1q20 0 23 2q-2 53 -12 125q-12 139 -13 318zM926 2021q0 18 10 29q82 55 149 133q53 63 113 115q29 23 78 22h8q27 0 70 -36q47 -39 92 -84q90 -82 172 -134q12 -14 12 -30q0 -33 -32.5 -66t-67.5 -35q-2 0 -12.5 -1t-12.5 -1q-51 0 -92 19q-41 23 -90 71l-53 58 q-27 -18 -64 -64q-80 -92 -170 -92h-6q-37 2 -70.5 32.5t-33.5 63.5z" />
<glyph unicode="&#xc3;" horiz-adv-x="1687" />
<glyph unicode="&#xc4;" horiz-adv-x="1687" d="M18 -12q0 8 11 32l323 558h-2q-20 0 -67 -8.5t-72 -8.5q-14 0 -16 2q-14 14 -15 62q0 72 33 145q25 51 90 74q41 14 62 16q14 4 81 14l84 15q49 78 179 323q270 504 391 596q39 33 125 33t182 -29q94 -27 94 -49q0 -2 -2 -4q-92 -72 -92 -327q0 -193 49 -476 q53 -285 105 -501q53 -221 55 -246q18 -104 18 -146q0 -47 -16 -63q-20 -27 -137 -27q-170 0 -213 95q-27 123 -99 540q-350 0 -442 -18q-47 -78 -123 -215q-162 -295 -201 -322q-51 -37 -153 -67q-98 -31 -166 -31q-66 0 -66 33zM868 903q25 2 99 2q27 0 64.5 -1t66 -2 t30.5 -1q20 0 23 2q-2 53 -12 125q-12 139 -13 318zM1067 1995q0 12 2 14l27 90l30 99q41 88 123 108q4 2 17 2q43 0 43 -78q0 -84 -31 -166q-33 -94 -154 -129q-2 0 -4 -1t-4 -1q-18 0 -33.5 19.5t-15.5 42.5zM1411 2032q0 12 2 14q2 8 12.5 41t10.5 37l10 37q25 61 29 67 q39 80 131 121q16 4 18 4q45 0 45 -100q0 -63 -14 -113q-41 -129 -160 -178q-4 -2 -16 -2q-25 0 -46.5 22.5t-21.5 49.5z" />
<glyph unicode="&#xc6;" horiz-adv-x="1687" d="M18 -12q0 8 11 32l323 558h-2q-20 0 -67 -8.5t-72 -8.5q-14 0 -16 2q-14 14 -15 62q0 72 33 145q25 51 90 74q41 14 62 16q14 4 81 14l84 15q49 78 179 323q270 504 391 596q59 49 196 50q88 0 146.5 -23t58.5 -59q0 -12 -2 -17q-20 -47 -36.5 -135t-23.5 -165 t-13.5 -140.5t-6.5 -65.5q162 285 357 435q84 66 174 104q133 59 293 76q10 2 53 2q137 0 224 -68.5t93 -191.5v-11q0 -119 -71 -278q-70 -156 -150 -209q-37 -16 -127 -16q-176 0 -176 67q0 8 2 11q16 47 90 143q74 98 74 141q0 18 -2 23q-20 45 -66 45q-86 0 -223 -119 q-141 -123 -225 -246q-20 -27 -45 -78q-2 -2 -47 -104l-37 -88q424 23 737 92q6 2 25 2q61 0 61 -78q0 -61 -33 -121q-35 -61 -78 -73q-406 -102 -823 -111q-10 -68 -10 -102q0 -201 162 -234q6 -2 28 -2q141 0 512 199q51 27 90 26q61 0 100.5 -51t39.5 -116 q0 -78 -49 -109q-209 -127 -615 -213q-66 -10 -123 -10q-84 0 -159.5 19.5t-148.5 62.5t-116 127t-43 198v72q2 37 2 90v49q-350 0 -442 -18q-47 -78 -123 -215q-162 -295 -201 -322q-51 -37 -153 -67q-98 -31 -166 -31q-66 0 -66 33zM868 903q25 2 99 2q27 0 64.5 -1t66 -2 t30.5 -1q20 0 23 2q-2 53 -12 125q-12 139 -13 318z" />
<glyph unicode="&#xc7;" horiz-adv-x="1591" d="M57 455q0 242 111 501q78 186 190.5 346t229.5 262.5t231 166.5q213 121 379 135q10 2 43 2q139 0 236 -80q98 -76 98 -207q0 -201 -33 -334q-35 -143 -108 -291q-8 -18 -88 -30q-76 -12 -158 -13q-96 0 -113 17q-29 29 -28 49q0 16 24 59q84 152 137 443q-18 45 -65 45 q-84 0 -223 -121q-141 -123 -226 -246q-113 -162 -194 -348q-84 -190 -84 -319q0 -135 94 -179q43 -18 108 -18q78 0 197 29q162 43 270 92q45 27 84 26q51 0 81 -41t30 -104q0 -100 -61 -141q-180 -109 -560 -150q-12 0 -29.5 -16.5t-25.5 -34.5l-8 -16l43 -13 q41 -10 84 -41.5t43 -83.5l-4 -28q-35 -147 -187 -199q-117 -39 -249 -39q-27 0 -55.5 2t-32.5 2h-5q-78 29 -90 88q-2 10 -2 29v12q2 25 31 52.5t49 27.5h6q102 -29 185 -29q113 0 129 54q2 8 4 18v6q0 27 -25.5 39t-56.5 15.5t-56.5 15.5t-25.5 37q0 14 18 47t19 43 q0 6 -4 6q-182 18 -269.5 138t-87.5 317z" />
<glyph unicode="&#xc8;" horiz-adv-x="1703" d="M35 350q0 106 46 209t118 172q72 72 149 121q129 86 242 115q-90 10 -145.5 78.5t-55.5 173.5q0 125 81 264t239 270q104 86 230 136t237 50q139 0 213 -75q78 -78 77 -240q0 -133 -53 -270q-53 -133 -106 -158q-43 -16 -109 -16q-76 0 -151 16q-70 18 -70 43q0 10 12 18 q68 57 104.5 140.5t36.5 161.5q0 104 -53 104q-8 0 -20 -4q-143 -66 -240 -184q-94 -115 -94 -220q0 -55 27 -88q47 -59 122 -77q92 -18 191 -21q104 -2 182 -27q45 -14 45 -65t-37 -107q-37 -53 -77 -63q-27 -8 -78 -8q-10 0 -65.5 1t-74.5 1q-145 0 -265 -49.5 t-230 -173.5q-20 -23 -36.5 -70t-16.5 -92q0 -156 200 -156q37 0 49 2q152 2 318 70l184 80q113 53 199 88q45 16 67 16q53 0 79 -42t26 -107q0 -51 -12 -64q-109 -106 -433 -223q-319 -117 -587 -117q-414 0 -459 307q-6 43 -6 80zM946 2257q0 68 20.5 115t57.5 47h2 q18 4 83 -52.5t151 -114t155 -52.5q16 -16 17 -46q0 -45 -31 -87t-68 -42h-4q-129 0 -248 48q-115 49 -129 122q-6 25 -6 62z" />
<glyph unicode="&#xc9;" horiz-adv-x="1703" d="M35 350q0 106 46 209t118 172q72 72 149 121q129 86 242 115q-90 10 -145.5 78.5t-55.5 173.5q0 125 81 264t239 270q104 86 230 136t237 50q139 0 213 -75q78 -78 77 -240q0 -133 -53 -270q-53 -133 -106 -158q-43 -16 -109 -16q-76 0 -151 16q-70 18 -70 43q0 10 12 18 q68 57 104.5 140.5t36.5 161.5q0 104 -53 104q-8 0 -20 -4q-143 -66 -240 -184q-94 -115 -94 -220q0 -55 27 -88q47 -59 122 -77q92 -18 191 -21q104 -2 182 -27q45 -14 45 -65t-37 -107q-37 -53 -77 -63q-27 -8 -78 -8q-10 0 -65.5 1t-74.5 1q-145 0 -265 -49.5 t-230 -173.5q-20 -23 -36.5 -70t-16.5 -92q0 -156 200 -156q37 0 49 2q152 2 318 70l184 80q113 53 199 88q45 16 67 16q53 0 79 -42t26 -107q0 -51 -12 -64q-109 -106 -433 -223q-319 -117 -587 -117q-414 0 -459 307q-6 43 -6 80zM889 2122q0 20 14 32q39 23 120 62t89 43 q94 49 240 178q29 -2 46 -48t17 -112q0 -37 -8 -77q-4 -29 -35 -61t-57 -44q-164 -78 -287 -78q-35 0 -45 2q-35 6 -64.5 39t-29.5 64z" />
<glyph unicode="&#xca;" horiz-adv-x="1703" d="M35 350q0 106 46 209t118 172q72 72 149 121q129 86 242 115q-90 10 -145.5 78.5t-55.5 173.5q0 125 81 264t239 270q104 86 230 136t237 50q139 0 213 -75q78 -78 77 -240q0 -133 -53 -270q-53 -133 -106 -158q-43 -16 -109 -16q-76 0 -151 16q-70 18 -70 43q0 10 12 18 q68 57 104.5 140.5t36.5 161.5q0 104 -53 104q-8 0 -20 -4q-143 -66 -240 -184q-94 -115 -94 -220q0 -55 27 -88q47 -59 122 -77q92 -18 191 -21q104 -2 182 -27q45 -14 45 -65t-37 -107q-37 -53 -77 -63q-27 -8 -78 -8q-10 0 -65.5 1t-74.5 1q-145 0 -265 -49.5 t-230 -173.5q-20 -23 -36.5 -70t-16.5 -92q0 -156 200 -156q37 0 49 2q152 2 318 70l184 80q113 53 199 88q45 16 67 16q53 0 79 -42t26 -107q0 -51 -12 -64q-109 -106 -433 -223q-319 -117 -587 -117q-414 0 -459 307q-6 43 -6 80zM768 2136q0 18 10 29q82 55 150 133 q53 63 112 115q29 23 78 22h8q27 0 70 -37q47 -39 92 -84q90 -82 172 -133q12 -14 13 -31q0 -33 -33 -65.5t-68 -34.5q-4 0 -12 -1t-12 -1q-53 0 -93 18q-39 23 -90 72l-53 57q-27 -18 -63 -63q-80 -92 -170 -92h-7q-37 2 -70.5 32.5t-33.5 63.5z" />
<glyph unicode="&#xcb;" horiz-adv-x="1703" d="M35 350q0 106 46 209t118 172q72 72 149 121q129 86 242 115q-90 10 -145.5 78.5t-55.5 173.5q0 125 81 264t239 270q104 86 230 136t237 50q139 0 213 -75q78 -78 77 -240q0 -133 -53 -270q-53 -133 -106 -158q-43 -16 -109 -16q-76 0 -151 16q-70 18 -70 43q0 10 12 18 q68 57 104.5 140.5t36.5 161.5q0 104 -53 104q-8 0 -20 -4q-143 -66 -240 -184q-94 -115 -94 -220q0 -55 27 -88q47 -59 122 -77q92 -18 191 -21q104 -2 182 -27q45 -14 45 -65t-37 -107q-37 -53 -77 -63q-27 -8 -78 -8q-10 0 -65.5 1t-74.5 1q-145 0 -265 -49.5 t-230 -173.5q-20 -23 -36.5 -70t-16.5 -92q0 -156 200 -156q37 0 49 2q152 2 318 70l184 80q113 53 199 88q45 16 67 16q53 0 79 -42t26 -107q0 -51 -12 -64q-109 -106 -433 -223q-319 -117 -587 -117q-414 0 -459 307q-6 43 -6 80zM891 2081q0 12 2 14l27 90l30 99 q41 88 123 108q4 2 17 2q43 0 43 -78q0 -84 -31 -166q-33 -94 -154 -129q-2 0 -4 -1t-4 -1q-18 0 -33.5 19.5t-15.5 42.5zM1235 2118q0 12 2 14q2 8 12.5 41t10.5 37l10 37q25 61 28 67q39 80 132 121q16 4 18 4q45 0 45 -100q0 -63 -14 -113q-41 -129 -160 -178 q-4 -2 -16 -2q-25 0 -46.5 22.5t-21.5 49.5z" />
<glyph unicode="&#xcc;" horiz-adv-x="897" d="M37 78q0 25 6 53q10 78 201 733q190 647 202 772q20 190 375 191q39 0 39 -47q0 -23 -12 -76l-14 -66q-14 -102 -203 -761q-182 -641 -207 -766q-12 -61 -81 -93t-165 -32q-70 0 -100 14q-41 19 -41 78zM399 2234q0 68 20.5 115t57.5 47h2q18 4 82 -52t151 -113.5 t156 -53.5q16 -16 17 -45q0 -45 -31 -87t-68 -42h-6q-127 0 -245 47q-113 49 -129 123q-7 24 -7 61z" />
<glyph unicode="&#xcd;" horiz-adv-x="897" d="M37 78q0 25 6 53q10 78 201 733q190 647 202 772q20 190 375 191q39 0 39 -47q0 -23 -12 -76l-14 -66q-14 -102 -203 -761q-182 -641 -207 -766q-12 -61 -81 -93t-165 -32q-70 0 -100 14q-41 19 -41 78zM459 2068q0 20 14 33q41 23 121 62t86 43q98 51 242 178 q29 -2 46 -48t17 -112q0 -37 -8 -78q-4 -29 -35 -60.5t-57 -43.5q-2 0 -16.5 -7t-35 -15.5t-34.5 -12.5q-135 -43 -203 -43q-33 0 -43 2q-35 4 -64.5 37.5t-29.5 64.5z" />
<glyph unicode="&#xce;" horiz-adv-x="897" d="M37 78q0 25 6 53q10 78 201 733q190 647 202 772q20 190 375 191q39 0 39 -47q0 -23 -12 -76l-14 -66q-14 -102 -203 -761q-182 -641 -207 -766q-12 -61 -81 -93t-165 -32q-70 0 -100 14q-41 19 -41 78zM358 2089q0 10 11 27q66 47 153.5 139t108.5 108q29 25 78 25 q6 0 8 -2q23 0 69 -35q47 -39 93 -84q106 -96 172 -135q12 -12 12 -31q0 -31 -32 -64.5t-68 -35.5h-23q-55 0 -93 18.5t-91 73.5l-54 53q-27 -18 -63 -63q-80 -92 -170 -92h-6q-37 2 -71 33.5t-34 64.5z" />
<glyph unicode="&#xcf;" horiz-adv-x="897" d="M37 78q0 25 6 53q10 78 201 733q190 647 202 772q20 190 375 191q39 0 39 -47q0 -23 -12 -76l-14 -66q-14 -102 -203 -761q-182 -641 -207 -766q-12 -61 -81 -93t-165 -32q-70 0 -100 14q-41 19 -41 78zM438 1999q0 12 2 14l27 90l31 99q41 88 123 108q4 2 16 2 q43 0 43 -78q0 -84 -31 -166q-35 -94 -153 -129l-4 -2h-5q-18 0 -33.5 19.5t-15.5 42.5zM782 2036q0 12 2 14q2 8 12.5 41t10.5 37l10 37q25 61 29 67q39 80 131 121q16 4 18 4q45 0 45 -100q0 -63 -14 -113q-39 -129 -160 -178q-4 -2 -16 -2q-25 0 -46.5 22.5t-21.5 49.5z " />
<glyph unicode="&#xd1;" horiz-adv-x="1681" d="M-113 2288q0 35 21 61q63 84 158.5 132.5t183.5 48.5q51 0 120.5 -51.5t123.5 -51.5h4q53 0 128.5 45t123.5 45q25 0 32 -2q78 -23 78 -125q0 -23 -6 -47q-14 -84 -129 -129q-117 -51 -217 -51q-6 0 -72 4q-39 2 -96 51q-53 47 -96 47h-2q-51 0 -125 -49 q-72 -47 -115 -47q-16 0 -33 4q-35 8 -58.5 42t-23.5 73zM-391 1522q0 72 55 110q211 164 381 256q178 96 387 127q37 6 70 6q125 0 168 -116q14 -35 14 -95v-16q-18 -244 -143 -672q-119 -418 -156 -590l4 13q6 14 17.5 40.5t25.5 55.5q51 113 105 219q51 98 153 281 q209 367 529 737q90 96 211 96q98 0 173.5 -61.5t75.5 -138.5q0 -111 -67 -359q-68 -248 -135 -534q-66 -287 -66 -478q0 -109 21 -188v-10q0 -96 -64.5 -148.5t-169.5 -56.5h-8q-170 0 -170 203q0 334 80 616q31 98 80 275q45 166 73 295q-139 -145 -260 -336 q-117 -186 -196 -348q-80 -168 -179 -340q-106 -184 -206 -304q-82 -70 -240 -69q-41 0 -104 8q-63 10 -96 54t-33 104q0 31 6 51q49 201 139 518q82 287 117 444q41 164 61 345l10 94v16q0 33 -28 33q-80 0 -408 -256q-33 -27 -80 -27q-76 0 -116 60q-31 39 -31 86z" />
<glyph unicode="&#xd2;" horiz-adv-x="1456" d="M66 696q0 106 24 209q90 369 270 639q94 137 218 214t262 77q35 0 100 -10q217 -43 326.5 -212t109.5 -429q0 -156 -37 -318q-92 -416 -278 -626q-78 -88 -176 -150q-162 -92 -334 -92q-47 0 -59 2q-184 16 -306 225q-120 213 -120 471zM410 680q0 -137 43 -228.5 t104 -95.5h14q117 0 234 138q119 141 182 397q23 86 23 203q0 152 -43 258q-43 111 -121 116h-6q-94 0 -217 -153q-125 -156 -183 -393q-30 -119 -30 -242zM639 2175q0 68 20.5 115t57.5 47h2q18 4 81.5 -52.5t150.5 -113.5t157 -53q16 -16 16 -45q0 -45 -30.5 -87 t-67.5 -42h-6q-127 0 -246 47q-115 49 -129 123q-6 24 -6 61z" />
<glyph unicode="&#xd3;" horiz-adv-x="1456" d="M66 696q0 106 24 209q90 369 270 639q94 137 218 214t262 77q35 0 100 -10q217 -43 326.5 -212t109.5 -429q0 -156 -37 -318q-92 -416 -278 -626q-78 -88 -176 -150q-162 -92 -334 -92q-47 0 -59 2q-184 16 -306 225q-120 213 -120 471zM410 680q0 -137 43 -228.5 t104 -95.5h14q117 0 234 138q119 141 182 397q23 86 23 203q0 152 -43 258q-43 111 -121 116h-6q-94 0 -217 -153q-125 -156 -183 -393q-30 -119 -30 -242zM811 2025q0 20 14 33q41 23 121 62t86 43q98 51 242 178q29 -2 46 -48t17 -112q0 -37 -8 -78q-4 -29 -34.5 -60.5 t-57.5 -43.5q-164 -78 -287 -78q-35 0 -45 2q-35 4 -64.5 37.5t-29.5 64.5z" />
<glyph unicode="&#xd4;" horiz-adv-x="1456" d="M66 696q0 106 24 209q90 369 270 639q94 137 218 214t262 77q35 0 100 -10q217 -43 326.5 -212t109.5 -429q0 -156 -37 -318q-92 -416 -278 -626q-78 -88 -176 -150q-162 -92 -334 -92q-47 0 -59 2q-184 16 -306 225q-120 213 -120 471zM410 680q0 -137 43 -228.5 t104 -95.5h14q117 0 234 138q119 141 182 397q23 86 23 203q0 152 -43 258q-43 111 -121 116h-6q-94 0 -217 -153q-125 -156 -183 -393q-30 -119 -30 -242zM526 2046q0 18 11 29q82 55 149 133q53 63 113 114q27 23 78 23h8q27 0 69 -37q47 -39 93 -84q90 -82 172 -133 q12 -12 12 -31q0 -33 -33 -65.5t-68 -34.5h-24q-76 0 -139 51q-27 25 -97 94q-27 -18 -63 -63q-80 -92 -170 -92h-6q-37 2 -71 33.5t-34 62.5z" />
<glyph unicode="&#xd5;" horiz-adv-x="1456" />
<glyph unicode="&#xd6;" horiz-adv-x="1456" d="M66 696q0 106 24 209q90 369 270 639q94 137 218 214t262 77q35 0 100 -10q217 -43 326.5 -212t109.5 -429q0 -156 -37 -318q-92 -416 -278 -626q-78 -88 -176 -150q-162 -92 -334 -92q-47 0 -59 2q-184 16 -306 225q-120 213 -120 471zM410 680q0 -137 43 -228.5 t104 -95.5h14q117 0 234 138q119 141 182 397q23 86 23 203q0 152 -43 258q-43 111 -121 116h-6q-94 0 -217 -153q-125 -156 -183 -393q-30 -119 -30 -242zM668 1995q0 12 2 14l26 90l31 99q41 88 123 108q4 2 16 2q43 0 43 -78q0 -84 -30 -166q-35 -94 -154 -129l-4 -2h-4 q-18 0 -33.5 19.5t-15.5 42.5zM1012 2032q0 12 2 14q2 8 12 41t10 37l11 37q25 61 28 67q39 80 131 121q16 4 19 4q45 0 45 -100q0 -63 -15 -113q-39 -129 -159 -178q-4 -2 -17 -2q-25 0 -46 22.5t-21 49.5z" />
<glyph unicode="&#xd9;" horiz-adv-x="1597" d="M27 436q0 186 65 455q63 250 139 481q72 223 78 264q23 190 373 191q39 0 39 -47q0 -27 -12 -78l-13 -64q-2 -31 -78 -249q-72 -211 -141 -465q-66 -252 -65 -394q0 -180 108 -180h2q203 8 314 180q53 82 96 220q39 117 78 286q12 51 77 373l50 250q14 100 59 127 q47 29 184 29h6q61 0 87 -7q37 -2 36 -30q-4 -229 -127 -777q-94 -412 -161 -563q-117 -258 -347 -356q-184 -82 -487 -82q-360 0 -360 436zM750 2198q0 68 20.5 114.5t56.5 46.5h2q18 4 82 -52t151 -113.5t157 -53.5q16 -16 16 -45q0 -45 -30.5 -87t-67.5 -42h-7 q-129 0 -245 47q-115 47 -129 123q-6 25 -6 62z" />
<glyph unicode="&#xda;" horiz-adv-x="1597" d="M27 436q0 186 65 455q63 250 139 481q72 223 78 264q23 190 373 191q39 0 39 -47q0 -27 -12 -78l-13 -64q-2 -31 -78 -249q-72 -211 -141 -465q-66 -252 -65 -394q0 -180 108 -180h2q203 8 314 180q53 82 96 220q39 117 78 286q12 51 77 373l50 250q14 100 59 127 q47 29 184 29h6q61 0 87 -7q37 -2 36 -30q-4 -229 -127 -777q-94 -412 -161 -563q-117 -258 -347 -356q-184 -82 -487 -82q-360 0 -360 436zM774 2003q0 20 14 33q41 23 121 61.5t86 42.5q98 51 242 178q29 -2 46 -48t17 -111q0 -37 -8 -78q-4 -29 -34.5 -60.5t-57.5 -44.5 q-2 0 -16.5 -7t-35 -15t-34.5 -12q-135 -43 -203 -44q-33 0 -43 3q-35 4 -64.5 37.5t-29.5 64.5z" />
<glyph unicode="&#xdb;" horiz-adv-x="1597" d="M27 436q0 186 65 455q63 250 139 481q72 223 78 264q23 190 373 191q39 0 39 -47q0 -27 -12 -78l-13 -64q-2 -31 -78 -249q-72 -211 -141 -465q-66 -252 -65 -394q0 -180 108 -180h2q203 8 314 180q53 82 96 220q39 117 78 286q12 51 77 373l50 250q14 100 59 127 q47 29 184 29h6q61 0 87 -7q37 -2 36 -30q-4 -229 -127 -777q-94 -412 -161 -563q-117 -258 -347 -356q-184 -82 -487 -82q-360 0 -360 436zM688 2071q0 18 10 28q82 55 150 133q53 63 113 115q29 23 77 23h9q27 0 69 -37q47 -39 92 -84q90 -82 172 -133q12 -14 13 -31 q0 -33 -33 -65.5t-68 -34.5q-2 0 -12 -1.5t-12 -1.5q-51 0 -92 19q-41 23 -91 72l-53 57q-27 -18 -63 -64q-80 -92 -170 -92h-6q-37 2 -71 33t-34 64z" />
<glyph unicode="&#xdc;" horiz-adv-x="1597" d="M27 436q0 186 65 455q63 250 139 481q72 223 78 264q23 190 373 191q39 0 39 -47q0 -27 -12 -78l-13 -64q-2 -31 -78 -249q-72 -211 -141 -465q-66 -252 -65 -394q0 -180 108 -180h2q203 8 314 180q53 82 96 220q39 117 78 286q12 51 77 373l50 250q14 100 59 127 q47 29 184 29h6q61 0 87 -7q37 -2 36 -30q-4 -229 -127 -777q-94 -412 -161 -563q-117 -258 -347 -356q-184 -82 -487 -82q-360 0 -360 436zM770 2034q0 12 2 14l27 90l30 98q41 88 123 109q4 2 17 2q43 0 43 -78q0 -82 -31 -166q-35 -96 -154 -129h-4l-4 -2 q-18 0 -33.5 19.5t-15.5 42.5zM1114 2071q0 12 2 14q2 8 12.5 41t10.5 37l10 37q25 61 29 67q39 80 131 121q16 4 18 4q45 0 45 -100q0 -63 -14 -113q-39 -129 -160 -178q-4 -2 -16 -2q-25 0 -46.5 22.5t-21.5 49.5z" />
<glyph unicode="&#xdd;" horiz-adv-x="1570" d="M1433 2356q0 20 9 34q16 20 100 113q74 82 106 131q43 66 105 187h6l6 2q39 0 78 -70q41 -72 49 -133q2 -4 2 -19q0 -29 -16.5 -63.5t-32.5 -48.5q-2 -2 -20.5 -24.5t-45 -54.5t-47.5 -54q-92 -104 -196 -129q-2 -2 -12 -2q-35 0 -63 42t-28 89zM-223 1524q0 70 51 108 q211 164 381 256q178 96 387 127q6 2 33 2q76 0 147 -55q70 -55 70 -135q0 -92 -187 -627q-184 -535 -184 -627q0 -33 17 -32q80 10 266 284q193 283 362 605q174 324 223 487q31 84 97.5 134t140.5 50q70 0 115 -45q72 -78 71 -168q0 -29 -6 -61q-14 -55 -241.5 -1061 t-425.5 -1761q-41 -147 -68 -185q-27 -39 -72 -39q-35 0 -73 21q-160 82 -160 270q0 41 16 117l78 279q74 248 160 591q90 354 143 641q-143 -221 -311 -413q-168 -193 -258 -258q-102 -74 -201 -74q-117 0 -192 88q-80 92 -82 203v26q0 135 78 437q76 293 159 579 q84 285 90 346v8q0 35 -26 35q-27 0 -80 -37q-31 -20 -152 -118q-123 -104 -143 -119q-33 -27 -80 -27q-74 0 -117 60q-26 41 -26 88z" />
<glyph unicode="&#xe0;" d="M51 371v37q0 84 19 163q31 127 82 222q55 106 133 188q82 82 172 133q76 43 157 60q25 4 58 4q8 0 36.5 -4.5t34.5 -4.5h9h6q20 0 37 -6q10 -2 29.5 -11t34.5 -18.5t18 -9.5q6 -2 22 -11t21 -9q2 -2 10 -2h12q4 0 10 6l9 6q10 14 14 16q8 0 14 7h17q31 -6 65 -15 q33 -8 57 -22q51 -27 78 -47q25 -20 37 -35q23 -29 29 -55v-17q0 -29 -8 -47q-14 -35 -43 -84q-39 -72 -39 -74q-51 -111 -80 -231q-20 -84 -21 -137q0 -35 9 -58q8 -27 32 -41q33 -20 66 0l41 25q18 6 41 0q18 -10 28 -29q20 -27 27 -73v-17q0 -33 -12 -59q-16 -37 -60 -66 q-25 -18 -79 -35q-31 -10 -93 -20q-41 -8 -104 -8h-14q-45 0 -103 8q-49 8 -74 25q-18 14 -22 20l-12 18l-9 17l-53 -25q-14 -6 -63 -28q-33 -14 -76 -23q-68 -10 -115 -10q-39 0 -76 6q-59 8 -116 39q-80 41 -125 117q-58 90 -68 215zM414 455q0 -18 2 -25q10 -47 28 -68 q16 -20 50 -34q12 -4 32.5 -4t26.5 2q76 10 139 80q31 33 45 55q18 25 40 111.5t24 195.5q0 18 -16.5 38.5t-28.5 27.5q-14 10 -37 10h-12q-25 -2 -50 -17q-18 -8 -43 -28q-41 -29 -75 -72q-90 -106 -119 -221q-6 -24 -6 -51zM639 1516q0 68 20.5 114.5t57.5 46.5h2 q18 4 81.5 -52t150.5 -113.5t157 -53.5q16 -16 16 -45q0 -45 -30.5 -87t-67.5 -42h-6q-129 0 -246 47q-115 45 -129 123q-6 25 -6 62z" />
<glyph unicode="&#xe1;" d="M51 371v37q0 84 19 163q31 127 82 222q55 106 133 188q82 82 172 133q76 43 157 60q25 4 58 4q49 0 80 -9q61 -14 125 -45q6 -2 22 -11t21 -9q2 -2 10 -2h12q4 0 10 6l9 6q10 14 14 16q8 0 14 7h17q31 -6 65 -15q33 -8 57 -22q51 -27 78 -47q25 -20 37 -35q23 -29 29 -55 v-17q0 -29 -8 -47q-14 -35 -43 -84q-39 -72 -39 -74q-51 -111 -80 -231q-20 -84 -21 -137q0 -35 9 -58q8 -27 32 -41q33 -20 66 0l41 25q18 6 41 0q18 -10 28 -29q20 -27 27 -73v-17q0 -33 -12 -59q-16 -37 -60 -66q-25 -18 -79 -35q-31 -10 -93 -20q-41 -8 -104 -8h-14 q-45 0 -103 8q-49 8 -74 25q-18 14 -22 20l-12 18l-9 17l-53 -25q-14 -6 -63 -28q-33 -14 -76 -23q-68 -10 -115 -10q-39 0 -76 6q-59 8 -116 39q-80 41 -125 117q-58 90 -68 215zM414 455q0 -18 2 -25q10 -47 28 -68q16 -20 50 -34q12 -4 32.5 -4t26.5 2q76 10 139 80 q31 33 45 55q18 25 40 111.5t24 195.5q0 18 -16.5 38.5t-28.5 27.5q-14 10 -37 10h-12q-25 -2 -50 -17q-18 -8 -43 -28q-41 -29 -75 -72q-90 -106 -119 -221q-6 -24 -6 -51zM580 1389q0 20 14 32q41 23 121 62t86 43q98 51 241 178q29 -2 46.5 -48t17.5 -112q0 -37 -8 -78 q-4 -29 -35 -60.5t-57 -43.5q-2 0 -16.5 -7t-35 -15.5t-34.5 -12.5q-135 -43 -203 -43q-33 0 -43 2q-35 4 -64.5 38t-29.5 65z" />
<glyph unicode="&#xe2;" d="M51 371v37q0 84 19 163q31 127 82 222q55 106 133 188q82 82 172 133q76 43 157 60q25 4 58 4q49 0 80 -9q61 -14 125 -45q6 -2 22 -11t21 -9q2 -2 10 -2h12q4 0 10 6l9 6q10 14 14 16q8 0 14 7h17q31 -6 65 -15q33 -8 57 -22q51 -27 78 -47q25 -20 37 -35q23 -29 29 -55 v-17q0 -29 -8 -47q-14 -35 -43 -84q-39 -72 -39 -74q-51 -111 -80 -231q-20 -84 -21 -137q0 -35 9 -58q8 -27 32 -41q33 -20 66 0l41 25q18 6 41 0q18 -10 28 -29q20 -27 27 -73v-17q0 -33 -12 -59q-16 -37 -60 -66q-25 -18 -79 -35q-31 -10 -93 -20q-41 -8 -104 -8h-14 q-45 0 -103 8q-49 8 -74 25q-18 14 -22 20l-12 18l-9 17l-53 -25q-14 -6 -63 -28q-33 -14 -76 -23q-68 -10 -115 -10q-39 0 -76 6q-59 8 -116 39q-80 41 -125 117q-58 90 -68 215zM414 455q0 -18 2 -25q10 -47 28 -68q16 -20 50 -34q12 -4 32.5 -4t26.5 2q76 10 139 80 q31 33 45 55q18 25 40 111.5t24 195.5q0 18 -16.5 38.5t-28.5 27.5q-14 10 -37 10h-12q-25 -2 -50 -17q-18 -8 -43 -28q-41 -29 -75 -72q-90 -106 -119 -221q-6 -24 -6 -51zM526 1403q0 14 13 31q66 41 96 65q23 18 78 70.5t90 81.5q43 37 69 37h9q49 0 77 -23 q53 -45 111 -115q66 -74 152 -133q8 -8 8 -22q0 -37 -47 -80q-45 -43 -84 -45h-4q-49 -4 -91 32.5t-80 85t-63 58.5q-23 -18 -53 -55q-70 -90 -158 -91q-2 0 -10 1.5t-12 1.5q-35 4 -68 35.5t-33 64.5z" />
<glyph unicode="&#xe3;" d="M61 1432q0 35 21 61q63 84 158.5 132.5t183.5 48.5q51 0 120.5 -51.5t123.5 -51.5h4q53 0 128.5 45t123.5 45q25 0 32 -2q78 -23 78 -125q0 -23 -6 -47q-14 -84 -129 -129q-117 -51 -217 -51q-6 0 -72 4q-39 2 -96 51q-53 47 -96 47h-2q-51 0 -125 -49q-72 -47 -115 -47 q-16 0 -33 4q-35 8 -58.5 42t-23.5 73zM51 371v37q0 84 19 163q31 129 82 222q51 100 133 188q78 78 172 133q80 45 157 60q33 4 58 4q53 0 80 -9q63 -16 125 -45q12 -2 22 -10q6 -4 21 -10q2 -2 10 -2h12q4 0 4 2q4 2 8 6t7 4q2 4 14 16q6 0 8 3q0 2 2 2l4 2h17 q49 -10 65 -15q37 -10 57 -22q53 -29 78 -47q31 -27 37 -35q23 -29 29 -55v-17q0 -31 -8 -47q-18 -39 -43 -84q-39 -70 -39 -74q-51 -111 -80 -231q-20 -80 -21 -137q0 -39 9 -58q8 -27 32 -41q16 -10 33 -10l33 10l4 2l4 3q6 4 10 8q4 0 9.5 3t9.5 5l4 4q18 6 41 0 q18 -10 28 -29q20 -27 27 -73v-17q0 -33 -12 -59q-16 -37 -60 -66q-27 -20 -79 -35q-45 -12 -93 -20q-35 -8 -104 -8h-14q-51 0 -103 8q-49 8 -74 25q-20 18 -22 20l-12 18l-4 9l-5 8l-53 -25l-63 -28q-27 -12 -76 -23q-76 -10 -115 -10t-76 6q-61 10 -116 39 q-78 39 -125 117q-58 90 -68 215zM414 455q0 -20 2 -25q8 -45 28 -68q12 -18 50 -34q12 -4 32.5 -4t26.5 2q74 8 139 80q27 29 45 55q18 25 39 110.5t25 196.5q0 18 -19 41q-16 23 -26 25q-14 10 -37 10h-12q-29 -4 -50 -17q-25 -12 -43 -28q-43 -29 -75 -72 q-92 -111 -119 -221q-6 -24 -6 -51z" />
<glyph unicode="&#xe4;" d="M51 371v37q0 84 19 163q31 127 82 222q55 106 133 188q82 82 172 133q76 43 157 60q25 4 58 4q49 0 80 -9q61 -14 125 -45q6 -2 22 -11t21 -9q2 -2 10 -2h12q4 0 10 6l9 6q10 14 14 16q8 0 14 7h17q31 -6 65 -15q33 -8 57 -22q51 -27 78 -47q25 -20 37 -35q23 -29 29 -55 v-17q0 -29 -8 -47q-14 -35 -43 -84q-39 -72 -39 -74q-51 -111 -80 -231q-20 -84 -21 -137q0 -35 9 -58q8 -27 32 -41q33 -20 66 0l41 25q18 6 41 0q18 -10 28 -29q20 -27 27 -73v-17q0 -33 -12 -59q-16 -37 -60 -66q-25 -18 -79 -35q-31 -10 -93 -20q-41 -8 -104 -8h-14 q-45 0 -103 8q-49 8 -74 25q-18 14 -22 20l-12 18l-9 17l-53 -25q-14 -6 -63 -28q-33 -14 -76 -23q-68 -10 -115 -10q-39 0 -76 6q-59 8 -116 39q-80 41 -125 117q-58 90 -68 215zM414 455q0 -18 2 -25q10 -47 28 -68q16 -20 50 -34q12 -4 32.5 -4t26.5 2q76 10 139 80 q31 33 45 55q18 25 40 111.5t24 195.5q0 18 -16.5 38.5t-28.5 27.5q-14 10 -37 10h-12q-25 -2 -50 -17q-18 -8 -43 -28q-41 -29 -75 -72q-90 -106 -119 -221q-6 -24 -6 -51zM596 1354q0 12 2 14l25 94q37 94 118 109l7 2h6q35 0 56 -38t21 -87q0 -6 -4 -39 q-29 -104 -153 -129h-8q-27 0 -48.5 22.5t-21.5 51.5zM958 1382v11q20 180 148 198h10q35 0 56.5 -39t21.5 -92q0 -25 -2 -30q-16 -121 -127 -140h-12q-37 0 -66 27.5t-29 64.5z" />
<glyph unicode="&#xe6;" horiz-adv-x="1759" d="M-86 1122q0 18 10 19q6 2 25 2q8 0 75.5 -3t100.5 -3q4 0 119 4q135 14 315 14q297 0 307 -68q49 8 164 19q94 8 160 16q45 8 158 15q211 12 458 92h2q4 0 4 -8q0 -14 -16 -70q-10 -33 -41 -123q-27 -76 -35 -113q-18 -43 -75 -75q-25 -12 -78 -19l-94 -12 q-55 -6 -103 -6q-18 0 -113 4q-70 6 -98 6q-82 0 -143 -29q-20 -12 -21 -30q0 -41 84 -76t203 -35q111 0 223 31q2 2 13 2q23 0 40 -16.5t17 -36.5v-27v-18q0 -37 -3 -55.5t-15.5 -39t-38.5 -39.5q-84 -47 -197 -73q-25 -6 -61.5 -13.5t-57 -11.5t-48.5 -11t-43 -12.5 t-32.5 -12.5t-29 -15t-17.5 -19q-6 -12 -6 -20q0 -25 43 -41t107 -16q43 0 84 10q182 49 299.5 107.5t214.5 152.5q16 16 57 16q51 0 93 -17t42 -46q0 -61 -121 -193q-121 -127 -211 -172q-258 -125 -549 -125h-22q-76 4 -168 39q-96 37 -145 37q-27 0 -138 -28 q-104 -29 -250 -39q-143 0 -242.5 72.5t-133.5 205.5q-8 27 -9 66q0 90 66 168.5t172 130.5q74 35 186 47q109 14 195 14q78 0 78 2t-2 2q8 35 8 84q0 76 -27 101q-39 29 -98 28q-84 0 -250 -24q-78 -4 -86 -4q-76 0 -137.5 13t-75.5 32q-29 43 -57 118q-35 92 -35 125z M281 285l4 -21q23 -72 125 -71q4 0 53 4q106 20 153 55q45 31 46 108q0 25 -5 41q-6 23 -90 23q-92 0 -147 -16q-55 -12 -97 -48t-42 -75z" />
<glyph unicode="&#xe7;" horiz-adv-x="1185" d="M23 385v10q0 109 43 254q35 106 86 195q57 100 166.5 192t246.5 144q113 41 215 41q154 0 254 -80q98 -76 109 -183v-18q0 -150 -148 -268q-76 -59 -180 -60q-29 0 -37 2q-25 2 -45 33t-20 53q0 8 24 43q25 37 25 52q0 10 -14 32q-8 12 -21 21q-29 12 -51 10 q-27 -4 -49 -16q-27 -16 -43 -29q-63 -55 -76 -72q-90 -106 -119 -221q-6 -49 -6 -51t1 -12.5t1 -12.5v-14q6 -31 14.5 -52.5t36 -59t93 -59t161.5 -21.5h39q45 4 141 36q98 35 138 35q82 0 108 -94q4 -20 4 -22q0 -57 -71 -101q-74 -45 -127 -59q-195 -45 -344 -45 q-20 0 -54 -37l-8 -12l43 -13q43 -10 85 -41.5t42 -83.5l-4 -28q-35 -147 -186 -199q-117 -39 -250 -39q-27 0 -55.5 2t-30.5 2h-6q-78 29 -91 88q-2 10 -2 29v12q2 25 31 52.5t49 27.5h6q102 -29 185 -29q113 0 129 54q2 8 4 18v6q0 27 -25.5 39t-56.5 15.5t-56.5 15.5 t-25.5 37q0 12 23 53q25 39 24 49q0 4 -4 4q-186 49 -256 160q-59 94 -65 215z" />
<glyph unicode="&#xe8;" horiz-adv-x="1480" d="M186 907q0 66 35 101q96 104 244 141q51 10 158 22l149 19q45 8 158 14q211 12 459 92h2q4 0 4 -8q0 -16 -17 -71q-10 -33 -41 -123q-27 -80 -34 -111q-18 -43 -76 -76q-25 -12 -78 -18l-94 -12q-55 -6 -103 -7q-18 0 -112 4q-70 6 -99 7q-82 0 -143 -29q-14 -8 -14 -16 q0 -20 80 -35q82 -16 217 -31q127 -14 206 -29q70 -12 70 -51v-45q0 -100 -57 -133q-84 -45 -197 -74q-25 -6 -61.5 -13t-57 -11t-48 -11.5t-43 -12.5t-33 -12t-28.5 -15.5t-18 -18.5q-8 -8 -8 -20q0 -25 44 -41.5t108 -16.5q43 0 84 10q182 49 298.5 107.5t213.5 153.5 q23 16 59 16q47 0 91 -18.5t44 -45.5q0 -61 -121 -192q-121 -127 -210 -172q-258 -125 -572 -125q-387 0 -428 225q-4 29 -4 33q0 121 129 217q106 82 190 113q4 2 11 4l-25 6q-174 31 -231 70q-25 14 -64 94q-37 77 -37 145zM524 1540q0 115 62 115h4q18 2 86.5 -47 t159 -99.5t159.5 -46.5q16 -16 17 -45q0 -45 -31 -87t-68 -42h-4q-129 0 -247 47q-113 49 -130 123q-8 31 -8 82z" />
<glyph unicode="&#xe9;" horiz-adv-x="1480" d="M74 899q0 61 35 100q96 104 243 142q51 10 158 22l149 19q45 8 158 14q211 12 459 92h2q4 0 4 -8q0 -14 -16 -70q-10 -33 -41 -123q-27 -76 -35 -112q-18 -43 -76 -76q-25 -12 -78 -18l-94 -13q-55 -6 -102 -6q-16 0 -111 4q-70 6 -100 6q-82 0 -144 -28q-14 -8 -14 -17 q0 -20 80 -34q82 -16 217 -31q127 -14 207 -29q70 -12 69 -51v-27v-18q0 -37 -3 -55.5t-15 -39t-39 -38.5q-84 -47 -186 -74q-193 -49 -232 -72q-20 -12 -30 -28q-6 -12 -7 -19q0 -18 46 -18q70 0 202 35q94 25 264 106q160 78 275 107q29 4 31 4q35 0 59.5 -15.5 t26.5 -44.5q0 -2 1 -12t1 -12q0 -137 -199 -244q-180 -98 -238 -125q-221 -100 -469 -100q-387 0 -428 225q-2 6 -2 33q0 121 134 221q106 82 194 113h2l-24 6q-176 31 -234 69q-25 14 -63 95q-37 77 -37 145zM471 1399q0 20 14 33q41 23 121 61.5t86 42.5q98 51 242 178 q29 -2 46 -48t17 -112q0 -37 -8 -77q-4 -29 -34.5 -61t-57.5 -44q-2 0 -16.5 -7t-35 -15.5t-34.5 -12.5q-135 -43 -203 -43q-33 0 -43 2q-35 4 -64.5 38t-29.5 65z" />
<glyph unicode="&#xea;" horiz-adv-x="1480" d="M74 899q0 61 35 100q96 104 243 142q51 10 158 22l149 19q45 8 158 14q211 12 459 92h2q4 0 4 -8q0 -14 -16 -70q-10 -33 -41 -123q-27 -76 -35 -112q-18 -43 -76 -76q-25 -12 -78 -18l-94 -13q-55 -6 -102 -6q-16 0 -111 4q-70 6 -100 6q-82 0 -144 -28q-14 -8 -14 -17 q0 -20 80 -34q82 -16 217 -31q127 -14 207 -29q70 -12 69 -51v-27v-18q0 -37 -3 -55.5t-15 -39t-39 -38.5q-84 -47 -186 -74q-193 -49 -232 -72q-20 -12 -30 -28q-6 -12 -7 -19q0 -18 46 -18q70 0 202 35q94 25 264 106q160 78 275 107q29 4 31 4q35 0 59.5 -15.5 t26.5 -44.5q0 -2 1 -12t1 -12q0 -137 -199 -244q-141 -78 -240 -125q-217 -100 -467 -100q-387 0 -428 225q-2 6 -2 33q0 57 37 116.5t97 102.5q92 70 194 115h2l-24 6q-176 31 -234 69q-25 14 -63 95q-37 77 -37 145zM350 1382q0 18 10 29q82 55 150 133q53 63 113 115 q29 23 77 22h9q27 0 69 -36q47 -39 92 -84q90 -82 172 -134q12 -14 13 -30q0 -33 -33 -66t-68 -35q-4 0 -12 -1t-10 -1q-51 0 -88 25q-29 18 -72 66.5t-51 54.5q-23 -10 -69 -53.5t-95 -74t-96 -26.5h-6q-37 2 -71 32.5t-34 63.5z" />
<glyph unicode="&#xeb;" horiz-adv-x="1480" d="M74 899q0 61 35 100q96 104 243 142q51 10 158 22l149 19q45 8 158 14q211 12 459 92h2q4 0 4 -8q0 -14 -16 -70q-10 -33 -41 -123q-27 -76 -35 -112q-18 -43 -76 -76q-25 -12 -78 -18l-94 -13q-55 -6 -102 -6q-16 0 -111 4q-70 6 -100 6q-82 0 -144 -28q-14 -8 -14 -17 q0 -20 80 -34q82 -16 217 -31q127 -14 207 -29q70 -12 69 -51v-27v-18q0 -37 -3 -55.5t-15 -39t-39 -38.5q-84 -47 -186 -74q-193 -49 -232 -72q-20 -12 -30 -28q-6 -12 -7 -19q0 -18 46 -18q70 0 202 35q94 25 264 106q160 78 275 107q29 4 31 4q35 0 59.5 -15.5 t26.5 -44.5q0 -2 1 -12t1 -12q0 -137 -199 -244q-180 -98 -238 -125q-221 -100 -469 -100q-387 0 -428 225q-2 6 -2 33q0 121 131 219q106 82 195 113l4 2l-24 6q-176 31 -234 69q-25 14 -63 95q-37 77 -37 145zM412 1384q0 6 1 16.5t6 37t14 48t27.5 42t43.5 26.5q4 2 20 2 q37 0 67 -28.5t30 -65.5v-12q-14 -92 -154 -129l-4 -2h-4q-20 0 -33.5 20t-13.5 45zM756 1427q0 139 92 164q4 2 20 2q37 0 67 -31.5t30 -70.5q0 -109 -127 -143q-2 -2 -13 -2q-29 0 -49 25t-20 56z" />
<glyph unicode="&#xec;" horiz-adv-x="978" d="M104 248q0 4 2 14v12q10 90 72 258q63 174 68 275q0 10 -10 10q-2 0 -36 -11t-46 -11q-45 0 -45 71q0 29 2 39q12 68 88 131q72 61 149 94l70 29q129 33 164 33q39 0 73 -10q41 -10 41 -70q0 -6 -4 -35q-25 -111 -106 -334q-76 -205 -99 -383q0 -104 82 -104q23 0 56 8 q25 6 53 6q51 0 87 -22.5t44 -63.5q2 -4 2 -18q0 -43 -41 -76t-104 -47q-147 -39 -240 -39q-117 0 -219 57q-103 56 -103 187zM246 1559q0 68 20.5 114.5t57.5 46.5h2q18 4 81.5 -52t150.5 -113.5t157 -53.5q16 -16 16 -45q0 -45 -30.5 -87t-67.5 -42h-6q-129 0 -246 47 q-115 47 -129 123q-6 25 -6 62z" />
<glyph unicode="&#xed;" horiz-adv-x="978" d="M104 248q0 4 2 14v12q10 90 72 258q63 174 68 275q0 10 -10 10q-2 0 -36 -11t-46 -11q-45 0 -45 71q0 29 2 39q12 68 88 131q72 61 149 94l70 29q129 33 164 33q39 0 73 -10q41 -10 41 -70q0 -6 -4 -35q-25 -111 -106 -334q-76 -205 -99 -383q0 -104 82 -104q23 0 56 8 q25 6 53 6q51 0 87 -22.5t44 -63.5q2 -4 2 -18q0 -43 -41 -76t-104 -47q-147 -39 -240 -39q-117 0 -219 57q-103 56 -103 187zM342 1405q0 20 14 33q41 23 121 61.5t86 42.5q98 51 242 178q29 -2 46 -48t17 -111q0 -37 -8 -78q-4 -29 -34.5 -60.5t-57.5 -44.5q-2 0 -16.5 -7 t-35 -15t-34.5 -13q-135 -43 -203 -43q-33 0 -43 3q-35 4 -64.5 37.5t-29.5 64.5z" />
<glyph unicode="&#xee;" horiz-adv-x="978" d="M104 248q0 4 2 14v12q10 90 72 258q63 174 68 275q0 10 -10 10q-2 0 -36 -11t-46 -11q-45 0 -45 71q0 29 2 39q12 68 88 131q72 61 149 94l70 29q129 33 164 33q39 0 73 -10q41 -10 41 -70q0 -6 -4 -35q-25 -111 -106 -334q-76 -205 -99 -383q0 -104 82 -104q23 0 56 8 q25 6 53 6q51 0 87 -22.5t44 -63.5q2 -4 2 -18q0 -43 -41 -76t-104 -47q-147 -39 -240 -39q-117 0 -219 57q-103 56 -103 187zM207 1425q0 18 10 29q82 55 150 133q53 63 112 115q29 23 78 22h8q27 0 70 -36q47 -39 92 -84q90 -82 172 -134q12 -16 12 -30q0 -33 -32.5 -65 t-67.5 -36q-4 0 -12 -1t-13 -1q-53 0 -92 19q-39 20 -90 71l-53 58q-27 -18 -64 -64q-80 -92 -170 -92h-6q-37 2 -70.5 32.5t-33.5 63.5z" />
<glyph unicode="&#xef;" horiz-adv-x="978" d="M104 248q0 4 2 14v12q10 90 72 258q63 174 68 275q0 10 -10 10q-2 0 -36 -11t-46 -11q-45 0 -45 71q0 29 2 39q12 68 88 131q72 61 149 94l70 29q129 33 164 33q39 0 73 -10q41 -10 41 -70q0 -6 -4 -35q-25 -111 -106 -334q-76 -205 -99 -383q0 -104 82 -104q23 0 56 8 q25 6 53 6q51 0 87 -22.5t44 -63.5q2 -4 2 -18q0 -43 -41 -76t-104 -47q-147 -39 -240 -39q-117 0 -219 57q-103 56 -103 187zM309 1372q0 12 2 14l11 39q8 35 20 74q14 33 37 60q18 25 63 38q2 2 15 2q29 0 48 -34.5t19 -81.5q0 -25 -4 -41q-25 -94 -153 -129q-2 0 -4.5 -1 t-4.5 -1q-18 0 -33.5 19t-15.5 42zM653 1411q0 2 1 6t1 6q20 94 51 144.5t93 72.5q16 4 18 5q31 0 56.5 -35t25.5 -74q0 -14 -2 -18q-25 -123 -160 -179q-4 -2 -16 -2q-25 0 -46.5 23.5t-21.5 50.5z" />
<glyph unicode="&#xf1;" horiz-adv-x="1746" d="M-144 1432q0 35 21 61q63 84 158.5 132.5t183.5 48.5q51 0 120.5 -51.5t123.5 -51.5h4q53 0 128.5 45t123.5 45q25 0 32 -2q78 -23 78 -125q0 -23 -6 -47q-14 -84 -129 -129q-117 -51 -217 -51q-6 0 -72 4q-39 2 -96 51q-53 47 -96 47h-2q-51 0 -125 -49 q-72 -47 -115 -47q-16 0 -33 4q-35 8 -58.5 42t-23.5 73zM76 117q0 27 6 53q16 100 29 254q12 180 69 301l82 70q45 27 86 26q29 0 55 -14q63 -33 82 -68q14 -35 27 -69q16 -49 16 -56q6 -18 17 -12l69 86l97 133l59 84l59 76q25 29 50 47q35 25 79 49q37 23 95 43 q31 14 90 21h16q39 0 76 -19q49 -29 80 -78q37 -55 55 -147q4 -119 4 -131q0 -16 -4 -119q-6 -90 -22 -215q-6 -63 -7 -90q0 -16 2 -18q0 -4 9 -19q6 -10 24 -18q16 -8 43 6l23 12l37 19l41 18l45 14q10 2 39 2q18 -2 30 -14q41 -53 41 -96q0 -37 -28 -72q-61 -80 -166 -131 q-106 -51 -174 -55q-14 -2 -66 -2q-88 0 -156 24q-78 29 -102 82l-10 21q-23 49 -29 75v70q0 41 2 66q8 141 8 182q0 70 -8 70q-25 -25 -194 -236q-162 -203 -287 -328q-39 -37 -109 -53q-41 -10 -71 -10q-41 0 -72 8q-78 18 -117 74q-20 33 -20 84z" />
<glyph unicode="&#xf2;" horiz-adv-x="716" d="M-346 461q0 150 63 297q90 217 242 329q154 117 317 117q166 0 287 -121q119 -119 131 -338v-20q0 -174 -78 -346q-78 -170 -219 -275q-143 -109 -311 -108q-70 0 -143 18q-121 33 -205 156q-84 121 -84 291zM-4 457q0 -115 82 -142q37 -4 39 -4q119 0 190 127 q74 127 74 260q0 51 -12 84q-31 68 -88 68q-66 0 -146 -80q-78 -76 -98 -131q-41 -78 -41 -182zM55 1530q0 68 20.5 115t57.5 47h2q18 4 83 -52.5t151 -114t155 -52.5q16 -16 17 -46q0 -45 -31 -87t-68 -42h-4q-129 0 -248 48q-113 47 -129 122q-6 25 -6 62z" />
<glyph unicode="&#xf3;" horiz-adv-x="784" d="M-346 461q0 150 63 297q90 217 242 329q154 117 317 117q166 0 287 -121q119 -119 131 -338v-20q0 -174 -78 -346q-78 -170 -219 -275q-143 -109 -311 -108q-70 0 -143 18q-121 33 -205 156q-84 121 -84 291zM-4 457q0 -115 82 -142q37 -4 39 -4q119 0 190 127 q74 127 74 260q0 51 -12 84q-31 68 -88 68q-66 0 -146 -80q-78 -76 -98 -131q-41 -78 -41 -182zM63 1389q0 20 15 32q41 23 121 62t86 43q98 51 241 178q61 -4 62 -160q0 -47 -6.5 -77.5t-38 -63.5t-56.5 -41q-41 -20 -114 -45q-121 -41 -217 -31q-33 4 -63 38t-30 65z" />
<glyph unicode="&#xf4;" horiz-adv-x="722" d="M-346 461q0 150 63 297q90 217 242 329q154 117 317 117q166 0 287 -121q119 -119 131 -338v-20q0 -174 -78 -346q-78 -170 -219 -275q-143 -109 -311 -108q-70 0 -143 18q-121 33 -205 156q-84 121 -84 291zM-6 1403q0 18 10 29q82 55 150 133q53 63 112 114 q27 23 78 23h8q27 0 70 -37q47 -39 92 -84q90 -82 172 -133q12 -12 12 -31q0 -33 -32.5 -65.5t-67.5 -34.5h-25q-76 0 -139 51q-27 25 -96 94q-27 -18 -64 -63q-80 -92 -170 -92h-6q-37 2 -70.5 33.5t-33.5 62.5zM-4 457q0 -115 82 -142q37 -4 39 -4q119 0 190 127 q74 127 74 260q0 51 -12 84q-31 68 -88 68q-66 0 -146 -80q-78 -76 -98 -131q-41 -78 -41 -182z" />
<glyph unicode="&#xf5;" horiz-adv-x="1398" />
<glyph unicode="&#xf6;" horiz-adv-x="739" d="M-346 461q0 150 63 297q90 217 242 329q154 117 317 117q166 0 287 -121q119 -119 131 -338v-20q0 -174 -78 -346q-78 -170 -219 -275q-143 -109 -311 -108q-70 0 -143 18q-121 33 -205 156q-84 121 -84 291zM-4 457q0 -115 82 -142q37 -4 39 -4q119 0 190 127 q74 127 74 260q0 51 -12 84q-31 68 -88 68q-66 0 -146 -80q-78 -76 -98 -131q-41 -78 -41 -182zM66 1327q0 12 2 14l16 60q2 4 10 26.5t10 26.5q33 70 99 88q2 2 12 2q29 0 47.5 -31.5t18.5 -76.5q0 -23 -5 -39q-27 -94 -153 -129l-4 -2h-4q-18 0 -33.5 19t-15.5 42z M399 1337q0 2 1 6.5t1 6.5q37 162 148 206q16 4 18 5q31 0 54.5 -32t23.5 -69q0 -12 -2 -16q-29 -125 -160 -178q-4 -2 -16 -2q-25 0 -46.5 23t-21.5 50z" />
<glyph unicode="&#xf9;" horiz-adv-x="1337" d="M152 365q0 96 53 331q55 233 74 348q39 119 151 142q25 6 49 6q100 0 129 -78q10 -37 10 -57q0 -31 -12 -74q-6 -23 -34.5 -124t-43.5 -159q-39 -154 -39 -241q0 -123 84 -123q76 0 113 22q8 6 20.5 14.5t19.5 12.5t15.5 13.5t14.5 21.5q35 61 45 94l18 53l17 64l16 65 l18 90l19 97q4 10 20 84q35 127 101 211q35 12 75 12q72 0 124.5 -34t60.5 -95v-8q2 -8 2 -13q0 -70 -82 -346q-78 -262 -109 -440v-6q0 -27 56 -33q55 -2 67 -31q12 -20 13 -49q0 -66 -62 -106q-86 -55 -244 -56q-145 0 -166 27q-16 16 -29.5 33.5t-19.5 26t-8 8.5l-4 -2 q-78 -78 -211 -78q-127 0 -215 84t-104 247q-2 11 -2 46zM506 1518q0 68 20.5 114.5t57.5 46.5h2q18 4 81.5 -52t150.5 -113.5t157 -53.5q16 -16 16 -45q0 -45 -30.5 -87t-67.5 -42h-6q-129 0 -246 47q-113 47 -129 123q-6 25 -6 62z" />
<glyph unicode="&#xfa;" horiz-adv-x="1337" d="M152 365q0 96 53 331q55 233 74 348q39 119 151 142q25 6 49 6q100 0 129 -78q10 -37 10 -57q0 -31 -12 -74q-6 -23 -34.5 -124t-43.5 -159q-39 -154 -39 -241q0 -123 84 -123q76 0 113 22q8 6 20.5 14.5t19.5 12.5t15.5 13.5t14.5 21.5q35 61 45 94l18 53l17 64l16 65 l18 90l19 97q4 10 20 84q35 127 101 211q35 12 75 12q72 0 124.5 -34t60.5 -95v-8q2 -8 2 -13q0 -70 -82 -346q-78 -262 -109 -440v-6q0 -27 56 -33q55 -2 67 -31q12 -20 13 -49q0 -66 -62 -106q-86 -55 -244 -56q-145 0 -166 27q-16 16 -29.5 33.5t-19.5 26t-8 8.5l-4 -2 q-78 -78 -211 -78q-127 0 -215 84t-104 247q-2 11 -2 46zM580 1389q0 20 14 32q41 23 121 62t86 43q98 51 241 178q29 -2 46.5 -48t17.5 -112q0 -37 -8 -78q-4 -29 -35 -60.5t-57 -43.5q-2 0 -16.5 -7t-35 -15.5t-34.5 -12.5q-135 -43 -203 -43q-33 0 -43 2q-35 4 -64.5 38 t-29.5 65z" />
<glyph unicode="&#xfb;" horiz-adv-x="1337" d="M152 365q0 96 53 331q55 233 74 348q39 119 151 142q25 6 49 6q100 0 129 -78q10 -37 10 -57q0 -31 -12 -74q-6 -23 -34.5 -124t-43.5 -159q-39 -154 -39 -241q0 -123 84 -123q76 0 113 22q8 6 20.5 14.5t19.5 12.5t15.5 13.5t14.5 21.5q35 61 45 94l18 53l17 64l16 65 l18 90l19 97q4 10 20 84q35 127 101 211q35 12 75 12q72 0 124.5 -34t60.5 -95v-8q2 -8 2 -13q0 -70 -82 -346q-78 -262 -109 -440v-6q0 -27 56 -33q55 -2 67 -31q12 -20 13 -49q0 -66 -62 -106q-86 -55 -244 -56q-145 0 -166 27q-16 16 -29.5 33.5t-19.5 26t-8 8.5l-4 -2 q-78 -78 -211 -78q-127 0 -215 84t-104 247q-2 11 -2 46zM510 1386q0 18 10 29q82 55 150 133q53 63 112 115q27 23 78 23h8q27 0 70 -37q47 -39 92 -84q90 -82 172 -133q12 -12 12 -31q0 -33 -32.5 -65.5t-67.5 -35.5h-24q-76 0 -140 52q-27 25 -96 94q-27 -18 -63 -64 q-80 -92 -170 -92h-7q-37 2 -70.5 33.5t-33.5 62.5z" />
<glyph unicode="&#xfc;" horiz-adv-x="1337" d="M152 365q0 96 53 331q55 233 74 348q39 119 151 142q25 6 49 6q100 0 129 -78q10 -37 10 -57q0 -31 -12 -74q-6 -23 -34.5 -124t-43.5 -159q-39 -154 -39 -241q0 -123 84 -123q76 0 113 22q8 6 20.5 14.5t19.5 12.5t15.5 13.5t14.5 21.5q35 61 45 94l18 53l17 64l16 65 l18 90l19 97q4 10 20 84q35 127 101 211q35 12 75 12q72 0 124.5 -34t60.5 -95v-8q2 -8 2 -13q0 -70 -82 -346q-78 -262 -109 -440v-6q0 -27 56 -33q55 -2 67 -31q12 -20 13 -49q0 -66 -62 -106q-86 -55 -244 -56q-145 0 -166 27q-16 16 -29.5 33.5t-19.5 26t-8 8.5l-4 -2 q-78 -78 -211 -78q-127 0 -215 84t-104 247q-2 11 -2 46zM549 1333q0 12 2 15l27 90l30 98q41 88 123 109q4 2 17 2q43 0 43 -78q0 -82 -31 -166q-35 -96 -154 -129h-4l-4 -2q-18 0 -33.5 19t-15.5 42zM893 1370q0 12 2 14q2 8 12.5 41t10.5 37l10 37q25 61 28 68 q39 80 131 121q16 4 19 4q45 0 45 -101q0 -63 -14 -112q-39 -129 -160 -179q-4 -2 -16 -2q-25 0 -46.5 22.5t-21.5 49.5z" />
<glyph unicode="&#xfd;" horiz-adv-x="1136" d="M292 1446q0 20 9 34q16 20 100 113q74 82 106 131q43 66 105 187h6l6 2q39 0 78 -70q41 -72 49 -133q2 -4 2 -19q0 -29 -16.5 -63.5t-32.5 -48.5q-2 -2 -20.5 -24.5t-45 -54.5t-47.5 -54q-92 -104 -196 -129q-2 -2 -12 -2q-35 0 -63 42t-28 89zM82 365q0 92 24 208 q29 123 74 275q53 170 60 196q39 119 151 142q25 6 49 6q100 0 129 -78q10 -37 11 -57q0 -31 -13 -74q-4 -18 -33.5 -120.5t-44.5 -162.5q-43 -168 -43 -239q0 -98 89 -125q25 -6 47 -6q109 0 170 176q16 47 61 211l74 315q14 61 88 107q74 45 141 49h4q49 0 94.5 -37 t55.5 -86v-8q0 -33 -66 -180l-8 -17q-207 -651 -340 -1165q-125 -494 -172 -703q-39 -186 -70 -254q-45 -92 -90 -131q-41 -37 -129 -49q-6 0 -21.5 -1t-19.5 -1q-33 0 -47 21.5t-18 79.5q-2 6 -2 24q0 115 75 385l242 905q2 14 6 27.5t6 19t0 7.5q-74 -31 -178 -31 q-123 0 -221 74q-100 74 -133 258q-2 8 -2 39z" />
<glyph unicode="&#x152;" horiz-adv-x="2404" d="M61 702q0 106 25 205q90 365 279 658q98 150 226 233.5t267 83.5q57 0 92 -8q268 -51 371 -332q78 109 201 211q104 86 230 136t237 50q139 0 213 -75q78 -78 77 -240q0 -133 -53 -270q-53 -133 -106 -158q-43 -16 -109 -16q-76 0 -151 16q-70 18 -70 43q0 10 12 18 q68 57 105 140.5t37 161.5q0 104 -54 104q-8 0 -20 -4q-145 -66 -240 -184q-94 -115 -94 -220q0 -55 27 -88q47 -59 123 -77q92 -18 190 -21q104 -2 182 -27q45 -14 45 -65t-37 -107q-37 -53 -77 -63q-27 -8 -78 -8q-10 0 -65.5 1t-73.5 1q-145 0 -265.5 -49.5 t-230.5 -173.5q-20 -23 -36.5 -70t-16.5 -92q0 -156 200 -156q37 0 50 2q152 2 317 70l184 80q113 53 199 88q45 16 68 16q51 0 78.5 -44t27.5 -105q0 -49 -14 -64q-109 -106 -432 -223q-319 -117 -588 -117q-287 0 -398 152q-168 -115 -370 -115q-45 0 -58 2 q-180 12 -305 229t-121 471zM406 682q0 -137 43 -228.5t104 -95.5h14q115 0 232 138q121 139 184 397q27 106 27 235q0 158 -39 269q-41 115 -115 121h-6q-90 0 -223 -177q-131 -174 -191 -417q-30 -121 -30 -242z" />
<glyph unicode="&#x153;" horiz-adv-x="1617" d="M-193 461q0 150 64 297q90 217 242 329q154 117 317 117q166 0 281 -114q59 25 110 32q68 14 152 23q70 6 131 16q45 8 158 15q211 12 458 92h2q4 0 4 -11q0 -12 -16 -67q-10 -33 -41 -123q-27 -76 -35 -113q-18 -43 -75 -75q-25 -12 -78 -19l-95 -12q-37 -6 -102 -6 q-18 0 -112.5 4t-98.5 4q-84 0 -143 -27q-14 -8 -15 -18q0 -16 78 -33q78 -14 219 -31q131 -14 207 -28q70 -14 70 -51v-29v-17q0 -57 -11.5 -85.5t-45.5 -47.5q-84 -45 -197 -73q-25 -6 -61.5 -13.5t-57 -11.5t-48.5 -11t-43 -12.5t-32.5 -12.5t-29 -15t-17.5 -19 q-6 -12 -6 -22q0 -25 43 -40t107 -15q53 0 84 10q182 49 299.5 107.5t214.5 152.5q14 14 57 14q49 0 92 -18.5t43 -44.5q0 -59 -121 -191q-119 -123 -211 -172q-258 -125 -571 -125q-319 0 -402 150q-150 -125 -335 -125q-70 0 -144 18q-121 33 -205 156q-84 121 -84 291z M150 457q0 -115 81 -142q33 -4 39 -4q119 0 191 127q74 127 74 260q0 51 -13 84q-31 68 -88 68q-68 0 -147 -80q-78 -78 -97 -131q-40 -78 -40 -182z" />
<glyph unicode="&#x2c6;" horiz-adv-x="993" d="M203 1403q0 14 12 31q66 41 96 65q23 18 78 70.5t90 81.5q43 37 70 37h8q49 0 78 -23q53 -45 110 -115q66 -74 152 -133q8 -8 8 -22q0 -37 -47 -80q-45 -43 -84 -45h-4q-49 -4 -91 32.5t-80 85t-62 58.5q-23 -18 -54 -55q-70 -90 -157 -91q-2 0 -10.5 1.5t-12.5 1.5 q-35 4 -67.5 35.5t-32.5 64.5z" />
<glyph unicode="&#x2dc;" horiz-adv-x="1118" d="M-609 248q0 35 21 61q63 84 158.5 132.5t183.5 48.5q51 0 120.5 -51.5t123.5 -51.5h4q53 0 128.5 45t123.5 45q25 0 32 -2q78 -23 78 -125q0 -23 -6 -47q-14 -84 -129 -129q-117 -51 -217 -51q-6 0 -72 4q-39 2 -96 51q-53 47 -96 47h-2q-51 0 -125 -49q-72 -47 -115 -47 q-16 0 -33 4q-35 8 -58.5 42t-23.5 73z" />
<glyph unicode="&#x2000;" horiz-adv-x="1411" />
<glyph unicode="&#x2001;" horiz-adv-x="2822" />
<glyph unicode="&#x2002;" horiz-adv-x="1411" />
<glyph unicode="&#x2003;" horiz-adv-x="2822" />
<glyph unicode="&#x2004;" horiz-adv-x="940" />
<glyph unicode="&#x2005;" horiz-adv-x="704" />
<glyph unicode="&#x2006;" horiz-adv-x="468" />
<glyph unicode="&#x2007;" horiz-adv-x="468" />
<glyph unicode="&#x2008;" horiz-adv-x="352" />
<glyph unicode="&#x2009;" horiz-adv-x="563" />
<glyph unicode="&#x200a;" horiz-adv-x="155" />
<glyph unicode="&#x2010;" horiz-adv-x="929" d="M41 743q0 10 2 15q0 39 43 53l12 4q131 25 334 25h70q182 0 262 8h37q47 0 66.5 -16.5t21.5 -53.5v-6q0 -70 -35 -135q-33 -61 -86 -72q-35 -6 -70 -6q-39 0 -82 2q-86 4 -118 4q-283 -2 -381 -39l-2 -2q-20 0 -47 82q-27 80 -27 137z" />
<glyph unicode="&#x2011;" horiz-adv-x="929" d="M41 743q0 10 2 15q0 39 43 53l12 4q131 25 334 25h70q182 0 262 8h37q47 0 66.5 -16.5t21.5 -53.5v-6q0 -70 -35 -135q-33 -61 -86 -72q-35 -6 -70 -6q-39 0 -82 2q-86 4 -118 4q-283 -2 -381 -39l-2 -2q-20 0 -47 82q-27 80 -27 137z" />
<glyph unicode="&#x2012;" horiz-adv-x="929" d="M41 743q0 10 2 15q0 39 43 53l12 4q131 25 334 25h70q182 0 262 8h37q47 0 66.5 -16.5t21.5 -53.5v-6q0 -70 -35 -135q-33 -61 -86 -72q-35 -6 -70 -6q-39 0 -82 2q-86 4 -118 4q-283 -2 -381 -39l-2 -2q-20 0 -47 82q-27 80 -27 137z" />
<glyph unicode="&#x2013;" horiz-adv-x="1024" d="M41 524v324h942v-324h-942z" />
<glyph unicode="&#x2014;" horiz-adv-x="2048" d="M41 524v324h1966v-324h-1966z" />
<glyph unicode="&#x2018;" d="M639 1516q0 68 20.5 114.5t57.5 46.5h2q18 4 81.5 -52t150.5 -113.5t157 -53.5q16 -16 16 -45q0 -45 -30.5 -87t-67.5 -42h-6q-129 0 -246 47q-115 45 -129 123q-6 25 -6 62z" />
<glyph unicode="&#x2019;" horiz-adv-x="614" d="M156 1735q0 20 8 34q16 20 100 113q74 82 107 131q43 66 104 187h6l6 2q39 0 78 -70q41 -72 49 -133q2 -4 2 -19q0 -29 -16 -63.5t-33 -48.5q-2 -2 -20.5 -24.5t-45 -54.5t-46.5 -54q-92 -104 -197 -129q-2 -2 -12 -2q-35 0 -62.5 42t-27.5 89z" />
<glyph unicode="&#x201c;" horiz-adv-x="1126" d="M117 1341q-2 4 34.5 42t74.5 99.5t36 114.5q-59 23 -91 84.5t-32 92.5q6 100 56 180q51 82 108 82q106 -10 172 -51q78 -47 78 -224q0 -41 -2 -53q-4 -104 -46 -184t-102.5 -120t-119 -58.5t-111.5 -18.5q-31 0 -49 6q-6 2 -6 8zM625 1341q-2 4 34.5 42t74.5 99.5 t36 114.5q-59 23 -91 84.5t-32 92.5q0 150 56.5 234.5t132.5 84.5q109 -25 161 -78q63 -57 64 -250q0 -43 -2 -57q-10 -106 -88 -197q-74 -86 -163 -133t-155 -47q-28 0 -28 10z" />
<glyph unicode="&#x201d;" horiz-adv-x="1126" d="M117 1341q-2 4 34.5 42t74.5 99.5t36 114.5q-59 23 -91 84.5t-32 92.5q6 100 56 180q51 82 108 82q106 -10 172 -51q78 -47 78 -224q0 -41 -2 -53q-4 -104 -46 -184t-102.5 -120t-119 -58.5t-111.5 -18.5q-31 0 -49 6q-6 2 -6 8zM625 1341q-2 4 34.5 42t74.5 99.5 t36 114.5q-59 23 -91 84.5t-32 92.5q0 150 56.5 234.5t132.5 84.5q109 -25 161 -78q63 -57 64 -250q0 -43 -2 -57q-10 -106 -88 -197q-74 -86 -163 -133t-155 -47q-28 0 -28 10z" />
<glyph unicode="&#x2026;" horiz-adv-x="1413" d="M1016 150q0 14 4 26q45 266 139 266q4 0 25 -4q172 -53 172 -299q0 -4 -4 -65q-10 -72 -113 -72q-51 0 -96 14q-55 18 -91 54.5t-36 79.5zM545 150q0 14 4 26q45 266 139 266q4 0 25 -4q172 -53 172 -299q0 -4 -4 -65q-10 -72 -113 -72q-51 0 -96 14q-55 18 -91 54.5 t-36 79.5zM74 150q0 14 4 26q45 266 139 266q4 0 25 -4q172 -53 172 -299q0 -4 -4 -65q-10 -72 -113 -72q-51 0 -96 14q-55 18 -91 54.5t-36 79.5z" />
<glyph unicode="&#x202f;" horiz-adv-x="563" />
<glyph unicode="&#x2039;" horiz-adv-x="831" d="M150 674q0 4 1 15t1 13q4 27 53 78q61 61 108 101l90 80q41 41 93 106q8 8 24 8q41 0 88 -61q49 -59 49 -109v-2q0 -37 -28 -78q-33 -49 -97 -108l-71 -72q2 -4 48 -58.5t93 -123t49 -113.5q-6 -41 -61 -88q-53 -43 -98 -43q-25 0 -37 14q-57 109 -154 205 q-94 96 -133 158q-18 27 -18 78z" />
<glyph unicode="&#x203a;" horiz-adv-x="831" d="M178 915v3q0 49 47 108q49 61 90 61q16 0 25 -8q51 -66 92 -106q16 -16 86 -76.5t113 -103.5q49 -51 53 -78q0 -2 1 -13.5t1 -15.5q0 -51 -18 -78q-41 -63 -136 -157q-96 -98 -151 -205q-12 -14 -37 -15q-45 0 -100 43q-53 47 -60 88q2 45 48.5 114t93.5 123t49 58 l-13 13l-21 21l-24 24l-67 69q-72 86 -72 131z" />
<glyph unicode="&#x205f;" horiz-adv-x="704" />
<glyph unicode="&#x2122;" horiz-adv-x="3868" d="M722 1522q0 72 56 110q205 160 383 256.5t385 126.5q37 6 69 6q125 0 168 -116q14 -35 15 -95v-16q-18 -244 -144 -672q-119 -418 -155 -590l4 13q6 14 17 40.5t26 55.5q51 113 104 219q51 98 154 281q209 367 528 737q90 96 211 96q98 0 174 -61.5t76 -138.5 q0 -160 -141.5 -658t-141.5 -579q0 -8 4 -29q6 12 80 145l117 213l131 230q147 250 295 469q160 229 262 303q78 55 152 55q123 0 203 -123q72 -98 88 -166v-28q0 -119 -68 -357q-70 -258 -141 -530q-74 -293 -86 -535q-4 -55 -54.5 -109.5t-117.5 -74.5q-102 -29 -152 -29 q-96 0 -119 90q-4 49 -4 62q0 147 74 416q63 233 158 520q86 258 98 323q-94 -82 -385 -569q-291 -485 -359 -672q-31 -70 -113.5 -107.5t-193.5 -37.5q-6 0 -67 4q-90 12 -134 58t-44 145q0 334 79 616q31 98 80 275q45 166 74 295q-139 -145 -260 -336 q-117 -186 -197 -348q-80 -168 -178 -340q-106 -184 -207 -304q-82 -70 -239 -69q-41 0 -105 8q-63 10 -96 54t-33 104q0 31 6 51q49 201 140 518q74 262 118 444q39 172 60 345l10 94v16q0 33 -29 33q-80 0 -407 -256q-33 -27 -80 -27q-76 0 -117 60q-31 39 -31 86z M-301 2226q0 102 113 141q33 12 57 13q41 0 72 -25q31 -27 65 -80q33 -51 60 -80q84 -92 231 -180t328 -141q289 467 768 467h8q156 -4 266 -115q115 -115 115 -256q0 -131 -107 -229q-223 -201 -614 -201q-96 0 -223 16q-113 -225 -193 -647q-80 -418 -80 -821v-14 q0 -82 -46 -128t-124 -46q-47 0 -100 18q-39 12 -52.5 85t-13.5 224q0 10 1 53.5t1 55.5q0 213 62 612q61 395 201 684q-246 74 -443 185q-195 113 -272 215q-80 106 -80 194zM987 1812h27q231 0 399 93q35 23 35 47q0 33 -45 61.5t-105 28.5q-43 0 -77 -14 q-68 -25 -118 -73.5t-116 -142.5z" />
<glyph unicode="&#xe000;" horiz-adv-x="1285" d="M0 1285h1285v-1285h-1285v1285z" />
<glyph unicode="&#xfb01;" horiz-adv-x="2097" d="M1222 242q0 27 2 32q8 98 74 258q61 174 66 275q-4 8 -25 6q-29 -4 -53 -16q-29 -12 -47 12q-12 18 -12 57q0 29 2 39q8 43 45 86t73 70q51 35 90 53q37 18 68 33q18 8 31 12l35 8l39 13q6 0 36 8q8 0 15.5 1t11.5 2t8 1h6q31 0 41 -2q18 -2 45 -8q31 -8 37 -41 q6 -14 6 -31q0 -16 -6 -33q-27 -121 -106 -332q-76 -209 -99 -385q0 -53 23 -81q20 -27 53 -21l62 6q25 6 51 6q35 0 65 -12q57 -18 68 -74q2 -4 2 -20q0 -39 -37 -70q-43 -35 -108 -51q-27 -6 -162 -35q-53 -4 -64 -4q-37 0 -80 6q-74 10 -153 51q-103 56 -103 181z M1532 1612v22q6 76 82 103q31 14 79 14q39 0 78 -12q41 -6 60 -68q10 -35 10 -61q0 -37 -12 -86q-23 -86 -90 -154h-15q-76 0 -135 78q-57 76 -57 164zM139 -94q0 102 17 172q16 80 82 328q55 217 86 421q-76 39 -119 107q-53 66 -62 158q-2 6 -2 28q0 125 135 187q2 2 13 2 q39 0 94 -86l14 -17l62 355q18 100 84 325q55 193 137 359q35 72 133 86q8 2 33 2q72 0 96 -56q39 -86 39 -211q0 -109 -35 -276q-70 -319 -272 -727q-6 -12 -6 -23q0 -25 37 -47q51 -29 122 -45q68 -12 150 -55q74 -43 88 -100q4 -29 4 -31q0 -45 -49 -74q-55 -23 -143 -22 q-49 0 -66 2q94 -180 147 -369q41 -160 41 -334q0 -6 -4 -84q-10 -231 -110 -434q-51 -111 -131 -164q-70 -51 -150 -51h-6q-80 4 -154 35q-84 41 -135 96q-61 63 -88 133q-70 172 -80 324q-2 20 -2 86zM508 -98q0 -8 1 -37t1 -39q2 -90 22 -152q18 -63 60 -63h2 q57 2 98 131q37 119 37 235v23q-4 90 -43 213q-39 121 -80 201l-41 78l-24 -201q-12 -90 -27 -242q-6 -69 -6 -147z" />
<glyph unicode="&#xfb02;" horiz-adv-x="1931" d="M1171 115q0 20 4 41l199 780q121 489 162 618q43 158 112 330q57 145 156 287q86 121 164 121h4h10q123 -12 123 -181q0 -80 -35 -219q-35 -129 -190 -553q-295 -698 -320 -979v-30l4 -25l5 -18l4 -11l8 -6l12 -4l8 -2h11h10q33 0 96 19q53 16 92 16h15q41 -4 61 -53 q8 -16 8 -47q0 -39 -26 -84q-41 -68 -101 -90q-123 -47 -289 -70q-86 -10 -120 -10q-70 0 -101 18q-39 27 -69 80q-17 39 -17 72zM139 -94q0 102 17 172q16 80 82 328q55 217 86 421q-76 39 -119 107q-53 66 -62 158q-2 6 -2 28q0 125 135 187q2 2 13 2q39 0 94 -86l14 -17 l62 355q18 100 84 325q55 193 137 359q35 72 133 86q8 2 33 2q72 0 96 -56q39 -86 39 -211q0 -109 -35 -276q-70 -319 -272 -727q-6 -12 -6 -23q0 -25 37 -47q51 -29 122 -45q68 -12 150 -55q74 -43 88 -100q4 -29 4 -31q0 -45 -49 -74q-55 -23 -143 -22q-49 0 -66 2 q94 -180 147 -369q41 -160 41 -334q0 -6 -4 -84q-10 -231 -110 -434q-51 -111 -131 -164q-70 -51 -150 -51h-6q-80 4 -154 35q-84 41 -135 96q-61 63 -88 133q-70 172 -80 324q-2 20 -2 86zM508 -98q0 -8 1 -37t1 -39q2 -90 22 -152q18 -63 60 -63h2q57 2 98 131 q37 119 37 235v23q-4 90 -43 213q-39 121 -80 201l-41 78l-24 -201q-12 -90 -27 -242q-6 -69 -6 -147z" />
<glyph unicode="&#xfb03;" horiz-adv-x="3215" d="M2340 242q0 27 2 32q8 98 74 258q61 174 66 275q-4 8 -25 6q-29 -4 -53 -16q-29 -12 -47 12q-12 18 -12 57q0 29 2 39q8 43 45 86t73 70q51 35 90 53q37 18 68 33q18 8 31 12l35 8l39 13q6 0 36 8q8 0 15.5 1t11.5 2t8 1h6q31 0 41 -2q18 -2 45 -8q31 -8 37 -41 q6 -14 6 -31q0 -16 -6 -33q-27 -121 -106 -332q-76 -209 -99 -385q0 -53 23 -81q20 -27 53 -21l62 6q25 6 51 6q35 0 65 -12q57 -18 68 -74q2 -4 2 -20q0 -39 -37 -70q-43 -35 -108 -51q-27 -6 -162 -35q-53 -4 -64 -4q-37 0 -80 6q-74 10 -153 51q-103 56 -103 181z M2650 1612v22q6 76 82 103q31 14 79 14q39 0 78 -12q41 -6 60 -68q10 -35 10 -61q0 -37 -12 -86q-23 -86 -90 -154h-15q-76 0 -135 78q-57 76 -57 164zM1257 -94q0 102 17 172q16 80 82 328q55 217 86 421q-76 39 -119 107q-53 66 -62 158q-2 6 -2 28q0 125 135 187 q2 2 13 2q39 0 94 -86l14 -17l62 355q18 100 84 325q55 193 137 359q35 72 133 86q8 2 33 2q72 0 96 -56q39 -86 39 -211q0 -109 -35 -276q-70 -319 -272 -727q-6 -12 -6 -23q0 -25 37 -47q51 -29 122 -45q68 -12 150 -55q74 -43 88 -100q4 -29 4 -31q0 -45 -49 -74 q-55 -23 -143 -22q-49 0 -66 2q94 -180 147 -369q41 -160 41 -334q0 -6 -4 -84q-10 -231 -110 -434q-51 -111 -131 -164q-70 -51 -150 -51h-6q-80 4 -154 35q-84 41 -135 96q-61 63 -88 133q-70 172 -80 324q-2 20 -2 86zM1626 -98q0 -8 1 -37t1 -39q2 -90 22 -152 q18 -63 60 -63h2q57 2 98 131q37 119 37 235v23q-4 90 -43 213q-39 121 -80 201l-41 78l-24 -201q-12 -90 -27 -242q-6 -69 -6 -147zM139 -94q0 102 17 172q16 80 82 328q55 217 86 421q-76 39 -119 107q-53 66 -62 158q-2 6 -2 28q0 125 135 187q2 2 13 2q39 0 94 -86 l14 -17l62 355q18 100 84 325q55 193 137 359q35 72 133 86q8 2 33 2q72 0 96 -56q39 -86 39 -211q0 -109 -35 -276q-70 -319 -272 -727q-6 -12 -6 -23q0 -25 37 -47q51 -29 122 -45q68 -12 150 -55q74 -43 88 -100q4 -29 4 -31q0 -45 -49 -74q-55 -23 -143 -22q-49 0 -66 2 q94 -180 147 -369q41 -160 41 -334q0 -6 -4 -84q-10 -231 -110 -434q-51 -111 -131 -164q-70 -51 -150 -51h-6q-80 4 -154 35q-84 41 -135 96q-61 63 -88 133q-70 172 -80 324q-2 20 -2 86zM508 -98q0 -8 1 -37t1 -39q2 -90 22 -152q18 -63 60 -63h2q57 2 98 131 q37 119 37 235v23q-4 90 -43 213q-39 121 -80 201l-41 78l-24 -201q-12 -90 -27 -242q-6 -69 -6 -147z" />
<glyph unicode="&#xfb04;" horiz-adv-x="3049" d="M2289 115q0 20 4 41l199 780q121 489 162 618q43 158 112 330q57 145 156 287q86 121 164 121h4h10q123 -12 123 -181q0 -80 -35 -219q-35 -129 -190 -553q-295 -698 -320 -979v-30l4 -25l5 -18l4 -11l8 -6l12 -4l8 -2h11h10q33 0 96 19q53 16 92 16h15q41 -4 61 -53 q8 -16 8 -47q0 -39 -26 -84q-41 -68 -101 -90q-123 -47 -289 -70q-86 -10 -120 -10q-70 0 -101 18q-39 27 -69 80q-17 39 -17 72zM1257 -94q0 102 17 172q16 80 82 328q55 217 86 421q-76 39 -119 107q-53 66 -62 158q-2 6 -2 28q0 125 135 187q2 2 13 2q39 0 94 -86l14 -17 l62 355q18 100 84 325q55 193 137 359q35 72 133 86q8 2 33 2q72 0 96 -56q39 -86 39 -211q0 -109 -35 -276q-70 -319 -272 -727q-6 -12 -6 -23q0 -25 37 -47q51 -29 122 -45q68 -12 150 -55q74 -43 88 -100q4 -29 4 -31q0 -45 -49 -74q-55 -23 -143 -22q-49 0 -66 2 q94 -180 147 -369q41 -160 41 -334q0 -6 -4 -84q-10 -231 -110 -434q-51 -111 -131 -164q-70 -51 -150 -51h-6q-80 4 -154 35q-84 41 -135 96q-61 63 -88 133q-70 172 -80 324q-2 20 -2 86zM1626 -98q0 -8 1 -37t1 -39q2 -90 22 -152q18 -63 60 -63h2q57 2 98 131 q37 119 37 235v23q-4 90 -43 213q-39 121 -80 201l-41 78l-24 -201q-12 -90 -27 -242q-6 -69 -6 -147zM139 -94q0 102 17 172q16 80 82 328q55 217 86 421q-76 39 -119 107q-53 66 -62 158q-2 6 -2 28q0 125 135 187q2 2 13 2q39 0 94 -86l14 -17l62 355q18 100 84 325 q55 193 137 359q35 72 133 86q8 2 33 2q72 0 96 -56q39 -86 39 -211q0 -109 -35 -276q-70 -319 -272 -727q-6 -12 -6 -23q0 -25 37 -47q51 -29 122 -45q68 -12 150 -55q74 -43 88 -100q4 -29 4 -31q0 -45 -49 -74q-55 -23 -143 -22q-49 0 -66 2q94 -180 147 -369 q41 -160 41 -334q0 -6 -4 -84q-10 -231 -110 -434q-51 -111 -131 -164q-70 -51 -150 -51h-6q-80 4 -154 35q-84 41 -135 96q-61 63 -88 133q-70 172 -80 324q-2 20 -2 86zM508 -98q0 -8 1 -37t1 -39q2 -90 22 -152q18 -63 60 -63h2q57 2 98 131q37 119 37 235v23 q-4 90 -43 213q-39 121 -80 201l-41 78l-24 -201q-12 -90 -27 -242q-6 -69 -6 -147z" />
</font>
</defs>
</svg>
